<svg id="Layer_1" data-name="Layer 1" xmlns="http://www.w3.org/2000/svg" xmlns:xlink="http://www.w3.org/1999/xlink" viewBox="0 0 125 125"><defs><style>.cls-1{fill:#d6d2c1;}.cls-2,.cls-4,.cls-6{fill:#0f662b;}.cls-3{fill:#fff;}.cls-4,.cls-6{stroke:#d6d2c1;stroke-miterlimit:10;}.cls-4{stroke-width:0.97px;}.cls-5{mask:url(#mask);}.cls-6{stroke-width:0.88px;}.cls-7{filter:url(#luminosity-noclip);}</style><filter id="luminosity-noclip" x="627.9" y="495.63" width="59.27" height="46.81" filterUnits="userSpaceOnUse" color-interpolation-filters="sRGB"><feFlood flood-color="#fff" result="bg"/><feBlend in="SourceGraphic" in2="bg"/></filter><mask id="mask" x="28.91" y="20.36" width="59.27" height="46.81" maskUnits="userSpaceOnUse"><g class="cls-7"><g transform="translate(-598.99 -475.27)"><path d="M682.13,542.44H632.95a5.06,5.06,0,0,1-5-5L636,523.28c1.35-2.48,2.27-5,5-5h33c2.78,0,3.66,2.4,5,5l8.07,14.11A5.06,5.06,0,0,1,682.13,542.44Z"/><rect x="650.94" y="503.64" width="2.55" height="15.96"/></g></g></mask></defs><title>car-icon</title><circle class="cls-1" cx="62.5" cy="62.5" r="62.5"/><rect class="cls-2" x="19.35" y="59.54" width="87.01" height="21.45" rx="4.47" ry="4.47"/><path class="cls-2" d="M679.34,542.56h-43.6a4.49,4.49,0,0,1-4.47-4.47l7.15-12.51c1.2-2.2,2-4.47,4.47-4.47h29.3c2.46,0,3.24,2.13,4.47,4.47l7.15,12.51A4.49,4.49,0,0,1,679.34,542.56Z" transform="translate(-598.99 -475.27)"/><path class="cls-3" d="M674.73,535H640.24c-2,0,1.73-7,1.73-7,1-1.79,1.64-3.64,3.64-3.64h23.85c2,0,2.64,1.73,3.64,3.64C673.11,528,676.74,535,674.73,535Z" transform="translate(-598.99 -475.27)"/><circle class="cls-1" cx="36.78" cy="79.06" r="9.53"/><circle class="cls-4" cx="36.78" cy="79.06" r="7.6"/><circle class="cls-1" cx="88.63" cy="79.06" r="9.53"/><circle class="cls-4" cx="88.63" cy="79.06" r="7.6"/><g class="cls-5"><path class="cls-6" d="M643.88,535.05a2.69,2.69,0,0,1-1.81.72,2.33,2.33,0,0,1-1.71-.72,2.39,2.39,0,0,1-.72-1.77V521.8c-1.72,0-1.56.34-2.65,1a9.9,9.9,0,0,0-2.79,2.48,1.44,1.44,0,0,1-1.81.52,1.54,1.54,0,0,1-1.09-1.55V507.44a1.54,1.54,0,0,1,1.09-1.55,1.44,1.44,0,0,1,1.81.52,11.16,11.16,0,0,0,3,2.69c1,.55.75.83,2.4.83V498.56a2.39,2.39,0,0,1,.72-1.77,2.33,2.33,0,0,1,1.71-.72,2.69,2.69,0,0,1,1.81.72l9,8.61v-3.53A2.43,2.43,0,0,1,657,500l.06.06,9.1,8.48v-3.41a2.39,2.39,0,0,1,.72-1.77,2.33,2.33,0,0,1,1.71-.72,2.54,2.54,0,0,1,1.71.62L681.82,514a2.51,2.51,0,0,1,.18,3.54l-.18.18-11.58,10.75a2.54,2.54,0,0,1-1.71.62,2.33,2.33,0,0,1-1.71-.72,2.39,2.39,0,0,1-.72-1.77v-3.41l-9.1,8.48a2.37,2.37,0,0,1-3.36.06l-.06-.06a2.39,2.39,0,0,1-.72-1.77v-3.53Z" transform="translate(-598.99 -475.27)"/></g></svg>