<svg id="Layer_1" data-name="Layer 1" xmlns="http://www.w3.org/2000/svg" xmlns:xlink="http://www.w3.org/1999/xlink" viewBox="0 0 125 125"><defs><mask id="mask" x="-26.74" y="-47.06" width="182.68" height="182.68" maskUnits="userSpaceOnUse"><g transform="translate(-577.3 -449.5)"><circle cx="641.9" cy="493.8" r="91.3" fill="#fff"/></g></mask><mask id="mask-2" x="28.94" y="10.26" width="60.56" height="60.56" maskUnits="userSpaceOnUse"><g transform="translate(-577.3 -449.5)"><circle cx="636.5" cy="490" r="30.3" fill="#fff"/></g></mask></defs><title>cell-service-icon</title><circle cx="62.5" cy="62.5" r="62.5" fill="#d6d2c1"/><rect x="43.7" y="85.7" width="38.1" height="12.38" fill="#fff"/><g mask="url(#mask)"><path d="M657.1,472.8a7.3,7.3,0,0,1,7.4,7.4v63.9a7.3,7.3,0,0,1-7.4,7.4H622.7a7.3,7.3,0,0,1-7.4-7.4V480.2a7.3,7.3,0,0,1,7.4-7.4Zm0,57.1V482.1a1.8,1.8,0,0,0-1.8-1.8H624.6a1.8,1.8,0,0,0-1.8,1.8V530a1.8,1.8,0,0,0,1.8,1.8h30.7a1.8,1.8,0,0,0,1.8-1.8Zm-17.2,16.6a5,5,0,1,0-3.5-1.5A4.7,4.7,0,0,0,639.9,546.6Z" transform="translate(-577.3 -449.5)" fill="#0f662b"/></g><g mask="url(#mask-2)"><path d="M631.3,503.4h.3a.5.5,0,0,1,.1.3V508a.5.5,0,0,1-.1.3h-2.9a.5.5,0,0,1-.1-.3v-4.1a.5.5,0,0,1,.1-.3h2.5Zm2.3,4.5a.5.5,0,0,0,.1.3h2.9a.5.5,0,0,0,.1-.3V502a.5.5,0,0,0-.1-.3h-2.9a.5.5,0,0,0-.1.3Zm5,0a.5.5,0,0,0,.1.3h2.9a.5.5,0,0,0,.1-.3v-9.1a.5.5,0,0,0-.1-.3h-2.9a.5.5,0,0,0-.1.3Zm5,0a.5.5,0,0,0,.1.3h2.9a.5.5,0,0,0,.1-.3V494.5a.5.5,0,0,0-.1-.3h-2.9a.5.5,0,0,0-.1.3Zm5,0a.5.5,0,0,0,.1.3h2.9a.5.5,0,0,0,.1-.3V488.9a.5.5,0,0,0-.1-.3h-2.9a.5.5,0,0,0-.1.3Z" transform="translate(-577.3 -449.5)" fill="#0f662b"/></g><rect x="55.9" y="36.1" width="20.9" height="20.25" fill="#d6d2c1"/></svg>