<?xml version="1.0" encoding="utf-8"?>
<!-- Generator: Adobe Illustrator 21.0.1, SVG Export Plug-In . SVG Version: 6.00 Build 0)  -->
<svg version="1.1" id="Layer_1" xmlns="http://www.w3.org/2000/svg" xmlns:xlink="http://www.w3.org/1999/xlink" x="0px" y="0px"
	 viewBox="0 0 125 125" style="enable-background:new 0 0 125 125;" xml:space="preserve">
<style type="text/css">
	.st0{fill:#D6D2C1;}
	.st1{fill:#0F662B;}
	.st2{fill:#FFFFFF;stroke:#0F662B;stroke-width:1.5;stroke-miterlimit:10;}
</style>
<title>cutting-icon</title>
<circle class="st0" cx="62.5" cy="62.5" r="62.5"/>
<path class="st1" d="M76.3,66.8c0.5,6.7,1.2,9.4,2.1,10.8c1.8,3,4.1,5.7,6.9,7.8c1.6,1.1,2.2,3.2,1.4,5c-0.6,1.8-2.4,3.1-4.3,3H35.6
	c-1.9,0.1-3.7-1.1-4.3-2.9c-0.8-1.8-0.2-3.9,1.4-5c3-2.3,5.5-5.2,7.5-8.5c0.7-1.2,1.2-3.6,1.6-10.1C42.1,59,75.7,59,76.3,66.8z"/>
<ellipse class="st0" cx="59" cy="67.5" rx="14.3" ry="5.2"/>
<ellipse class="st1" cx="59" cy="67.5" rx="10.1" ry="3.7"/>
<ellipse class="st0" cx="59" cy="67.5" rx="7.3" ry="2.7"/>
<path class="st2" d="M111.6,53.3c0.7-1.4,0.1-3-1.2-3.7C110.2,49.5,42,23.4,42,23.4L37.7,32l1.5,4.4l3.2-1.1l1.1,3.3l3.4-1.1
	l1.1,3.4l3.1-1l1,3.1l3.6-0.8l0.9,3.5l4-1l1.2,4l4.3-1.4l1.4,3.7l4.2-0.8l1.4,4l4.2-1.1l1.1,3.4l3.7-0.8l1.2,3.6l3.7-1l0.4,1.8
	c0.4,1.5,1.5,2.7,2.8,3.4l10.2,5l0.1,0l0.1,0.1c1.4,0.7,3,0.1,3.7-1.2L111.6,53.3z M100.2,63.8l-6.6-3.3l5.8-11.6l6.9,2.5
	L100.2,63.8z"/>
</svg>
