<?xml version="1.0" encoding="utf-8"?>
<!-- Generator: Adobe Illustrator 21.0.1, SVG Export Plug-In . SVG Version: 6.00 Build 0)  -->
<svg version="1.1" id="Layer_1" xmlns="http://www.w3.org/2000/svg" xmlns:xlink="http://www.w3.org/1999/xlink" x="0px" y="0px"
	 viewBox="0 0 125 125" style="enable-background:new 0 0 125 125;" xml:space="preserve">
<style type="text/css">
	.st0{fill:#D6D2C1;}
	.st1{fill:#0F662B;stroke:#D6D2C1;stroke-width:0.68;stroke-miterlimit:10;}
	.st2{fill:#0F662B;stroke:#D6D2C1;stroke-width:3;stroke-miterlimit:10;}
</style>
<title>forests-icon</title>
<circle class="st0" cx="62.5" cy="62.5" r="62.5"/>
<path class="st1" d="M50,71.4c0.4,0.4,0.6,0.9,0.6,1.4c0,0.5-0.2,1-0.6,1.3c-0.4,0.4-0.9,0.6-1.4,0.6h-8.9c0,1.3,0.3,1.2,0.8,2
	c0.5,0.8,1.1,1.6,1.9,2.2c0.5,0.3,0.6,0.9,0.4,1.4c-0.2,0.5-0.7,0.9-1.2,0.8h-13c-0.5,0-1-0.3-1.2-0.8c-0.2-0.5-0.1-1.1,0.4-1.4
	c0.8-0.7,1.5-1.5,2.1-2.4c0.4-0.8,0.6-0.6,0.6-1.9h-8.8c-0.5,0-1-0.2-1.4-0.6c-0.4-0.3-0.6-0.8-0.6-1.3c0-0.5,0.2-1,0.6-1.4l6.7-7
	h-2.7c-1,0-1.9-0.8-1.9-1.8c0-0.5,0.2-1,0.5-1.3l0,0l6.6-7h-2.6c-0.5,0-1-0.2-1.4-0.6c-0.4-0.3-0.6-0.8-0.6-1.3c0-0.5,0.2-1,0.5-1.3
	l8.3-9c0.7-0.8,1.9-0.9,2.7-0.1l0.1,0.1l8.3,9c0.3,0.4,0.5,0.8,0.5,1.3c0,0.5-0.2,1-0.6,1.3c-0.4,0.4-0.9,0.6-1.4,0.6h-2.6l6.6,7
	c0.7,0.7,0.7,1.9,0,2.6l0,0c-0.4,0.4-0.9,0.6-1.4,0.6h-2.7L50,71.4z"/>
<path class="st1" d="M103.5,71.4c0.4,0.4,0.6,0.9,0.6,1.4c0,0.5-0.2,1-0.6,1.3c-0.4,0.4-0.9,0.6-1.4,0.6h-8.9c0,1.3,0.3,1.2,0.8,2
	c0.5,0.8,1.1,1.6,1.9,2.2c0.5,0.3,0.6,0.9,0.4,1.4c-0.2,0.5-0.7,0.9-1.2,0.8h-13c-0.5,0-1-0.3-1.2-0.8c-0.2-0.5-0.1-1.1,0.4-1.4
	c0.8-0.7,1.5-1.5,2.1-2.4c0.4-0.8,0.6-0.6,0.6-1.9h-8.8c-0.5,0-1-0.2-1.4-0.6c-0.4-0.3-0.6-0.8-0.6-1.3c0-0.5,0.2-1,0.6-1.4l6.7-7
	h-2.7c-1,0-1.9-0.8-1.9-1.8c0-0.5,0.2-1,0.5-1.3l0,0l6.6-7h-2.6c-0.5,0-1-0.2-1.4-0.6c-0.4-0.3-0.6-0.8-0.6-1.3c0-0.5,0.2-1,0.5-1.3
	l8.3-9c0.7-0.8,1.9-0.9,2.7-0.1l0.1,0.1l8.3,9c0.3,0.4,0.5,0.8,0.5,1.3c0,0.5-0.2,1-0.6,1.3C98,54,97.5,54.2,97,54.2h-2.6l6.6,7
	c0.7,0.7,0.7,1.9,0,2.6l0,0c-0.4,0.4-0.9,0.6-1.4,0.6h-2.7L103.5,71.4z"/>
<path class="st2" d="M85.7,76.6c0.6,0.6,0.9,1.4,0.9,2.2c0,0.8-0.3,1.6-0.9,2.1c-0.6,0.6-1.4,0.9-2.2,0.9H69.2
	c0,2.2,0.4,1.9,1.3,3.3c0.8,1.3,1.9,2.5,3.1,3.5c0.7,0.5,1,1.4,0.6,2.2c-0.3,0.8-1.1,1.4-1.9,1.3h-21c-0.9,0-1.7-0.5-1.9-1.3
	c-0.4-0.8-0.1-1.8,0.6-2.2c1.3-1.1,2.5-2.3,3.3-3.8c0.7-1.2,1-0.9,1-3H40.2c-0.8,0-1.6-0.3-2.2-0.9c-0.6-0.6-0.9-1.3-0.9-2.1
	c0-0.8,0.3-1.6,0.9-2.2l10.7-11.2h-4.4c-1.7,0.1-3.1-1.2-3.1-2.9c0-0.8,0.3-1.6,0.8-2.2l0.1-0.1l10.6-11.3h-4.3
	c-0.8,0-1.6-0.3-2.2-0.9c-0.6-0.6-0.9-1.3-0.9-2.1c0-0.8,0.3-1.5,0.8-2.1l13.4-14.4c1.2-1.3,3.1-1.4,4.4-0.2c0,0,0,0,0,0l0.2,0.2
	l13.4,14.4c0.5,0.6,0.8,1.3,0.8,2.1c0,0.8-0.3,1.6-0.9,2.1c-0.6,0.6-1.4,0.9-2.2,0.9h-4.2l10.6,11.3c1.2,1.1,1.2,3,0.1,4.2l-0.1,0.1
	c-0.6,0.6-1.4,0.9-2.2,0.9h-4.4L85.7,76.6z"/>
</svg>
