<?xml version="1.0" encoding="utf-8"?>
<!-- Generator: Adobe Illustrator 21.0.1, SVG Export Plug-In . SVG Version: 6.00 Build 0)  -->
<svg version="1.1" id="Layer_1" xmlns="http://www.w3.org/2000/svg" xmlns:xlink="http://www.w3.org/1999/xlink" x="0px" y="0px"
	 viewBox="0 0 125 125" style="enable-background:new 0 0 125 125;" xml:space="preserve">
<style type="text/css">
	.st0{fill:#D6D2C1;}
	.st1{fill:#FFFFFF;}
	.st2{fill:#0F662B;}
</style>
<title>permit-icon</title>
<circle class="st0" cx="62.5" cy="62.5" r="62.5"/>
<rect x="28.4" y="41.5" class="st1" width="70.7" height="46"/>
<path class="st2" d="M104.3,86.4c0,4.2-3.4,7.6-7.6,7.6c0,0,0,0-0.1,0H30.6c-4.2,0-7.6-3.4-7.6-7.6c0,0,0,0,0-0.1V40.6
	c0-4.2,3.4-7.6,7.6-7.6c0,0,0,0,0.1,0h66.1c4.2,0,7.6,3.4,7.6,7.6c0,0,0,0,0,0.1L104.3,86.4z M96.7,45.7H30.6v39.7
	c0.1,0.5,0.5,0.9,1,1h64.1c0.5-0.1,0.9-0.5,1-1V45.7z M70.6,63.5c-1,0-1.9-0.8-1.9-1.9c0,0,0,0,0,0v-2.5c0-1,0.8-1.9,1.9-1.9
	c0,0,0,0,0,0h16.5c1,0,1.9,0.8,1.9,1.9c0,0,0,0,0,0v2.5c0,1-0.8,1.9-1.9,1.9c0,0,0,0,0,0H70.6z M89,70.5c0-1-0.8-1.9-1.9-1.9
	c0,0,0,0,0,0H70.6c-1,0-1.9,0.8-1.9,1.9c0,0,0,0,0,0v2.5c0,1,0.8,1.9,1.9,1.9c0,0,0,0,0,0h16.5c1,0,1.9-0.8,1.9-1.9c0,0,0,0,0,0
	V70.5z"/>
<path class="st2" d="M61.4,73.1c0.3,0.3,0.4,0.6,0.4,1c0,0.4-0.1,0.7-0.4,1c-0.3,0.3-0.6,0.4-1,0.4h-6.5c0,1,0.2,0.9,0.6,1.5
	c0.4,0.6,0.8,1.1,1.4,1.6c0.3,0.2,0.4,0.6,0.3,1c-0.1,0.4-0.5,0.6-0.9,0.6h-9.5c-0.4,0-0.8-0.2-0.9-0.6c-0.2-0.4,0-0.8,0.3-1
	c0.6-0.5,1.1-1.1,1.5-1.7c0.3-0.6,0.5-0.4,0.5-1.3h-6.4c-0.4,0-0.7-0.1-1-0.4c-0.3-0.3-0.4-0.6-0.4-1c0-0.4,0.2-0.7,0.4-1l4.8-5h-2
	c-0.8,0-1.4-0.6-1.4-1.4c0-0.3,0.1-0.7,0.4-0.9l0,0l4.8-5.1h-1.9c-0.4,0-0.7-0.1-1-0.4c-0.3-0.3-0.4-0.6-0.4-1c0-0.4,0.1-0.7,0.3-1
	l6-6.5c0.5-0.6,1.4-0.6,2-0.1c0,0,0,0,0,0l0.1,0.1l6,6.5c0.2,0.3,0.4,0.6,0.3,1c0,0.4-0.1,0.7-0.4,1c-0.3,0.3-0.6,0.4-1,0.4h-1.9
	l4.8,5.1c0.5,0.5,0.5,1.4,0,1.9l0,0c-0.3,0.3-0.6,0.4-1,0.4h-2L61.4,73.1z"/>
</svg>
