<svg id="Layer_1" data-name="Layer 1" xmlns="http://www.w3.org/2000/svg" xmlns:xlink="http://www.w3.org/1999/xlink" viewBox="0 0 125 125"><defs><mask id="mask" x="-7.45" y="-2.84" width="125" height="125" maskUnits="userSpaceOnUse"><g transform="translate(-397.8 -275.2)"><circle cx="452.8" cy="334.8" r="62.5" fill="#fff"/></g></mask></defs><title>weather-icon</title><circle cx="62.5" cy="62.5" r="62.5" fill="#d6d2c1"/><circle cx="48.9" cy="51.5" r="16.6" fill="#fff"/><g mask="url(#mask)"><path d="M450.6,308.5a2.1,2.1,0,0,0,1.2,1.1,1.8,1.8,0,0,0,1.5-.2l6.1-3.8a2,2,0,0,1,2.4.1,1.8,1.8,0,0,1,.8,2.2l-1.7,6.9a1.7,1.7,0,0,0,.3,1.5,2,2,0,0,0,1.4.8l7.1.5a2,2,0,0,1,1.8,1.5,1.9,1.9,0,0,1-.7,2.3l-5.4,4.5a1.8,1.8,0,0,0,0,2.9l5.4,4.5a1.9,1.9,0,0,1,.7,2.3,2,2,0,0,1-1.8,1.5l-7.1.5a2,2,0,0,0-1.4.8,1.7,1.7,0,0,0-.3,1.5l1.7,6.9a1.8,1.8,0,0,1-.8,2.2,2,2,0,0,1-2.4.1l-6.1-3.8a1.8,1.8,0,0,0-1.5-.2,2.1,2.1,0,0,0-1.2,1.1l-2.6,6.5a2.1,2.1,0,0,1-4,0l-2.6-6.5a2.1,2.1,0,0,0-1.2-1.1,1.8,1.8,0,0,0-1.5.2l-6.1,3.8a2,2,0,0,1-2.4-.1,1.8,1.8,0,0,1-.8-2.2l1.7-6.9a1.7,1.7,0,0,0-.3-1.5,2,2,0,0,0-1.4-.8l-7.1-.5a2,2,0,0,1-1.8-1.5,1.9,1.9,0,0,1,.7-2.3l5.4-4.5a1.8,1.8,0,0,0,0-2.9l-5.4-4.5a1.9,1.9,0,0,1-.7-2.3,2,2,0,0,1,1.8-1.5l7.1-.5a2,2,0,0,0,1.4-.8,1.7,1.7,0,0,0,.3-1.5l-1.7-6.9a1.8,1.8,0,0,1,.8-2.2,2,2,0,0,1,2.4-.1l6.1,3.8a1.8,1.8,0,0,0,1.5.2,2.1,2.1,0,0,0,1.2-1.1L444,302a2.1,2.1,0,0,1,4,0Zm7.7,11.9a14.8,14.8,0,0,0-5.2-5.2,14.1,14.1,0,0,0-14.3,0,14.8,14.8,0,0,0-5.2,5.2,14.1,14.1,0,0,0,0,14.3,14.8,14.8,0,0,0,5.2,5.2,14.1,14.1,0,0,0,14.3,0,14.8,14.8,0,0,0,5.2-5.2,14.1,14.1,0,0,0,0-14.3ZM455.4,333a10.9,10.9,0,0,1-4,4,10.9,10.9,0,0,1-10.9,0,10.9,10.9,0,0,1-4-4,10.9,10.9,0,0,1,0-10.9,10.9,10.9,0,0,1,4-4,10.9,10.9,0,0,1,10.9,0,10.9,10.9,0,0,1,4,4,10.9,10.9,0,0,1,0,10.9Z" transform="translate(-397.8 -275.2)" fill="#0f662b"/><path d="M491.2,344.4a13.1,13.1,0,0,1,7.7,4.6,13,13,0,0,1,3,8.5,13.3,13.3,0,0,1-1.8,6.8,13.1,13.1,0,0,1-4.9,4.9,13.3,13.3,0,0,1-6.8,1.8H449.8a14.6,14.6,0,0,1-7.6-2,15.4,15.4,0,0,1-5.5-5.5,15,15,0,0,1,.8-16.3,15,15,0,0,1,7.3-5.5v-.8a16.4,16.4,0,0,1,2.3-8.4,16.8,16.8,0,0,1,14.6-8.4,16.3,16.3,0,0,1,8.5,2.3,16.9,16.9,0,0,1,6.1,6.1,9.8,9.8,0,0,1,5.6-1.7,10,10,0,0,1,10.1,10.1A11,11,0,0,1,491.2,344.4Z" transform="translate(-397.8 -275.2)" fill="#0f662b" stroke="#d6d2c1" stroke-miterlimit="10" stroke-width="2.84"/></g></svg>