<?xml version="1.0" encoding="utf-8"?>
<!-- Generator: Adobe Illustrator 21.1.0, SVG Export Plug-In . SVG Version: 6.00 Build 0)  -->
<svg version="1.1" xmlns="http://www.w3.org/2000/svg" xmlns:xlink="http://www.w3.org/1999/xlink" x="0px" y="0px"
	 viewBox="0 0 612.9 792" enable-background="new 0 0 612.9 792" xml:space="preserve">
<g id="Layer_2">

		<rect id="background_-__x23_fff_2_" x="-89.1" y="90" transform="matrix(6.123234e-17 -1 1 6.123234e-17 -89.0928 702.9072)" fill="#FFFFFF" stroke="#000000" stroke-miterlimit="10" width="792" height="612"/>
	<text transform="matrix(0 -1 1 0 587.6473 303.4639)" font-family="'Arial'" font-size="8px">I HAVE READ, UNDERSTOOD, AND AGREED TO THE RULES</text>
	<rect x="-329.7" y="363.5" transform="matrix(1.837589e-15 -1 1 1.837589e-15 -346.6608 447.369)" width="760" height="67.1"/>
	<text transform="matrix(0 -1 1 0 70.921 762.002)" fill="#FFFFFF" font-family="'Arial-Bold'" font-size="56px">CHRISTMAS TREE PERMIT</text>
	<text transform="matrix(0 -1 1 0 434.2131 768.168)" font-family="'Arial-Bold'" font-size="24px">ARAPAHO - ROOSEVELT</text>
	<g id="_x5F_guides">
	</g>
	<line fill="none" stroke="#000000" stroke-width="2" stroke-miterlimit="10" x1="18.9" y1="18" x2="18.9" y2="772"/>
	<rect x="144" y="396" display="none" fill="#D1D3D4" width="631" height="30"/>
	<text transform="matrix(0 -1 1 0 453.2131 767.168)" font-family="'Arial'" font-size="12px">NATIONAL FORESTS</text>
	<text transform="matrix(0 -1 1 0 548.3863 697.7744)" font-family="'Arial'" font-size="4.6884px">ISSUE DATE</text>
	<line fill="none" stroke="#000000" stroke-miterlimit="10" x1="406.1" y1="330" x2="596.9" y2="330"/>
	<line fill="none" stroke="#000000" stroke-miterlimit="10" x1="540.2" y1="585.6" x2="569.9" y2="585.6"/>
	<text transform="matrix(0 -1 1 0 562.8704 698.3223)" font-family="'Arial-Bold'" font-size="10px">NOV 10, 2018</text>

		<rect x="579.4" y="309.6" transform="matrix(6.123234e-17 -1 1 6.123234e-17 269.8551 898.9594)" fill="#E6E7E8" stroke="#000000" stroke-miterlimit="10" width="10" height="10"/>
	<text transform="matrix(0 -1 1 0 562.8701 773.002)" font-family="'Arial-Bold'" font-size="10px">0000000001</text>
	<text transform="matrix(0 -1 1 0 562.8699 581.3242)" font-family="'Arial-Bold'" font-size="10px">DEC 24 12:00AM 2018</text>
	<text transform="matrix(0 -1 1 0 548.2856 581.3223)" font-family="'Arial'" font-size="5px">PERMIT EXPIRATION</text>
	<text transform="matrix(0 -1 1 0 387.9852 771.002)" font-family="'Arial-Bold'" font-size="17px">PERMIT MUST BE PLACED AND CLEARLY VISIBLE ON DASHBOARD FACING THIS SIDE UP</text>
	<g>
		<text transform="matrix(0 -1 1 0 111.0146 487.6738)" font-family="'Arial'" font-size="7px">(MM)</text>
		<text transform="matrix(0 -1 1 0 111.0147 330.6777)" font-family="'Arial'" font-size="7px">(DD)</text>
		<g opacity="0.2">
			<path fill="#D1D3D4" d="M216.6,208.9c1.3,0,2.3,0.5,3.3,1.4c0.9,0.9,1.4,2,1.4,3.2v33c0.8,0,2.9-0.2,6.3-0.4
				c3.4-0.2,6-0.4,7.9-0.4c1.2,0,2.2,0.4,3.1,1.3c0.8,0.9,1.3,1.9,1.3,3.1v22.8c0,1.2-0.4,2.2-1.3,3.1c-0.8,0.9-1.9,1.3-3.1,1.3
				c-1.8,0-4.5-0.1-7.9-0.4c-3.4-0.2-5.5-0.4-6.3-0.4v33c0,1.2-0.5,2.3-1.4,3.2c-0.9,0.9-2,1.4-3.3,1.4c-1.3,0-2.3-0.5-3.3-1.4
				l-29.2-28.7v16.3c0,1.2-0.5,2.3-1.4,3.2c-0.9,0.9-2,1.4-3.3,1.4c-1.3,0-2.3-0.5-3.3-1.4L147,274.8v14.1c0,1.2-0.5,2.3-1.4,3.2
				c-0.9,0.9-2,1.4-3.3,1.4c-1.3,0-2.3-0.5-3.3-1.4l-27.9-27.4c-0.9-0.9-1.4-2-1.4-3.2c0-1.2,0.5-2.3,1.4-3.2l27.9-27.4
				c0.9-0.9,2-1.4,3.3-1.4c1.3,0,2.3,0.5,3.3,1.4c0.9,0.9,1.4,2,1.4,3.2v14.1l29.2-28.7c0.9-0.9,2-1.4,3.3-1.4
				c1.3,0,2.3,0.5,3.3,1.4c0.9,0.9,1.4,2,1.4,3.2v16.3l29.2-28.7C214.2,209.4,215.3,208.9,216.6,208.9z"/>
		</g>
		<g opacity="0.2">
			<path fill="#D1D3D4" d="M215.7,363.7c1.3,0,2.3,0.5,3.3,1.4c0.9,0.9,1.4,2,1.4,3.2v33c0.8,0,2.9-0.2,6.3-0.4
				c3.4-0.2,6-0.4,7.9-0.4c1.2,0,2.2,0.4,3.1,1.3c0.8,0.9,1.3,1.9,1.3,3.1v22.8c0,1.2-0.4,2.2-1.3,3.1c-0.8,0.9-1.9,1.3-3.1,1.3
				c-1.8,0-4.5-0.1-7.9-0.4c-3.4-0.2-5.5-0.4-6.3-0.4v33c0,1.2-0.5,2.3-1.4,3.2c-0.9,0.9-2,1.4-3.3,1.4c-1.3,0-2.3-0.5-3.3-1.4
				l-29.2-28.7V455c0,1.2-0.5,2.3-1.4,3.2c-0.9,0.9-2,1.4-3.3,1.4c-1.3,0-2.3-0.5-3.3-1.4l-29.2-28.7v14.1c0,1.2-0.5,2.3-1.4,3.2
				c-0.9,0.9-2,1.4-3.3,1.4c-1.3,0-2.3-0.5-3.3-1.4l-27.9-27.4c-0.9-0.9-1.4-2-1.4-3.2c0-1.2,0.5-2.3,1.4-3.2l27.9-27.4
				c0.9-0.9,2-1.4,3.3-1.4c1.3,0,2.3,0.5,3.3,1.4c0.9,0.9,1.4,2,1.4,3.2v14.1l29.2-28.7c0.9-0.9,2-1.4,3.3-1.4
				c1.3,0,2.3,0.5,3.3,1.4c0.9,0.9,1.4,2,1.4,3.2v16.3l29.2-28.7C213.4,364.1,214.5,363.7,215.7,363.7z"/>
		</g>

			<rect x="97" y="340.8" transform="matrix(6.123234e-17 -1 1 6.123234e-17 -243.7677 587.808)" fill="none" stroke="#000000" stroke-miterlimit="10" width="150" height="150"/>

			<rect x="97" y="190.4" transform="matrix(6.123234e-17 -1 1 6.123234e-17 -93.4271 437.4674)" fill="none" stroke="#000000" stroke-miterlimit="10" width="150" height="150"/>
	</g>
	<text transform="matrix(0 -1 1 0 548.2858 772.3359)" font-family="'Arial'" font-size="5px">PERMIT NUMBER</text>
	<text transform="matrix(0 -1 1 0 587.4701 317.9736)" font-family="'Arial'" font-size="9.054px">X</text>
	<g>
		<text transform="matrix(0 -1 1 0 436.0776 304.1934)"><tspan x="0" y="0" font-family="'Arial'" font-size="8px">Fill in dates (month, day) </tspan><tspan x="89.8" y="0" font-family="'Arial-Bold'" font-size="8px" text-decoration=" underline">must</tspan><tspan x="108.9" y="0" font-family="'Arial-Bold'" font-size="8px"> </tspan><tspan x="111.1" y="0" font-family="''" font-size="8px">be filled out using bold black ink only. </tspan><tspan x="0" y="12" font-family="''" font-size="8px">(i.e. Sharpie, marker, felt-tip pen)</tspan><tspan x="0" y="24" font-family="''" font-size="8px">Month and day should be filled out on the date you cut your tree.  </tspan><tspan x="0" y="36" font-family="''" font-size="8px">Permit </tspan><tspan x="25.3" y="36" font-family="'Arial-Bold'" font-size="8px" text-decoration=" underline">must</tspan><tspan x="44.4" y="36" font-family="''" font-size="8px"> be completed before transporting tree. </tspan><tspan x="0" y="48" font-family="''" font-size="8px">Permit holder </tspan><tspan x="49.8" y="48" font-family="'Arial-Bold'" font-size="8px" text-decoration=" underline">must</tspan><tspan x="68.9" y="48" font-family="'Arial-Bold'" font-size="8px"> </tspan><tspan x="71.1" y="48" font-family="''" font-size="8px">be present at time of tree cutting. </tspan><tspan x="0" y="60" font-family="''" font-size="8px">Do </tspan><tspan x="12.4" y="60" font-family="'Arial-Bold'" font-size="8px" text-decoration=" underline">not</tspan><tspan x="24.9" y="60" font-family="'Arial-Bold'" font-size="8px"> </tspan><tspan x="27.1" y="60" font-family="''" font-size="8px">cut tree tops off - take the whole tree. </tspan><tspan x="0" y="72" font-family="''" font-size="8px">Leave no trace - pack it in, pack it out. </tspan><tspan x="0" y="84" font-family="''" font-size="8px">You </tspan><tspan x="16.5" y="84" font-family="'Arial-Bold'" font-size="8px" text-decoration=" underline">must</tspan><tspan x="35.6" y="84" font-family="''" font-size="8px"> be on National Forest land when cutting your Christmas tree(s) </tspan><tspan x="0" y="96" font-family="''" font-size="8px">under this permit. </tspan><tspan x="0" y="108" font-family="''" font-size="8px">It is unlawful to reuse or duplicate this permit for the purpose of removing</tspan><tspan x="0" y="120" font-family="''" font-size="8px">more products than the permit holder has purchased.</tspan></text>
		<ellipse transform="matrix(0.7071 -0.7071 0.7071 0.7071 -94.2268 398.3382)" cx="433.7" cy="312.9" rx="2" ry="2"/>
		<circle cx="505.4" cy="312.9" r="2"/>
		<circle cx="457.7" cy="312.9" r="2"/>
		<circle cx="470" cy="312.9" r="2"/>
		<circle cx="481" cy="312.9" r="2"/>
		<circle cx="493" cy="312.9" r="2"/>
		<circle cx="517.4" cy="312.9" r="2"/>
		<circle cx="541.6" cy="312.9" r="2"/>
		<text transform="matrix(0 -1 1 0 424.3398 313.9111)" font-family="'Arial'" font-size="10px">GUIDELINES:</text>
	</g>
	<text transform="matrix(0 -1 1 0 578.3405 772.002)" font-family="''" font-size="5.0716px">PERMIT HOLDER</text>
	<text transform="matrix(0 -1 1 0 592.0405 773.002)" font-family="'Arial-Bold'" font-size="10.1432px">FIRST NAME LAST NAME</text>
	<g id="max_stump_height_1_">

			<rect x="456.4" y="365" transform="matrix(6.123234e-17 -1 1 6.123234e-17 116.3535 896.3535)" fill="#E6E7E8" stroke="#000000" stroke-miterlimit="10" width="100" height="50"/>
		<text transform="matrix(0 -1 1 0 491.1814 433.2646)" font-family="''" font-size="5px">MAX STUMP HEIGHT</text>
		<text transform="matrix(0 -1 1 0 525.2908 432.8569)" font-family="'Arial-Bold'" font-size="30px">6</text>
		<text transform="matrix(0 -1 1 0 509.5198 390.3408)"><tspan x="0" y="0" font-family="''" font-size="12px">INCHES </tspan><tspan x="-6.7" y="14.4" font-family="''" font-size="12px">OR LESS</tspan></text>
	</g>
	<g>

			<rect x="456.4" y="474.2" transform="matrix(6.123234e-17 -1 1 6.123234e-17 7.1857 1005.5212)" fill="#E6E7E8" stroke="#000000" stroke-miterlimit="10" width="100" height="50"/>
		<text transform="matrix(0 -1 1 0 491.1815 544.2646)" font-family="''" font-size="5px">MAX STUMP DIAMETER</text>
		<text transform="matrix(0 -1 1 0 524.1758 542.5239)" font-family="'Arial-Bold'" font-size="30px">6</text>
		<text transform="matrix(0 -1 1 0 524.4048 499.668)" font-family="''" font-size="12px">INCHES</text>
	</g>
	<g id="max_tree_height_1_">

			<rect x="456.4" y="584.2" transform="matrix(6.123234e-17 -1 1 6.123234e-17 -102.8143 1115.5212)" fill="#E6E7E8" stroke="#000000" stroke-miterlimit="10" width="100" height="50"/>
		<text transform="matrix(0 -1 1 0 490.8295 654.0488)" font-family="''" font-size="5px">MAX TREE HEIGHT</text>
		<text transform="matrix(0 -1 1 0 524.4521 653.1104)" font-family="'Arial-Bold'" font-size="30px">12</text>
		<text transform="matrix(0 -1 1 0 524.4523 595.3359)" font-family="''" font-size="12px">FEET</text>
	</g>
	<g id="tree_count_5_">
		<rect x="456.4" y="694.2" transform="matrix(6.123234e-17 -1 1 6.123234e-17 -212.8143 1225.5212)" width="100" height="50"/>
		<text transform="matrix(0 -1 1 0 524.4526 762.1763)" fill="#FFFFFF" font-family="'Arial-Bold'" font-size="30px">2</text>
		<text transform="matrix(0 -1 1 0 491.228 763.668)" fill="#FFFFFF" font-family="''" font-size="5px">PERMIT VALID FOR</text>
		<text transform="matrix(0 -1 1 0 524.4518 714.668)" fill="#FFFFFF" font-family="''" font-size="12px">TREES</text>
	</g>
	<line fill="none" stroke="#000000" stroke-miterlimit="10" x1="569.9" y1="19.2" x2="569.9" y2="777"/>
	<line fill="none" stroke="#000000" stroke-miterlimit="10" x1="540.6" y1="702.3" x2="570.2" y2="702.3"/>
	<line fill="none" stroke="#000000" stroke-miterlimit="10" x1="540.6" y1="330" x2="540.6" y2="775.9"/>
	<text transform="matrix(0 -1 1 0 339.2458 446.4893)" font-family="''" font-size="8px">FILL IN THE MONTH AND DAY YOU CUT YOUR TREE(S)</text>
	<g>

			<rect x="169.3" y="-66.2" transform="matrix(6.123234e-17 -1 1 6.123234e-17 150.1609 292.2564)" fill="#D1D3D4" width="103.8" height="274.5"/>
		<text transform="matrix(1 -1.980000e-03 1.980000e-03 1 100.9752 110.2427)" font-family="'Arial-Bold'" font-size="110px">2018</text>
		<line fill="none" stroke="#000000" stroke-width="2" stroke-miterlimit="10" x1="84.2" y1="122.9" x2="358.7" y2="122.9"/>
		<line fill="none" stroke="#000000" stroke-width="2" stroke-miterlimit="10" x1="84" y1="19.2" x2="358.5" y2="19.2"/>
	</g>
	<line fill="none" stroke="#000000" stroke-width="2" stroke-miterlimit="10" x1="358.9" y1="18.2" x2="358.9" y2="777"/>
	<g>
		<g id="tree_count_4_">

				<rect x="246.7" y="474" transform="matrix(6.123234e-17 -1 1 6.123234e-17 -204.7973 793.1817)" fill="none" stroke="#000000" stroke-miterlimit="10" width="95" height="50"/>
			<text transform="matrix(0 -1 1 0 277.4683 542.2861)" font-family="''" font-size="5px">(MM)</text>
			<line fill="none" stroke="#000000" stroke-miterlimit="10" x1="269.2" y1="498.8" x2="319.2" y2="498.8"/>
			<text transform="matrix(0 -1 1 0 277.4682 494.7344)" font-family="''" font-size="5px">(DD)</text>
			<text transform="matrix(0 -1 1 0 264.8362 542.2861)" font-family="''" font-size="5px">TREE 2</text>
			<text transform="matrix(0 -1 1 0 307.9118 534.2266)" display="none" font-family="'MyriadPro-Regular'" font-size="36px">N   A</text>
		</g>
		<g id="tree_count_3_">

				<rect x="247.2" y="368.7" transform="matrix(6.123234e-17 -1 1 6.123234e-17 -98.952 688.3727)" fill="none" stroke="#000000" stroke-miterlimit="10" width="95" height="50"/>
			<text transform="matrix(0 -1 1 0 277.9865 436.959)" font-family="''" font-size="5px">(MM)</text>
			<line fill="none" stroke="#000000" stroke-miterlimit="10" x1="269.7" y1="393.5" x2="319.7" y2="393.5"/>
			<text transform="matrix(0 -1 1 0 277.9864 389.4072)" font-family="''" font-size="5px">(DD)</text>
			<text transform="matrix(0 -1 1 0 265.3543 436.959)" font-family="''" font-size="5px">TREE 3</text>
			<text transform="matrix(0 -1 1 0 307.9118 428.0605)" font-family="'MyriadPro-Regular'" font-size="36px">N   A</text>
		</g>
		<g id="tree_count_2_">

				<rect x="247.2" y="263.7" transform="matrix(6.123234e-17 -1 1 6.123234e-17 6.048 583.3727)" fill="none" stroke="#000000" stroke-miterlimit="10" width="95" height="50"/>
			<text transform="matrix(0 -1 1 0 277.9865 331.959)" font-family="''" font-size="5px">(MM)</text>
			<line fill="none" stroke="#000000" stroke-miterlimit="10" x1="269.7" y1="288.5" x2="319.7" y2="288.5"/>
			<text transform="matrix(0 -1 1 0 277.9864 284.4072)" font-family="''" font-size="5px">(DD)</text>
			<text transform="matrix(0 -1 1 0 265.3543 331.959)" font-family="''" font-size="5px">TREE 4</text>
			<text transform="matrix(0 -1 1 0 307.9118 323.2266)" font-family="'MyriadPro-Regular'" font-size="36px">N   A</text>
		</g>
		<g id="tree_count_1_">

				<rect x="246.9" y="158.2" transform="matrix(6.123234e-17 -1 1 6.123234e-17 111.1474 477.5931)" fill="none" stroke="#000000" stroke-miterlimit="10" width="95" height="50"/>
			<text transform="matrix(0 -1 1 0 277.6464 226.5195)" font-family="''" font-size="5px">(MM)</text>
			<line fill="none" stroke="#000000" stroke-miterlimit="10" x1="269.4" y1="183.1" x2="319.4" y2="183.1"/>
			<text transform="matrix(0 -1 1 0 277.6463 178.9678)" font-family="''" font-size="5px">(DD)</text>
			<text transform="matrix(0 -1 1 0 265.0142 226.5195)" font-family="''" font-size="5px">TREE 5</text>
			<text transform="matrix(0 -1 1 0 307.5717 217.7871)" font-family="'MyriadPro-Regular'" font-size="36px">N   A</text>
		</g>
	</g>

		<rect x="123.7" y="302" transform="matrix(6.123234e-17 -1 1 6.123234e-17 104.0798 900.0829)" fill="none" stroke="#000000" stroke-width="2" stroke-miterlimit="10" width="756.8" height="192"/>
</g>
<g id="Layer_3">

		<image overflow="visible" width="213" height="229" xlink:href="../../sprint 03/img/forest_logo.png"  transform="matrix(0 -1.0931 1.1318 0 88.9072 782.0015)">
	</image>
	<g id="stump_-_image" display="none">
		<ellipse display="inline" cx="75.7" cy="529.5" rx="43.9" ry="44.7"/>
		<g display="inline">
			<defs>
				<path id="SVGID_1_" d="M119.5,525.6c2.1,24.6-15.8,46.3-40,48.4s-45.5-16-47.6-40.6c-2.1-24.6,15.8-46.3,40-48.4
					S117.4,501,119.5,525.6z"/>
			</defs>
			<clipPath id="SVGID_2_">
				<use xlink:href="#SVGID_1_"  overflow="visible"/>
			</clipPath>
			<path clip-path="url(#SVGID_2_)" fill="#808285" d="M124.5,544.7l-4.6-5.8l3.2-0.3l-4.7-6.6l3.9-0.3l-5-11.6l-3.7,9.3l1.7,0.6
				l-1.2,4.3l-3.8-6l2.3-0.2l-3.2-9.8l-4.1,8.7l2.1,0.9l-0.8,3.4l-3.5-11l-1.9,5.3l-1.2,3.1l-2-2.8l2-0.2l-5.1-13l-5.2,12.6l3,1
				l-3.9,7.4l-2.4-3l2.5-0.2l-7.3-11.2l-1.4,4.4l-3-3.3l3-0.8L73,505.8l-1.7,7.7L62,493.2l-6.1,21l2.5,0.3l-3,9.3L49.8,513l3.3,0.2
				l-9.6-25.6l-7.3,23.6l4,0.4l-13,46c0,0,20.5-11.4,59.4-13.7C125.4,541.5,124.5,544.7,124.5,544.7z"/>
			<path clip-path="url(#SVGID_2_)" fill="#FFFFFF" d="M52.1,543.8c1.9,1.1,5.9,1,5.9,1l2.3,5l0.4-5c0,0,8.2,0.4,13.1-0.3
				c4.9-0.8,7.2-1.4,6.9-2.8c-0.3-1.4-0.7-2.5-6.5-3.2s-13.5-0.4-16.6,0c-3.1,0.4-5.3,0.7-6.4,1.6C50,540.9,49.1,542.1,52.1,543.8z"
				/>
			<path clip-path="url(#SVGID_2_)" fill="#FFFFFF" d="M41,567.5c0,0,1.7-0.1,2.7-0.7s2-2.2,2-2.2s1.7,0.3,3.4-0.3
				c1.7-0.6,1.7-0.9,1.8-1.5c0.1-0.6-0.6-19.3-0.6-19.3s0.8,1.5,4.5,2c3.7,0.5,2.8,0.3,2.8,0.3l3.3,6.7l0.5-6.8c0,0,2.4,0.1,6.1,0.1
				c11.3,0,13.9-3,13.9-3l-1.2,20c0,0,0.3,0.1,2.8,1c2.5,0.9,1.8,1.7,3,2c1.3,0.3,1.7,0.3,3.4,0.8s2.8,1.2,1.1,1.5s-3.9,0.4-6.6-0.7
				s-8-3.1-8-3.1s-0.3,1.3,0.7,1.8c1,0.5,3.4,1.5,3.4,1.5s0.9,0.3-1.1,0.4s-5.9,0.4-8-0.4c-2.1-0.8-1.3-1.5-3.7-1.9
				c-2.3-0.3-2.8,0.2-4-0.2c-1.1-0.4-1.5-1.1-2.3-1.1s-1.1,0-1.1,0s-1.3,1.2-2.9,1.4c-1.6,0.2-1.2,0.2-2.1,0.4s-2.7,0.3-4,0.3
				s-2.8-0.1-3.7,0.1c-0.9,0.2-1.3,0.2-1.8,0.5s-3.1,0.7-3.5,0.5"/>
		</g>
		<text transform="matrix(0.9832 0 0 1 41.8181 592.1081)" display="inline"><tspan x="0" y="0" font-family="'SourceSansPro-Regular'" font-size="9.5407px">Maximum stump</tspan><tspan x="16.6" y="11.4" font-family="'SourceSansPro-Regular'" font-size="9.5407px">height is </tspan><tspan x="13.8" y="22.9" font-family="'SourceSansPro-Bold'" font-size="9.5407px">6“ or less</tspan></text>

			<ellipse id="border_-_green_1_" display="inline" fill="none" stroke="#006838" stroke-width="2" stroke-miterlimit="10" cx="74.9" cy="529.5" rx="43.9" ry="44.7"/>
	</g>
</g>
</svg>
