<?xml version="1.0" encoding="utf-8"?>
<!-- Generator: Adobe Illustrator 21.0.1, SVG Export Plug-In . SVG Version: 6.00 Build 0)  -->
<svg version="1.1" id="Layer_1" xmlns="http://www.w3.org/2000/svg" xmlns:xlink="http://www.w3.org/1999/xlink" x="0px" y="0px"
	 viewBox="0 0 125 125" style="enable-background:new 0 0 125 125;" xml:space="preserve">
<metadata>
        <rdf:RDF
                xmlns:rdf = "http://www.w3.org/1999/02/22-rdf-syntax-ns#"
                xmlns:rdfs = "http://www.w3.org/2000/01/rdf-schema#"
                xmlns:dc = "http://purl.org/dc/elements/1.1/" >
            <rdf:Description about="tree-cutting-icon"
                             dc:title="tree-cutting-icon"
                             dc:description="tree stump with saw"
                             dc:publisher="U.S. National Forest Service"
                             dc:date="2018-02-28"
                             dc:format="image/svg+xml"
                             dc:language="en" >
                <dc:creator>
                    <rdf:Bag>
                        <rdf:li>https://fontawesome.com/license</rdf:li>
                    </rdf:Bag>
                </dc:creator>
            </rdf:Description>
        </rdf:RDF>
</metadata>
<style type="text/css">
	.st0{fill:#EEECE6;}
	.st1{fill:#0F662B;}
	.st2{fill:#FFFFFF;stroke:#0F662B;stroke-width:1.5;stroke-miterlimit:10;}
</style>
<rect x="-3.2" y="-1.3" class="st0" width="131.1" height="126.5"/>
<title>cutting-icon</title>
<g>
	<path class="st1" d="M46.1,66.8c0.5,6.7,1.2,9.4,2.1,10.8c1.8,3,4.1,5.7,6.9,7.8c1.6,1.1,2.2,3.2,1.4,5c-0.6,1.8-2.4,3.1-4.3,3H5.4
		c-1.9,0.1-3.7-1.1-4.3-2.9c-0.8-1.8-0.2-3.9,1.4-5c3-2.3,5.5-5.2,7.5-8.5c0.7-1.2,1.2-3.6,1.6-10.1C11.9,59,45.5,59,46.1,66.8z"/>
	<ellipse class="st0" cx="28.8" cy="67.5" rx="14.3" ry="5.2"/>
	<ellipse class="st1" cx="28.8" cy="67.5" rx="10.1" ry="3.7"/>
	<ellipse class="st0" cx="28.8" cy="67.5" rx="7.3" ry="2.7"/>
	<path class="st2" d="M81.4,53.3c0.7-1.4,0.1-3-1.2-3.7C80,49.5,11.7,23.4,11.7,23.4L7.5,32L9,36.3l3.2-1.1l1.1,3.3l3.4-1.1l1.1,3.4
		l3.1-1l1,3.1l3.6-0.8l0.9,3.5l4-1l1.2,4l4.3-1.4l1.4,3.7l4.2-0.8l1.4,4l4.2-1.1l1.1,3.4l3.7-0.8l1.2,3.6l3.7-1l0.4,1.8
		c0.4,1.5,1.5,2.7,2.8,3.4l10.2,5l0.1,0l0.1,0.1c1.4,0.7,3,0.1,3.7-1.2L81.4,53.3z M70,63.8l-6.6-3.3l5.8-11.6l6.9,2.5L70,63.8z"/>
</g>
</svg>
