<svg id="Layer_1" data-name="Layer 1" xmlns="http://www.w3.org/2000/svg" viewBox="0 0 125 125"><defs><style>.cls-1{fill:#d6d2c1;}.cls-2,.cls-3{fill:#0f662b;stroke:#d6d2c1;stroke-miterlimit:10;}.cls-2{stroke-width:0.68px;}.cls-3{stroke-width:3px;}</style></defs><title>forests-icon</title><circle class="cls-1" cx="62.5" cy="62.5" r="62.5"/><path class="cls-2" d="M627.64,520.94a2.08,2.08,0,0,1,.56,1.4,1.81,1.81,0,0,1-.56,1.32,1.85,1.85,0,0,1-1.37.56h-8.9c0,1.33.27,1.2.8,2.05a7.66,7.66,0,0,0,1.92,2.16,1.12,1.12,0,0,1,.4,1.4,1.19,1.19,0,0,1-1.2.84h-13a1.19,1.19,0,0,1-1.2-.84,1.12,1.12,0,0,1,.4-1.4,8.64,8.64,0,0,0,2.08-2.36c.43-.77.64-.58.64-1.86h-8.8a1.85,1.85,0,0,1-1.37-.56,1.81,1.81,0,0,1-.56-1.32,2.08,2.08,0,0,1,.56-1.4l6.67-7H602a1.88,1.88,0,0,1-1.41-3.16l0,0,6.57-7h-2.64a1.85,1.85,0,0,1-1.37-.56,1.81,1.81,0,0,1-.56-1.32,2,2,0,0,1,.48-1.32l8.32-9a1.94,1.94,0,0,1,2.74-.14l.14.14,8.32,9a2,2,0,0,1,.48,1.32,1.81,1.81,0,0,1-.56,1.32,1.85,1.85,0,0,1-1.37.56h-2.64l6.57,7a1.84,1.84,0,0,1,0,2.6l0,0a1.85,1.85,0,0,1-1.37.56H621Z" transform="translate(-577.59 -449.59)"/><path class="cls-2" d="M681.14,520.94a2.08,2.08,0,0,1,.56,1.4,1.81,1.81,0,0,1-.56,1.32,1.85,1.85,0,0,1-1.37.56h-8.9c0,1.33.27,1.2.8,2.05a7.66,7.66,0,0,0,1.92,2.16,1.12,1.12,0,0,1,.4,1.4,1.19,1.19,0,0,1-1.2.84h-13a1.19,1.19,0,0,1-1.2-.84,1.12,1.12,0,0,1,.4-1.4,8.64,8.64,0,0,0,2.08-2.36c.43-.77.64-.58.64-1.86h-8.8a1.85,1.85,0,0,1-1.37-.56,1.81,1.81,0,0,1-.56-1.32,2.08,2.08,0,0,1,.56-1.4l6.67-7h-2.74a1.88,1.88,0,0,1-1.41-3.16l0,0,6.57-7H658a1.85,1.85,0,0,1-1.37-.56,1.81,1.81,0,0,1-.56-1.32,2,2,0,0,1,.48-1.32l8.32-9a1.94,1.94,0,0,1,2.74-.14l.14.14,8.32,9a2,2,0,0,1,.48,1.32,1.81,1.81,0,0,1-.56,1.32,1.85,1.85,0,0,1-1.37.56H672l6.57,7a1.84,1.84,0,0,1,0,2.6l0,0a1.85,1.85,0,0,1-1.37.56h-2.74Z" transform="translate(-577.59 -449.59)"/><path class="cls-3" d="M663.29,526.19a3.35,3.35,0,0,1,.9,2.25,2.91,2.91,0,0,1-.9,2.13,3,3,0,0,1-2.2.9H646.76c0,2.15.43,1.94,1.29,3.3a12.34,12.34,0,0,0,3.1,3.48,1.8,1.8,0,0,1,.64,2.25,1.92,1.92,0,0,1-1.93,1.35h-21a1.92,1.92,0,0,1-1.93-1.35,1.8,1.8,0,0,1,.64-2.25,13.91,13.91,0,0,0,3.35-3.8c.69-1.24,1-.93,1-3H617.8a3,3,0,0,1-2.2-.9,2.91,2.91,0,0,1-.9-2.13,3.35,3.35,0,0,1,.9-2.25L626.33,515h-4.41a3,3,0,0,1-2.27-5.09l.07-.07,10.57-11.34H626a3,3,0,0,1-2.2-.9,2.91,2.91,0,0,1-.9-2.13,3.16,3.16,0,0,1,.77-2.13l13.4-14.43a3.12,3.12,0,0,1,4.41-.23l.23.23,13.4,14.43a3.16,3.16,0,0,1,.77,2.13,2.91,2.91,0,0,1-.9,2.13,3,3,0,0,1-2.2.9h-4.25l10.57,11.34a3,3,0,0,1,.07,4.18l-.07.07a3,3,0,0,1-2.2.9h-4.41Z" transform="translate(-577.59 -449.59)"/></svg>