<?xml version="1.0" encoding="utf-8"?>
<!-- Generator: Adobe Illustrator 21.0.1, SVG Export Plug-In . SVG Version: 6.00 Build 0)  -->
<svg version="1.1" id="Layer_1" xmlns="http://www.w3.org/2000/svg" xmlns:xlink="http://www.w3.org/1999/xlink" x="0px" y="0px"
	 viewBox="0 0 125 125" style="enable-background:new 0 0 125 125;" xml:space="preserve">
<metadata>
    <rdf:RDF
            xmlns:rdf="http://www.w3.org/1999/02/22-rdf-syntax-ns#"
            xmlns:rdfs="http://www.w3.org/2000/01/rdf-schema#"
            xmlns:dc="http://purl.org/dc/elements/1.1/" >
        <rdf:Description about="tree-forests-icon"
                         dc:title="tree-top-icon"
                         dc:description="tree cut in middle with ban indicator"
                         dc:publisher="U.S. National Forest Service"
                         dc:date="2018-02-28"
                         dc:format="image/svg+xml"
                         dc:language="en" >
            <dc:creator>
                <rdf:Bag>
                    <rdf:li>https://fontawesome.com/license</rdf:li>
                </rdf:Bag>
            </dc:creator>
        </rdf:Description>
    </rdf:RDF>
</metadata>
<style type="text/css">
	.st0{fill:#EEECE6;}
	.st1{fill:#0F662B;stroke:#EEECE6;stroke-width:0.68;stroke-miterlimit:10;}
	.st2{fill:#0F662B;stroke:#EEECE6;stroke-width:3;stroke-miterlimit:10;}
</style>
<rect x="-1.2" y="-0.3" class="st0" width="131.1" height="126.5"/>
<title>forests-icon</title>
<path class="st1" d="M30.6,71.4c0.4,0.4,0.6,0.9,0.6,1.4c0,0.5-0.2,1-0.6,1.3c-0.4,0.4-0.9,0.6-1.4,0.6h-8.9c0,1.3,0.3,1.2,0.8,2
	c0.5,0.8,1.1,1.6,1.9,2.2c0.5,0.3,0.6,0.9,0.4,1.4c-0.2,0.5-0.7,0.9-1.2,0.8h-13c-0.5,0-1-0.3-1.2-0.8c-0.2-0.5-0.1-1.1,0.4-1.4
	c0.8-0.7,1.5-1.5,2.1-2.4c0.4-0.8,0.6-0.6,0.6-1.9H2.3c-0.5,0-1-0.2-1.4-0.6c-0.4-0.3-0.6-0.8-0.6-1.3c0-0.5,0.2-1,0.6-1.4l6.7-7
	H4.9c-1,0-1.9-0.8-1.9-1.8c0-0.5,0.2-1,0.5-1.3l0,0l6.6-7H7.4c-0.5,0-1-0.2-1.4-0.6c-0.4-0.3-0.6-0.8-0.6-1.3c0-0.5,0.2-1,0.5-1.3
	l8.3-9c0.7-0.8,1.9-0.9,2.7-0.1l0.1,0.1l8.3,9c0.3,0.4,0.5,0.8,0.5,1.3c0,0.5-0.2,1-0.6,1.3c-0.4,0.4-0.9,0.6-1.4,0.6h-2.6l6.6,7
	c0.7,0.7,0.7,1.9,0,2.6l0,0c-0.4,0.4-0.9,0.6-1.4,0.6h-2.7L30.6,71.4z"/>
<path class="st1" d="M84.1,71.4c0.4,0.4,0.6,0.9,0.6,1.4c0,0.5-0.2,1-0.6,1.3c-0.4,0.4-0.9,0.6-1.4,0.6h-8.9c0,1.3,0.3,1.2,0.8,2
	c0.5,0.8,1.1,1.6,1.9,2.2c0.5,0.3,0.6,0.9,0.4,1.4c-0.2,0.5-0.7,0.9-1.2,0.8h-13c-0.5,0-1-0.3-1.2-0.8c-0.2-0.5-0.1-1.1,0.4-1.4
	c0.8-0.7,1.5-1.5,2.1-2.4c0.4-0.8,0.6-0.6,0.6-1.9h-8.8c-0.5,0-1-0.2-1.4-0.6c-0.4-0.3-0.6-0.8-0.6-1.3c0-0.5,0.2-1,0.6-1.4l6.7-7
	h-2.7c-1,0-1.9-0.8-1.9-1.8c0-0.5,0.2-1,0.5-1.3l0,0l6.6-7h-2.6c-0.5,0-1-0.2-1.4-0.6c-0.4-0.3-0.6-0.8-0.6-1.3c0-0.5,0.2-1,0.5-1.3
	l8.3-9c0.7-0.8,1.9-0.9,2.7-0.1l0.1,0.1l8.3,9c0.3,0.4,0.5,0.8,0.5,1.3c0,0.5-0.2,1-0.6,1.3c-0.4,0.4-0.9,0.6-1.4,0.6h-2.6l6.6,7
	c0.7,0.7,0.7,1.9,0,2.6l0,0c-0.4,0.4-0.9,0.6-1.4,0.6h-2.7L84.1,71.4z"/>
<path class="st2" d="M66.2,76.6c0.6,0.6,0.9,1.4,0.9,2.2c0,0.8-0.3,1.6-0.9,2.1c-0.6,0.6-1.4,0.9-2.2,0.9H49.7
	c0,2.2,0.4,1.9,1.3,3.3c0.8,1.3,1.9,2.5,3.1,3.5c0.7,0.5,1,1.4,0.6,2.2c-0.3,0.8-1.1,1.4-1.9,1.3h-21c-0.9,0-1.7-0.5-1.9-1.3
	c-0.4-0.8-0.1-1.8,0.6-2.2c1.3-1.1,2.5-2.3,3.3-3.8c0.7-1.2,1-0.9,1-3H20.7c-0.8,0-1.6-0.3-2.2-0.9c-0.6-0.6-0.9-1.3-0.9-2.1
	c0-0.8,0.3-1.6,0.9-2.2l10.7-11.2h-4.4c-1.7,0.1-3.1-1.2-3.1-2.9c0-0.8,0.3-1.6,0.8-2.2l0.1-0.1l10.6-11.3h-4.3
	c-0.8,0-1.6-0.3-2.2-0.9c-0.6-0.6-0.9-1.3-0.9-2.1c0-0.8,0.3-1.5,0.8-2.1L40,29.3c1.2-1.3,3.1-1.4,4.4-0.2c0,0,0,0,0,0l0.2,0.2
	L58,43.8c0.5,0.6,0.8,1.3,0.8,2.1c0,0.8-0.3,1.6-0.9,2.1c-0.6,0.6-1.4,0.9-2.2,0.9h-4.2L62,60.2c1.2,1.1,1.2,3,0.1,4.2L62,64.5
	c-0.6,0.6-1.4,0.9-2.2,0.9h-4.4L66.2,76.6z"/>
</svg>
