<svg id="season-date-icon" data-name="season-date-icon" xmlns="http://www.w3.org/2000/svg" viewBox="0 0 66 66"><title>Untitled-2</title><path d="M407.33,302.41a.7.7,0,0,1,.7.7v15.23a2.8,2.8,0,0,1-2.81,2.81H384.59a2.8,2.8,0,0,1-2.81-2.81V303.12a.7.7,0,0,1,.7-.7Zm-18.25,4a.68.68,0,0,0-.5-.21h-2.34a.7.7,0,0,0-.7.7v2.34a.7.7,0,0,0,.7.7h2.34a.7.7,0,0,0,.7-.7v-2.34A.68.68,0,0,0,389.08,306.37Zm0,7.5a.68.68,0,0,0-.5-.21h-2.34a.7.7,0,0,0-.7.7v2.34a.7.7,0,0,0,.7.7h2.34a.7.7,0,0,0,.7-.7v-2.34A.68.68,0,0,0,389.08,313.87Zm7.5-7.5a.68.68,0,0,0-.5-.21h-2.34a.7.7,0,0,0-.7.7v2.34a.7.7,0,0,0,.7.7h2.34a.7.7,0,0,0,.7-.7v-2.34A.68.68,0,0,0,396.58,306.37Zm0,7.5a.68.68,0,0,0-.5-.21h-2.34a.7.7,0,0,0-.7.7v2.34a.7.7,0,0,0,.7.7h2.34a.7.7,0,0,0,.7-.7v-2.34A.68.68,0,0,0,396.58,313.87Zm7.5-7.5a.68.68,0,0,0-.5-.21h-2.34a.7.7,0,0,0-.7.7v2.34a.7.7,0,0,0,.7.7h2.34a.7.7,0,0,0,.7-.7v-2.34A.68.68,0,0,0,404.08,306.37Zm0,7.5a.68.68,0,0,0-.5-.21h-2.34a.7.7,0,0,0-.7.7v2.34a.7.7,0,0,0,.7.7h2.34a.7.7,0,0,0,.7-.7v-2.34A.68.68,0,0,0,404.08,313.87Z" transform="translate(-362.14 -273.09)" fill="#136735"/><path d="M388.58,306.16h-2.34a.7.7,0,0,0-.7.7v2.34a.7.7,0,0,0,.7.7h2.34a.7.7,0,0,0,.7-.7v-2.34a.7.7,0,0,0-.7-.7Z" transform="translate(-362.14 -273.09)" fill="#eeece7"/><path d="M396.08,306.16h-2.34a.7.7,0,0,0-.7.7v2.34a.7.7,0,0,0,.7.7h2.34a.7.7,0,0,0,.7-.7v-2.34a.7.7,0,0,0-.7-.7Z" transform="translate(-362.14 -273.09)" fill="#eeece7"/><path d="M396.08,313.66h-2.34a.7.7,0,0,0-.7.7v2.34a.7.7,0,0,0,.7.7h2.34a.7.7,0,0,0,.7-.7v-2.34a.7.7,0,0,0-.7-.7Z" transform="translate(-362.14 -273.09)" fill="#eeece7"/><path d="M395.14,273.09a33,33,0,1,0,33,33A33,33,0,0,0,395.14,273.09ZM408,318.35a2.8,2.8,0,0,1-2.81,2.81H384.59a2.8,2.8,0,0,1-2.81-2.81V303.12a.7.7,0,0,1,.7-.7h24.84a.7.7,0,0,1,.7.7Zm0-18.52a.7.7,0,0,1-.7.7H382.48a.7.7,0,0,1-.7-.7v-2.11a2.8,2.8,0,0,1,2.81-2.81h2.81v-3a.7.7,0,0,1,.7-.7h2.34a.7.7,0,0,1,.7.7v3h7.5v-3a.7.7,0,0,1,.7-.7h2.34a.7.7,0,0,1,.7.7v3h2.81a2.8,2.8,0,0,1,2.81,2.81Z" transform="translate(-362.14 -273.09)" fill="#eeece7"/><path d="M388.58,313.66h-2.34a.7.7,0,0,0-.7.7v2.34a.7.7,0,0,0,.7.7h2.34a.7.7,0,0,0,.7-.7v-2.34a.7.7,0,0,0-.7-.7Z" transform="translate(-362.14 -273.09)" fill="#eeece7"/><path d="M403.58,306.16h-2.34a.7.7,0,0,0-.7.7v2.34a.7.7,0,0,0,.7.7h2.34a.7.7,0,0,0,.7-.7v-2.34a.7.7,0,0,0-.7-.7Z" transform="translate(-362.14 -273.09)" fill="#eeece7"/><path d="M403.58,313.66h-2.34a.7.7,0,0,0-.7.7v2.34a.7.7,0,0,0,.7.7h2.34a.7.7,0,0,0,.7-.7v-2.34a.7.7,0,0,0-.7-.7Z" transform="translate(-362.14 -273.09)" fill="#eeece7"/><path d="M382.48,300.54a.7.7,0,0,1-.7-.7v-2.11a2.8,2.8,0,0,1,2.81-2.81h2.81v-3a.7.7,0,0,1,.7-.7h2.34a.7.7,0,0,1,.7.7v3h7.5v-3a.7.7,0,0,1,.7-.7h2.34a.7.7,0,0,1,.7.7v3h2.81a2.8,2.8,0,0,1,2.81,2.81v2.11a.7.7,0,0,1-.7.7Z" transform="translate(-362.14 -273.09)" fill="#136735"/></svg>