<svg id="Layer_1" data-name="Layer 1" xmlns="http://www.w3.org/2000/svg" xmlns:xlink="http://www.w3.org/1999/xlink" viewBox="0 0 175.32 266.47"><defs><mask id="mask" x="-0.49" y="0" width="175.32" height="266.47" maskUnits="userSpaceOnUse"><g transform="translate(-507.25 -378.64)"><circle cx="594.42" cy="534.95" r="87.66" fill="#fff"/></g></mask></defs><title>tree-stump-height-icon</title><circle cx="87.66" cy="156.31" r="87.66" fill="#d6d2c1"/><g mask="url(#mask)"><path d="M653,498.23a8.21,8.21,0,0,1,2.21,5.52A7.12,7.12,0,0,1,653,509a7.3,7.3,0,0,1-5.36,2.21H612.56c0,5.25,1.05,33.15,3.15,36.51a30.18,30.18,0,0,0,7.57,8.51,4.41,4.41,0,0,1,1.58,5.52,4.69,4.69,0,0,1-4.73,3.31H568.76a4.69,4.69,0,0,1-4.73-3.31,4.41,4.41,0,0,1,1.58-5.52,34,34,0,0,0,8.2-9.3c1.68-3,2.52-30.68,2.52-35.73H541.68a7.3,7.3,0,0,1-5.36-2.21,7.12,7.12,0,0,1-2.21-5.2,8.21,8.21,0,0,1,2.21-5.52l26.17-27.43H551.77a7.3,7.3,0,0,1-5.36-2.21,7.24,7.24,0,0,1,0-10.4l25.85-27.75h-10.4a7.3,7.3,0,0,1-5.36-2.21,7.12,7.12,0,0,1-2.21-5.2,7.74,7.74,0,0,1,1.89-5.2L589,382.52a7.65,7.65,0,0,1,11.35,0l32.79,35.31A7.74,7.74,0,0,1,635,423a7.12,7.12,0,0,1-2.21,5.2,7.3,7.3,0,0,1-5.36,2.21H617l25.85,27.75a7.24,7.24,0,0,1,0,10.4,7.3,7.3,0,0,1-5.36,2.21H626.81Z" transform="translate(-507.25 -378.64)" fill="#0f662b" stroke="#d6d2c1" stroke-miterlimit="10" stroke-width="2.72"/><rect x="43.92" y="146.82" width="92.75" height="49.71" fill="#d6d2c1"/><path d="M612.92,544c.47,10.06,1.4,23.11,2.8,25.34a30.18,30.18,0,0,0,7.57,8.51,4.41,4.41,0,0,1,1.58,5.52,4.69,4.69,0,0,1-4.73,3.31H568.76A4.69,4.69,0,0,1,564,583.4a4.41,4.41,0,0,1,1.58-5.52,34,34,0,0,0,8.2-9.3c1.11-2,1.85-14.66,2.23-24.51Z" transform="translate(-507.25 -378.64)" fill="#0f662b" stroke="#d6d2c1" stroke-miterlimit="10" stroke-width="2.72"/><rect x="591.9" y="588.5" width="98.81" height="13.4" transform="translate(729.25 -424.74) rotate(90)" fill="#fff" stroke="#0f662b" stroke-miterlimit="10" stroke-width="1.01"/><line x1="127.35" y1="176.57" x2="134.02" y2="176.57" fill="#fff" stroke="#0f662b" stroke-miterlimit="10" stroke-width="1.01"/><line x1="127.35" y1="185.98" x2="134.02" y2="185.98" fill="#fff" stroke="#0f662b" stroke-miterlimit="10" stroke-width="1.01"/><line x1="127.35" y1="195.39" x2="134.02" y2="195.39" fill="#fff" stroke="#0f662b" stroke-miterlimit="10" stroke-width="1.01"/><line x1="127.35" y1="204.8" x2="134.02" y2="204.8" fill="#fff" stroke="#0f662b" stroke-miterlimit="10" stroke-width="1.01"/><line x1="127.35" y1="214.21" x2="134.02" y2="214.21" fill="#fff" stroke="#0f662b" stroke-miterlimit="10" stroke-width="1.01"/><line x1="127.35" y1="172.03" x2="134.02" y2="172.03" fill="#fff" stroke="#0f662b" stroke-miterlimit="10" stroke-width="1.01"/><line x1="127.35" y1="181.44" x2="134.02" y2="181.44" fill="#fff" stroke="#0f662b" stroke-miterlimit="10" stroke-width="1.01"/><line x1="127.35" y1="190.86" x2="134.02" y2="190.86" fill="#fff" stroke="#0f662b" stroke-miterlimit="10" stroke-width="1.01"/><line x1="127.35" y1="200.27" x2="134.02" y2="200.27" fill="#fff" stroke="#0f662b" stroke-miterlimit="10" stroke-width="1.01"/><line x1="127.35" y1="209.68" x2="134.02" y2="209.68" fill="#fff" stroke="#0f662b" stroke-miterlimit="10" stroke-width="1.01"/><line x1="127.35" y1="223.76" x2="134.02" y2="223.76" fill="#fff" stroke="#0f662b" stroke-miterlimit="10" stroke-width="1.01"/><line x1="127.35" y1="233.17" x2="134.02" y2="233.17" fill="#fff" stroke="#0f662b" stroke-miterlimit="10" stroke-width="1.01"/><line x1="127.35" y1="242.58" x2="134.02" y2="242.58" fill="#fff" stroke="#0f662b" stroke-miterlimit="10" stroke-width="1.01"/><line x1="127.35" y1="251.99" x2="134.02" y2="251.99" fill="#fff" stroke="#0f662b" stroke-miterlimit="10" stroke-width="1.01"/><line x1="127.35" y1="219.22" x2="134.02" y2="219.22" fill="#fff" stroke="#0f662b" stroke-miterlimit="10" stroke-width="1.01"/><line x1="127.35" y1="228.63" x2="134.02" y2="228.63" fill="#fff" stroke="#0f662b" stroke-miterlimit="10" stroke-width="1.01"/><line x1="127.35" y1="238.04" x2="134.02" y2="238.04" fill="#fff" stroke="#0f662b" stroke-miterlimit="10" stroke-width="1.01"/><line x1="127.35" y1="247.45" x2="134.02" y2="247.45" fill="#fff" stroke="#0f662b" stroke-miterlimit="10" stroke-width="1.01"/></g></svg>