<svg id="Layer_1" data-name="Layer 1" xmlns="http://www.w3.org/2000/svg" viewBox="0 0 125 125"><title>winter-warm-icon</title><circle cx="62.5" cy="62.5" r="62.5" fill="#d6d2c1"/><path d="M472.8,334.2c.5-.3,10.9,3.2,11.3,3.5l11.7-1.2h7.5c.5-.3,5.7,1,6.2,1.3l8.8-1.5,4.7-3.8c.5-.3,10.8,2.2,11.3,2.5l-1.2-5.1c-4.6-15.6-16.1-26.7-29.7-26.7s-24.6,10.6-29.4,25.6Z" transform="translate(-439.7 -267.7)" fill="#fff"/><path d="M492.2,302.7a1.7,1.7,0,0,1-.3-3.4l9.9-2a1.7,1.7,0,1,1,.7,3.4l-9.9,2Z" transform="translate(-439.7 -267.7)" fill="#0f662b"/><path d="M495,304.4a1.7,1.7,0,0,1-.3-3.4l11.6-2a1.7,1.7,0,1,1,.6,3.4l-11.6,2Z" transform="translate(-439.7 -267.7)" fill="#0f662b"/><path d="M493.2,307a1.7,1.7,0,0,1-.3-3.4l11.6-2a1.7,1.7,0,1,1,.6,3.4l-11.6,2Z" transform="translate(-439.7 -267.7)" fill="#0f662b"/><path d="M503.7,299.7a1.7,1.7,0,0,1-1.4-.8l-6.5-9.5a1.7,1.7,0,0,1,2.9-2l6.5,9.5a1.7,1.7,0,0,1-1.4,2.7Z" transform="translate(-439.7 -267.7)" fill="#0f662b"/><path d="M501.3,302.3a1.7,1.7,0,0,1-1.2-.5l-8.3-8.3a1.7,1.7,0,0,1,2.5-2.5l8.3,8.3a1.7,1.7,0,0,1-1.2,3Z" transform="translate(-439.7 -267.7)" fill="#0f662b"/><path d="M503.8,301.4a1.7,1.7,0,0,1-1.2-.5l-8.3-8.3a1.7,1.7,0,0,1,2.5-2.5l8.3,8.3a1.7,1.7,0,0,1-1.2,3Z" transform="translate(-439.7 -267.7)" fill="#0f662b"/><path d="M503.8,300.6h-.4l-11.5-2.4a1.7,1.7,0,1,1,.7-3.4l11.5,2.4a1.7,1.7,0,0,1-.4,3.4Z" transform="translate(-439.7 -267.7)" fill="#0f662b"/><path d="M504.7,302.4h-.4l-11.5-2.4a1.7,1.7,0,1,1,.7-3.4l11.5,2.4a1.7,1.7,0,0,1-.4,3.4Z" transform="translate(-439.7 -267.7)" fill="#0f662b"/><path d="M504.5,298.7h-.4l-11.5-2.4a1.7,1.7,0,1,1,.7-3.4l11.5,2.4a1.7,1.7,0,0,1-.4,3.4Z" transform="translate(-439.7 -267.7)" fill="#0f662b"/><path d="M502.1,301.7h-.1a1.7,1.7,0,0,1-1.6-1.9l.9-12.9a1.7,1.7,0,0,1,3.5.2l-.9,12.9A1.7,1.7,0,0,1,502.1,301.7Z" transform="translate(-439.7 -267.7)" fill="#0f662b"/><path d="M502.7,301.1a1.7,1.7,0,0,1-1.7-1.4l-2.1-11.3a1.7,1.7,0,0,1,3.4-.6l2.1,11.3a1.7,1.7,0,0,1-1.4,2Z" transform="translate(-439.7 -267.7)" fill="#0f662b"/><path d="M512.5,302.7h-.3l-9.9-2a1.7,1.7,0,1,1,.7-3.4l9.9,2a1.7,1.7,0,0,1-.3,3.4Z" transform="translate(-439.7 -267.7)" fill="#0f662b"/><path d="M509.7,304.4h-.3l-11.6-2a1.7,1.7,0,1,1,.6-3.4l11.6,2a1.7,1.7,0,0,1-.3,3.4Z" transform="translate(-439.7 -267.7)" fill="#0f662b"/><path d="M511.4,307h-.3l-11.6-2a1.7,1.7,0,1,1,.6-3.4l11.6,2a1.7,1.7,0,0,1-.3,3.4Z" transform="translate(-439.7 -267.7)" fill="#0f662b"/><path d="M500.9,299.7a1.7,1.7,0,0,1-1.4-2.7l6.5-9.5a1.7,1.7,0,0,1,2.9,2l-6.5,9.5A1.7,1.7,0,0,1,500.9,299.7Z" transform="translate(-439.7 -267.7)" fill="#0f662b"/><path d="M503.3,302.3a1.7,1.7,0,0,1-1.2-3l8.3-8.3a1.7,1.7,0,0,1,2.5,2.5l-8.3,8.3A1.7,1.7,0,0,1,503.3,302.3Z" transform="translate(-439.7 -267.7)" fill="#0f662b"/><path d="M500.9,301.4a1.7,1.7,0,0,1-1.2-3l8.3-8.3a1.7,1.7,0,0,1,2.5,2.5l-8.3,8.3A1.7,1.7,0,0,1,500.9,301.4Z" transform="translate(-439.7 -267.7)" fill="#0f662b"/><path d="M500.9,300.6a1.7,1.7,0,0,1-.4-3.4l11.5-2.4a1.7,1.7,0,1,1,.7,3.4l-11.5,2.4Z" transform="translate(-439.7 -267.7)" fill="#0f662b"/><path d="M500,302.4a1.7,1.7,0,0,1-.4-3.4l11.5-2.4a1.7,1.7,0,1,1,.7,3.4l-11.5,2.4Z" transform="translate(-439.7 -267.7)" fill="#0f662b"/><path d="M500.1,298.7a1.7,1.7,0,0,1-.4-3.4l11.5-2.4a1.7,1.7,0,1,1,.7,3.4l-11.5,2.4Z" transform="translate(-439.7 -267.7)" fill="#0f662b"/><path d="M502.6,301.7a1.7,1.7,0,0,1-1.7-1.6l-.9-12.9a1.7,1.7,0,0,1,3.5-.2l.9,12.9a1.7,1.7,0,0,1-1.6,1.9Z" transform="translate(-439.7 -267.7)" fill="#0f662b"/><path d="M501.9,301.1h-.3a1.7,1.7,0,0,1-1.4-2l2.1-11.3a1.7,1.7,0,1,1,3.4.6l-2.1,11.3A1.7,1.7,0,0,1,501.9,301.1Z" transform="translate(-439.7 -267.7)" fill="#0f662b"/><path d="M523.1,327.2l-8.5,6.1a1.4,1.4,0,0,1-1.6.1l-9.9-6.2-9.1,6.1a1.4,1.4,0,0,1-1.6,0l-10-6.2-9.5,5.7a52.8,52.8,0,0,0-1.2,7.5h63.2a53,53,0,0,0-.9-6.6Z" transform="translate(-439.7 -267.7)" fill="#0f662b"/><path d="M481.8,324.2a1.5,1.5,0,0,1,1.5,0l9.9,6.2,9.1-6.1a1.4,1.4,0,0,1,1.6,0l9.9,6.1,8.5-6.1a1.4,1.4,0,0,1,1.6-.1l9.3,5.7c-4.6-15.6-16.1-26.7-29.7-26.7s-24.6,10.6-29.4,25.6Z" transform="translate(-439.7 -267.7)" fill="#0f662b"/><rect x="28.1" y="75.6" width="70.2" height="17.09" rx="3.8" ry="3.8" fill="#0f662b"/></svg>