<svg id="Layer_1" data-name="Layer 1" xmlns="http://www.w3.org/2000/svg" viewBox="0 0 66 66"><title>bullet-points-icon</title><circle cx="33" cy="33" r="33" fill="#0f662b"/><g style="isolation:isolate"><path d="M18.06,26.22a.94.94,0,0,1-1-1V21.33a.94.94,0,0,1,1-1H22a.94.94,0,0,1,1,1v3.92a.94.94,0,0,1-1,1Zm0,9.79a.94.94,0,0,1-1-1V31.12a.94.94,0,0,1,1-1H22a.94.94,0,0,1,1,1V35a.94.94,0,0,1-1,1Zm0,9.79a.94.94,0,0,1-1-1V40.91a.94.94,0,0,1,1-1H22a.94.94,0,0,1,1,1v3.92a.94.94,0,0,1-1,1Zm6.85-21.29a.94.94,0,0,0,1,1H47.42a.94.94,0,0,0,1-1V22.06a.94.94,0,0,0-1-1H25.89a.94.94,0,0,0-1,1Zm1,10.77a.94.94,0,0,1-1-1V31.85a.94.94,0,0,1,1-1H47.42a.94.94,0,0,1,1,1V34.3a.94.94,0,0,1-1,1Zm0,9.79a.94.94,0,0,1-1-1V41.64a.94.94,0,0,1,1-1H47.42a.94.94,0,0,1,1,1v2.45a.94.94,0,0,1-1,1Z" fill="#eeece6"/></g></svg>