<svg id="Layer_1" data-name="Layer 1" xmlns="http://www.w3.org/2000/svg" viewBox="0 0 21.44 21.47"><defs><style>.cls-1{fill:#eeece5;}.cls-2{fill:#212121;}.cls-3{fill:#0f662b;}</style></defs><title>current-step-icon</title><circle class="cls-1" cx="10.7" cy="10.74" r="10.24"/><path class="cls-2" d="M640.84,523v-1c.32,0,.64,0,.95-.05l.1,1Q641.37,523,640.84,523Zm-2.09-.18q-.52-.1-1-.25l.28-1q.45.13.92.22Zm5.18-.29-.3-1q.46-.14.89-.33l.39.92C644.6,522.28,644.27,522.4,643.93,522.51Zm-8.14-.73q-.47-.24-.9-.53l.55-.84c.26.17.54.33.82.48Zm11-.63-.56-.83c.26-.18.52-.37.76-.57l.64.77A10.15,10.15,0,0,1,646.76,521.15Zm-13.51-1.21q-.37-.37-.71-.77l.76-.64q.31.36.65.7Zm15.82-.9-.77-.63a9.4,9.4,0,0,0,.56-.76l.83.55Q649.4,518.63,649.07,519Zm-17.72-1.59q-.25-.46-.46-.94l.92-.4q.19.44.42.85Zm19.33-1.1-.93-.38c.12-.29.23-.59.32-.9l1,.29Q650.88,515.86,650.68,516.34Zm-20.43-1.83c-.07-.34-.13-.68-.17-1l1-.11q.05.47.15.94Zm21.18-1.21-1-.1c0-.31,0-.63,0-.95h1C651.48,512.61,651.47,513,651.43,513.3Zm-1-1.37a9.14,9.14,0,0,0-.08-.95l1-.13q.07.52.08,1ZM631,511.46l-1-.08q0-.53.13-1l1,.18Q631.08,511,631,511.46ZM650,509.13q-.15-.45-.35-.88l.91-.41a10.49,10.49,0,0,1,.38,1Zm-18.29-.44-.93-.37c.13-.33.27-.65.43-1l.89.46Q631.86,508.25,631.68,508.69Zm17-2.09c-.18-.26-.38-.51-.59-.75l.75-.66q.34.39.65.82Zm-15.58-.38-.79-.62q.32-.41.69-.79l.72.69Q633.39,505.86,633.1,506.23Zm13.61-1.67q-.37-.29-.78-.55l.53-.85c.3.19.58.39.86.6Zm-11.54-.28-.57-.82c.29-.2.58-.39.89-.56l.49.87C635.69,503.92,635.43,504.09,635.17,504.28Zm9.07-1.12q-.44-.17-.9-.3l.27-1q.51.14,1,.33Zm-6.52-.16-.31-1q.5-.16,1-.28l.22,1A9.45,9.45,0,0,0,637.71,503Zm3.75-.46-.71,0h-.24l0-1h.26l.78,0Z" transform="translate(-630.05 -501.52)"/><circle class="cls-3" cx="10.7" cy="10.74" r="7.31"/></svg>