<svg id="cutting-time-icon" data-name="cutting-time-icon" xmlns="http://www.w3.org/2000/svg" viewBox="0 0 66 66"><title>Untitled-3</title><circle cx="33" cy="33" r="33" fill="#eeece7"/><path d="M396.53,291.93a14.09,14.09,0,0,1,7.27,2,14.68,14.68,0,0,1,5.3,5.3,14.43,14.43,0,0,1,0,14.53,14.68,14.68,0,0,1-5.3,5.3,14.43,14.43,0,0,1-14.53,0,14.68,14.68,0,0,1-5.3-5.3,14.43,14.43,0,0,1,0-14.53,14.68,14.68,0,0,1,5.3-5.3A14.09,14.09,0,0,1,396.53,291.93Zm3.34,20.51a.63.63,0,0,0,.53.12.75.75,0,0,0,.47-.29l1.64-2.23a.73.73,0,0,0,.15-.53.64.64,0,0,0-.26-.47l-3.75-2.7v-8.09a.7.7,0,0,0-.7-.7h-2.81a.7.7,0,0,0-.7.7v9.84a.72.72,0,0,0,.29.59Z" transform="translate(-362.99 -273)" fill="#136735"/></svg>