<svg id="Layer_1" data-name="Layer 1" xmlns="http://www.w3.org/2000/svg" viewBox="0 0 102.45 11.97"><defs><style>.cls-1{fill:#d6d2c1;}</style></defs><title>dark-tan-arrow</title><path class="cls-1" d="M694,539.78h-2v-2h2Zm-5,0h-2v-2h2Zm-5,0h-2v-2h2Zm-5,0h-2v-2h2Zm-5,0h-2v-2h2Zm-5,0h-2v-2h2Zm-5,0h-2v-2h2Zm-5,0h-2v-2h2Zm-5,0h-2v-2h2Zm-5,0h-2v-2h2Zm-5,0h-2v-2h2Zm-5,0h-2v-2h2Zm-5,0h-2v-2h2Zm-5,0h-2v-2h2Zm-5,0h-2v-2h2Zm-5,0h-2v-2h2Zm-5,0h-2v-2h2Zm-5,0h-2v-2h2Zm-5,0h-2v-2h2Z" transform="translate(-601.98 -532.8)"/><polygon class="cls-1" points="92.09 11.97 102.45 5.98 92.09 0 92.09 11.97"/></svg>