<svg xmlns="http://www.w3.org/2000/svg" viewBox="0 0 20.14 20.14"><defs><style>.cls-1{fill:#cd2026;}</style></defs><title>Asset 14</title><g id="Layer_2" data-name="Layer 2"><g id="Option_1_Desktop" data-name="Option 1 Desktop"><path class="cls-1" d="M18.79,5a10,10,0,0,0-3.67-3.67A9.85,9.85,0,0,0,10.07,0,9.85,9.85,0,0,0,5,1.35,10,10,0,0,0,1.35,5,9.85,9.85,0,0,0,0,10.07a9.85,9.85,0,0,0,1.35,5.06A10,10,0,0,0,5,18.79a9.85,9.85,0,0,0,5.06,1.35,9.85,9.85,0,0,0,5.06-1.35,10,10,0,0,0,3.67-3.67,9.85,9.85,0,0,0,1.35-5.06A9.85,9.85,0,0,0,18.79,5Zm-7,11.34a.43.43,0,0,1-.12.31.38.38,0,0,1-.29.12H8.83a.45.45,0,0,1-.43-.43V13.86a.45.45,0,0,1,.43-.43h2.52a.38.38,0,0,1,.29.12.43.43,0,0,1,.12.31Zm0-4.51a.33.33,0,0,1-.14.23.48.48,0,0,1-.31.1H8.85a.51.51,0,0,1-.31-.1.28.28,0,0,1-.13-.23L8.18,3.7a.26.26,0,0,1,.13-.24.49.49,0,0,1,.31-.1h2.89a.49.49,0,0,1,.31.1A.26.26,0,0,1,12,3.7Z"/></g></g></svg>