<svg id="Layer_1" data-name="Layer 1" xmlns="http://www.w3.org/2000/svg" xmlns:xlink="http://www.w3.org/1999/xlink" viewBox="0 0 125 125"><defs><style>.cls-1,.cls-3{fill:#fff;}.cls-2{mask:url(#mask);}.cls-3{stroke:#000;stroke-width:3.59px;}.cls-3,.cls-6,.cls-8{stroke-miterlimit:10;}.cls-4{fill:#d6d2c1;}.cls-5{mask:url(#mask-2);}.cls-6{fill:#0f662b;stroke:#d6d2c1;stroke-width:3.59px;}.cls-7{mask:url(#mask-3);}.cls-8{fill:none;stroke:#fff;stroke-width:2px;}</style><mask id="mask" x="545.51" y="419.29" width="158.05" height="158.05" maskUnits="userSpaceOnUse"><circle class="cls-1" cx="624.53" cy="498.32" r="79.02"/></mask><mask id="mask-2" x="-32.18" y="-30.45" width="158.05" height="158.05" maskUnits="userSpaceOnUse"><g transform="translate(-577.69 -449.74)"><circle class="cls-1" cx="624.53" cy="498.32" r="79.02"/></g></mask><mask id="mask-3" x="22.11" y="32.9" width="80.15" height="63.16" maskUnits="userSpaceOnUse"><g transform="translate(-577.69 -449.74)"><g class="cls-2"><path class="cls-3" d="M620.34,484.85a3,3,0,0,1,3.12.13,3,3,0,0,1,1.53,2.66V532.3a3,3,0,0,1-.47,1.66,3.11,3.11,0,0,1-1.26,1.13l-17,8.51a3,3,0,0,1-3.12-.13,2.94,2.94,0,0,1-1.53-2.66V496.15a3,3,0,0,1,.46-1.66,3.12,3.12,0,0,1,1.26-1.13Zm30.44,8.37a3.43,3.43,0,0,1,1.33,1.2,3.05,3.05,0,0,1,.53,1.73v44.66a3,3,0,0,1-1.46,2.66,3.14,3.14,0,0,1-3.06.27L629,535.22a3.43,3.43,0,0,1-1.33-1.2,3.05,3.05,0,0,1-.53-1.73V487.64a3,3,0,0,1,1.46-2.66,3.14,3.14,0,0,1,3.06-.27Zm27.38-5.58a2.94,2.94,0,0,0-1.53-2.66,3,3,0,0,0-3.12-.13l-17,8.51a3.11,3.11,0,0,0-1.26,1.13,3,3,0,0,0-.47,1.66v44.66a3,3,0,0,0,1.53,2.66,3,3,0,0,0,3.12.13l17-8.51A3.12,3.12,0,0,0,677.7,534a3,3,0,0,0,.46-1.66Z"/></g></g></mask></defs><title>map-icon</title><circle class="cls-4" cx="62.5" cy="62.5" r="62.5"/><g class="cls-5"><path class="cls-6" d="M620.34,484.85a3,3,0,0,1,3.12.13,2.94,2.94,0,0,1,1.53,2.66V532.3a3,3,0,0,1-.47,1.66,3.12,3.12,0,0,1-1.26,1.13l-17,8.51a3,3,0,0,1-3.12-.13,2.94,2.94,0,0,1-1.53-2.66V496.15a3,3,0,0,1,.47-1.66,3.12,3.12,0,0,1,1.26-1.13Zm30.44,8.37a3.42,3.42,0,0,1,1.33,1.2,3.05,3.05,0,0,1,.53,1.73v44.66a3,3,0,0,1-1.46,2.66,3.14,3.14,0,0,1-3.06.27L629,535.22a3.42,3.42,0,0,1-1.33-1.2,3.05,3.05,0,0,1-.53-1.73V487.64a3,3,0,0,1,1.46-2.66,3.14,3.14,0,0,1,3.06-.27Zm27.38-5.58a2.94,2.94,0,0,0-1.53-2.66,3,3,0,0,0-3.12-.13l-17,8.51a3.12,3.12,0,0,0-1.26,1.13,3,3,0,0,0-.47,1.66v44.66a2.94,2.94,0,0,0,1.53,2.66,3,3,0,0,0,3.12.13l17-8.51A3.12,3.12,0,0,0,677.7,534a3,3,0,0,0,.47-1.66Z" transform="translate(-577.69 -449.74)"/></g><circle class="cls-1" cx="36.25" cy="72.78" r="4.07"/><circle class="cls-1" cx="89.66" cy="62.48" r="4.07"/><g class="cls-7"><polyline class="cls-8" points="36.25 72.78 62.96 57.07 69.75 64.48 89.75 62.5"/></g></svg>