<svg xmlns="http://www.w3.org/2000/svg" viewBox="0 0 21.33 18.96">
  <defs>
    <style>
      .cls-1{fill:#e31c3d}
    </style>
  </defs>
  <g id="Layer_2" data-name="Layer 2">
    <path class="cls-1" d="M2.37 2.94v15.63A.41.41 0 0 1 2 19h-.82a.41.41 0 0 1-.39-.4V2.94a1.58 1.58 0 1 1 1.58 0zm19 8.85c0 .46-.28.63-.64.81a9.83 9.83 0 0 1-4.6 1.4c-2.27 0-3.36-1.73-6-1.73a12.85 12.85 0 0 0-5.73 1.8.81.81 0 0 1-.41.11.8.8 0 0 1-.79-.79V4.27a.81.81 0 0 1 .38-.68 9.28 9.28 0 0 1 1-.53 12.11 12.11 0 0 1 5.2-1.48A11.7 11.7 0 0 1 14.89 3a2.36 2.36 0 0 0 1.11.26c1.94 0 4-1.68 4.57-1.68a.8.8 0 0 1 .79.79z" id="Option_1_Mobile" data-name="Option 1 Mobile"/>
  </g>
</svg>
