<?xml version="1.0" encoding="utf-8"?>
<!-- Generator: Adobe Illustrator 21.0.1, SVG Export Plug-In . SVG Version: 6.00 Build 0)  -->
<svg version="1.1" id="Layer_1" xmlns="http://www.w3.org/2000/svg" xmlns:xlink="http://www.w3.org/1999/xlink" x="0px" y="0px"
	 viewBox="0 0 125 125" style="enable-background:new 0 0 125 125;" xml:space="preserve">
<metadata>
        <rdf:RDF
                xmlns:rdf = "http://www.w3.org/1999/02/22-rdf-syntax-ns#"
                xmlns:rdfs = "http://www.w3.org/2000/01/rdf-schema#"
                xmlns:dc = "http://purl.org/dc/elements/1.1/" >
            <rdf:Description about="tree-permit-icon"
                             dc:title="tree-permit-icon"
                             dc:description="tree permit"
                             dc:publisher="U.S. National Forest Service"
                             dc:date="2018-02-28"
                             dc:format="image/svg+xml"
                             dc:language="en" >
                <dc:creator>
                    <rdf:Bag>
                        <rdf:li>https://fontawesome.com/license</rdf:li>
                    </rdf:Bag>
                </dc:creator>
            </rdf:Description>
        </rdf:RDF>
    </metadata>
	<style type="text/css">
	.st0{fill:#EEECE6;}
	.st1{fill:#FFFFFF;}
	.st2{fill:#0F662B;}
</style>
<rect x="-3.2" y="-1.3" class="st0" width="131.1" height="126.5"/>
<title>permit-icon</title>
<rect x="6.1" y="41.5" class="st1" width="70.7" height="46"/>
<path class="st2" d="M82,86.4c0,4.2-3.4,7.6-7.6,7.6c0,0,0,0-0.1,0H8.3c-4.2,0-7.6-3.4-7.6-7.6c0,0,0,0,0-0.1V40.6
	C0.6,36.4,4,33,8.2,33c0,0,0,0,0.1,0h66.1c4.2,0,7.6,3.4,7.6,7.6c0,0,0,0,0,0.1L82,86.4z M74.4,45.7H8.3v39.7c0.1,0.5,0.5,0.9,1,1
	h64.1c0.5-0.1,0.9-0.5,1-1V45.7z M48.3,63.5c-1,0-1.9-0.8-1.9-1.9c0,0,0,0,0,0v-2.5c0-1,0.8-1.9,1.9-1.9c0,0,0,0,0,0h16.5
	c1,0,1.9,0.8,1.9,1.9c0,0,0,0,0,0v2.5c0,1-0.8,1.9-1.9,1.9c0,0,0,0,0,0H48.3z M66.7,70.5c0-1-0.8-1.9-1.9-1.9c0,0,0,0,0,0H48.3
	c-1,0-1.9,0.8-1.9,1.9c0,0,0,0,0,0v2.5c0,1,0.8,1.9,1.9,1.9c0,0,0,0,0,0h16.5c1,0,1.9-0.8,1.9-1.9c0,0,0,0,0,0V70.5z"/>
<path class="st2" d="M39.1,73.1c0.3,0.3,0.4,0.6,0.4,1c0,0.4-0.1,0.7-0.4,1c-0.3,0.3-0.6,0.4-1,0.4h-6.5c0,1,0.2,0.9,0.6,1.5
	c0.4,0.6,0.8,1.1,1.4,1.6c0.3,0.2,0.4,0.6,0.3,1c-0.1,0.4-0.5,0.6-0.9,0.6h-9.5c-0.4,0-0.8-0.2-0.9-0.6c-0.2-0.4,0-0.8,0.3-1
	c0.6-0.5,1.1-1.1,1.5-1.7c0.3-0.6,0.5-0.4,0.5-1.3h-6.4c-0.4,0-0.7-0.1-1-0.4c-0.3-0.3-0.4-0.6-0.4-1c0-0.4,0.2-0.7,0.4-1l4.8-5h-2
	c-0.8,0-1.4-0.6-1.4-1.4c0-0.3,0.1-0.7,0.4-0.9l0,0l4.8-5.1h-1.9c-0.4,0-0.7-0.1-1-0.4c-0.3-0.3-0.4-0.6-0.4-1c0-0.4,0.1-0.7,0.3-1
	l6-6.5c0.5-0.6,1.4-0.6,2-0.1c0,0,0,0,0,0l0.1,0.1l6,6.5c0.2,0.3,0.4,0.6,0.3,1c0,0.4-0.1,0.7-0.4,1c-0.3,0.3-0.6,0.4-1,0.4h-1.9
	l4.8,5.1c0.5,0.5,0.5,1.4,0,1.9l0,0c-0.3,0.3-0.6,0.4-1,0.4h-2L39.1,73.1z"/>
</svg>
