<svg id="Layer_1" data-name="Layer 1" xmlns="http://www.w3.org/2000/svg"
     viewBox="0 0 176.75 176.75">
    <metadata>
        <rdf:RDF
                xmlns:rdf="http://www.w3.org/1999/02/22-rdf-syntax-ns#"
                xmlns:dc="http://purl.org/dc/elements/1.1/">
            <rdf:Description about="tree-height-icon"
                             dc:title="tree-height-icon"
                             dc:description="tree with ruler"
                             dc:publisher="U.S. National Forest Service"
                             dc:date="2018-02-28"
                             dc:format="image/svg+xml"
                             dc:language="en" >
                <dc:creator>
                    <rdf:Bag>
                        <rdf:li>https://fontawesome.com/license</rdf:li>
                    </rdf:Bag>
                </dc:creator>
            </rdf:Description>
        </rdf:RDF>
    </metadata>
    <defs>
        <mask id="mask" x="-0.49" y="5.43" width="176.75" height="176.75" maskUnits="userSpaceOnUse">
            <g transform="translate(-551.25 -424)">
                <circle cx="639.13" cy="517.81" r="88.37" fill="#fff"/>
            </g>
        </mask>
    </defs>
    <title>tree-height-icon</title>
    <circle cx="88.37" cy="88.37" r="88.37" fill="#d6d2c1"/>
    <g mask="url(#mask)">
        <path d="M684.1,541.51a6.09,6.09,0,0,1,1.64,4.09,5.28,5.28,0,0,1-1.64,3.86,5.41,5.41,0,0,1-4,1.64h-26c0,3.9.78,3.52,2.34,6a22.4,22.4,0,0,0,5.62,6.32,3.27,3.27,0,0,1,1.17,4.09,3.48,3.48,0,0,1-3.51,2.46H621.61a3.48,3.48,0,0,1-3.51-2.46,3.27,3.27,0,0,1,1.17-4.09,25.25,25.25,0,0,0,6.08-6.9c1.25-2.26,1.87-1.69,1.87-5.43H601.51a5.41,5.41,0,0,1-4-1.64,5.28,5.28,0,0,1-1.64-3.86,6.09,6.09,0,0,1,1.64-4.09L617,521.16h-8a5.41,5.41,0,0,1-4-1.64,5.37,5.37,0,0,1,0-7.72l19.19-20.59h-7.72a5.41,5.41,0,0,1-4-1.64,5.28,5.28,0,0,1-1.64-3.86,5.74,5.74,0,0,1,1.4-3.86l24.33-26.2a5.67,5.67,0,0,1,8.42,0l24.33,26.2a5.74,5.74,0,0,1,1.4,3.86,5.28,5.28,0,0,1-1.64,3.86,5.41,5.41,0,0,1-4,1.64h-7.72l19.19,20.59a5.37,5.37,0,0,1,0,7.72,5.41,5.41,0,0,1-4,1.64h-8Z"
              transform="translate(-551.25 -424)" fill="#0f662b" stroke="#d6d2c1" stroke-miterlimit="10"
              stroke-width="2"/>
        <rect x="621.99" y="505.31" width="113.89" height="13.51" transform="translate(-384.39 767) rotate(-90)"
              fill="#fff" stroke="#0f662b" stroke-miterlimit="10" stroke-width="1.01"/>
        <line x1="120.92" y1="135.53" x2="127.64" y2="135.53" fill="#fff" stroke="#0f662b" stroke-miterlimit="10"
              stroke-width="1.01"/>
        <line x1="120.92" y1="126.04" x2="127.64" y2="126.04" fill="#fff" stroke="#0f662b" stroke-miterlimit="10"
              stroke-width="1.01"/>
        <line x1="120.92" y1="116.55" x2="127.64" y2="116.55" fill="#fff" stroke="#0f662b" stroke-miterlimit="10"
              stroke-width="1.01"/>
        <line x1="120.92" y1="107.07" x2="127.64" y2="107.07" fill="#fff" stroke="#0f662b" stroke-miterlimit="10"
              stroke-width="1.01"/>
        <line x1="120.92" y1="97.58" x2="127.64" y2="97.58" fill="#fff" stroke="#0f662b" stroke-miterlimit="10"
              stroke-width="1.01"/>
        <line x1="120.92" y1="140.1" x2="127.64" y2="140.1" fill="#fff" stroke="#0f662b" stroke-miterlimit="10"
              stroke-width="1.01"/>
        <line x1="120.92" y1="130.61" x2="127.64" y2="130.61" fill="#fff" stroke="#0f662b" stroke-miterlimit="10"
              stroke-width="1.01"/>
        <line x1="120.92" y1="121.13" x2="127.64" y2="121.13" fill="#fff" stroke="#0f662b" stroke-miterlimit="10"
              stroke-width="1.01"/>
        <line x1="120.92" y1="111.64" x2="127.64" y2="111.64" fill="#fff" stroke="#0f662b" stroke-miterlimit="10"
              stroke-width="1.01"/>
        <line x1="120.92" y1="102.15" x2="127.64" y2="102.15" fill="#fff" stroke="#0f662b" stroke-miterlimit="10"
              stroke-width="1.01"/>
        <line x1="120.92" y1="87.96" x2="127.64" y2="87.96" fill="#fff" stroke="#0f662b" stroke-miterlimit="10"
              stroke-width="1.01"/>
        <line x1="120.92" y1="78.47" x2="127.64" y2="78.47" fill="#fff" stroke="#0f662b" stroke-miterlimit="10"
              stroke-width="1.01"/>
        <line x1="120.92" y1="68.98" x2="127.64" y2="68.98" fill="#fff" stroke="#0f662b" stroke-miterlimit="10"
              stroke-width="1.01"/>
        <line x1="120.92" y1="59.49" x2="127.64" y2="59.49" fill="#fff" stroke="#0f662b" stroke-miterlimit="10"
              stroke-width="1.01"/>
        <line x1="120.92" y1="92.53" x2="127.64" y2="92.53" fill="#fff" stroke="#0f662b" stroke-miterlimit="10"
              stroke-width="1.01"/>
        <line x1="120.92" y1="83.04" x2="127.64" y2="83.04" fill="#fff" stroke="#0f662b" stroke-miterlimit="10"
              stroke-width="1.01"/>
        <line x1="120.92" y1="73.55" x2="127.64" y2="73.55" fill="#fff" stroke="#0f662b" stroke-miterlimit="10"
              stroke-width="1.01"/>
        <line x1="120.92" y1="64.07" x2="127.64" y2="64.07" fill="#fff" stroke="#0f662b" stroke-miterlimit="10"
              stroke-width="1.01"/>
        <line x1="120.92" y1="54.98" x2="127.64" y2="54.98" fill="#fff" stroke="#0f662b" stroke-miterlimit="10"
              stroke-width="1.01"/>
        <line x1="120.92" y1="45.49" x2="127.64" y2="45.49" fill="#fff" stroke="#0f662b" stroke-miterlimit="10"
              stroke-width="1.01"/>
        <line x1="120.92" y1="36" x2="127.64" y2="36" fill="#fff" stroke="#0f662b" stroke-miterlimit="10"
              stroke-width="1.01"/>
        <line x1="120.92" y1="50.06" x2="127.64" y2="50.06" fill="#fff" stroke="#0f662b" stroke-miterlimit="10"
              stroke-width="1.01"/>
        <line x1="120.92" y1="40.57" x2="127.64" y2="40.57" fill="#fff" stroke="#0f662b" stroke-miterlimit="10"
              stroke-width="1.01"/>
    </g>
</svg>