<svg id="Layer_1" data-name="Layer 1" xmlns="http://www.w3.org/2000/svg" viewBox="0 0 94.32 94.32">
    <metadata>
        <rdf:RDF
                xmlns:rdf="http://www.w3.org/1999/02/22-rdf-syntax-ns#"
                xmlns:dc="http://purl.org/dc/elements/1.1/">
            <rdf:Description about="tree-top-icon"
                             dc:title="tree-top-icon"
                             dc:description="tree cut in middle with ban indicator"
                             dc:publisher="U.S. National Forest Service"
                             dc:date="2018-02-28"
                             dc:format="image/svg+xml"
                             dc:language="en" >
                <dc:creator>
                    <rdf:Bag>
                        <rdf:li>https://fontawesome.com/license</rdf:li>
                    </rdf:Bag>
                </dc:creator>
            </rdf:Description>
        </rdf:RDF>
    </metadata>
    <defs><mask id="mask" x="2.4" y="8.71" width="89.01" height="89.01" maskUnits="userSpaceOnUse"><g transform="translate(-813.33 -468.51)"><circle cx="860.24" cy="521.72" r="44.51" fill="#fff"/></g></mask><mask id="mask-2" x="2.8" y="-4.75" width="89.02" height="89.02" maskUnits="userSpaceOnUse"><g transform="translate(-813.33 -468.51)"><circle cx="860.65" cy="508.27" r="44.51" transform="translate(-137.27 564.94) rotate(-33.81)" fill="#fff"/></g></mask></defs><title>tree-top-icon</title><circle cx="47.16" cy="47.16" r="44.51" fill="#d6d2c1"/><circle cx="47.16" cy="47.16" r="44.51" fill="none" stroke="#cd2026" stroke-miterlimit="10" stroke-width="5.31"/><g mask="url(#mask)"><path d="M882.89,533.66a3.07,3.07,0,0,1,.82,2.06,2.66,2.66,0,0,1-.82,1.94,2.73,2.73,0,0,1-2,.82h-13.1c0,2,.39,1.77,1.18,3a11.28,11.28,0,0,0,2.83,3.18,1.65,1.65,0,0,1,.59,2.06,1.75,1.75,0,0,1-1.77,1.24h-19.2a1.75,1.75,0,0,1-1.77-1.24,1.65,1.65,0,0,1,.59-2.06,12.71,12.71,0,0,0,3.06-3.48c.63-1.14.94-.85.94-2.74H841.3a2.73,2.73,0,0,1-2-.82,2.66,2.66,0,0,1-.82-1.94,3.07,3.07,0,0,1,.82-2.06l9.78-10.25h-4a2.73,2.73,0,0,1-2-.82,2.7,2.7,0,0,1,0-3.89l3.34-3.59,28.91-.49,3.8,4.08a2.7,2.7,0,0,1,0,3.89,2.73,2.73,0,0,1-2,.82h-4Z" transform="translate(-813.33 -468.51)" fill="#0f662b" stroke="#d6d2c1" stroke-miterlimit="10" stroke-width="1.33"/></g><g mask="url(#mask-2)"><path d="M845.52,510.18l1.43-8.86-3.23,2.16a2.73,2.73,0,0,1-2.12.43,2.66,2.66,0,0,1-1.77-1.16,2.89,2.89,0,0,1-.49-2L842.17,483a2.86,2.86,0,0,1,3.52-2.36l17.53,4.14a2.89,2.89,0,0,1,1.67,1.22,2.66,2.66,0,0,1,.4,2.07,2.73,2.73,0,0,1-1.21,1.8L860.85,492l8.23,1.93Z" transform="translate(-813.33 -468.51)" fill="#0f662b" stroke="#d6d2c1" stroke-miterlimit="10" stroke-width="1.33"/></g><line x1="77.79" y1="16.37" x2="14.43" y2="79.72" fill="none" stroke="#cd2026" stroke-miterlimit="10" stroke-width="5.31"/></svg>