<svg id="Layer_1" data-name="Layer 1" xmlns="http://www.w3.org/2000/svg" viewBox="0 0 177.24 176">
    <metadata>
        <rdf:RDF
                xmlns:rdf="http://www.w3.org/1999/02/22-rdf-syntax-ns#"
                xmlns:dc="http://purl.org/dc/elements/1.1/">
            <rdf:Description about="tree-height-icon"
                             dc:title="tree-height-icon"
                             dc:description="tree with ruler"
                             dc:publisher="U.S. National Forest Service"
                             dc:date="2018-02-28"
                             dc:format="image/svg+xml"
                             dc:language="en" >
                <dc:creator>
                    <rdf:Bag>
                        <rdf:li>https://fontawesome.com/license</rdf:li>
                    </rdf:Bag>
                </dc:creator>
            </rdf:Description>
        </rdf:RDF>
    </metadata>
    <defs><mask id="mask" x="-0.49" y="0" width="177.74" height="176" maskUnits="userSpaceOnUse"><g transform="translate(-551.25 -424)"><circle cx="638.75" cy="512" r="88" fill="#fff"/></g></mask></defs><title>tree-diameter-icon</title><circle cx="88" cy="88" r="88" fill="#d6d2c1"/><g mask="url(#mask)"><path d="M683.53,535.61a6.06,6.06,0,0,1,1.63,4.08,5.26,5.26,0,0,1-1.63,3.84,5.39,5.39,0,0,1-4,1.63h-25.9c0,3.88.78,24.5,2.33,27a22.3,22.3,0,0,0,5.59,6.29,3.26,3.26,0,0,1,1.16,4.08,3.46,3.46,0,0,1-3.49,2.45h-38a3.46,3.46,0,0,1-3.49-2.45,3.26,3.26,0,0,1,1.16-4.08,25.14,25.14,0,0,0,6.06-6.87c1.24-2.25,1.86-22.67,1.86-26.4h-25.6a5.39,5.39,0,0,1-4-1.63,5.26,5.26,0,0,1-1.63-3.84,6.06,6.06,0,0,1,1.63-4.08l19.34-20.27h-7.92a5.39,5.39,0,0,1-4-1.63,5.35,5.35,0,0,1,0-7.69l19.1-20.5H616.2a5.39,5.39,0,0,1-4-1.63,5.26,5.26,0,0,1-1.63-3.84,5.72,5.72,0,0,1,1.4-3.84l24.23-26.09a5.65,5.65,0,0,1,8.39,0l24.23,26.09a5.72,5.72,0,0,1,1.4,3.84,5.26,5.26,0,0,1-1.63,3.84,5.39,5.39,0,0,1-4,1.63H657l19.1,20.5a5.35,5.35,0,0,1,0,7.69,5.39,5.39,0,0,1-4,1.63h-7.92Z" transform="translate(-551.25 -424)" fill="#0f662b" stroke="#d6d2c1" stroke-miterlimit="10" stroke-width="2"/><rect x="77.54" y="131.7" width="99.19" height="13.45" fill="#fff" stroke="#0f662b" stroke-miterlimit="10" stroke-width="1.01"/><line x1="86.99" y1="131.7" x2="86.99" y2="138.4" fill="#fff" stroke="#0f662b" stroke-miterlimit="10" stroke-width="1.01"/><line x1="96.44" y1="131.7" x2="96.44" y2="138.4" fill="#fff" stroke="#0f662b" stroke-miterlimit="10" stroke-width="1.01"/><line x1="105.88" y1="131.7" x2="105.88" y2="138.4" fill="#fff" stroke="#0f662b" stroke-miterlimit="10" stroke-width="1.01"/><line x1="115.33" y1="131.7" x2="115.33" y2="138.4" fill="#fff" stroke="#0f662b" stroke-miterlimit="10" stroke-width="1.01"/><line x1="124.78" y1="131.7" x2="124.78" y2="138.4" fill="#fff" stroke="#0f662b" stroke-miterlimit="10" stroke-width="1.01"/><line x1="82.44" y1="131.7" x2="82.44" y2="138.4" fill="#fff" stroke="#0f662b" stroke-miterlimit="10" stroke-width="1.01"/><line x1="91.89" y1="131.7" x2="91.89" y2="138.4" fill="#fff" stroke="#0f662b" stroke-miterlimit="10" stroke-width="1.01"/><line x1="101.33" y1="131.7" x2="101.33" y2="138.4" fill="#fff" stroke="#0f662b" stroke-miterlimit="10" stroke-width="1.01"/><line x1="110.78" y1="131.7" x2="110.78" y2="138.4" fill="#fff" stroke="#0f662b" stroke-miterlimit="10" stroke-width="1.01"/><line x1="120.23" y1="131.7" x2="120.23" y2="138.4" fill="#fff" stroke="#0f662b" stroke-miterlimit="10" stroke-width="1.01"/><line x1="134.36" y1="131.7" x2="134.36" y2="138.4" fill="#fff" stroke="#0f662b" stroke-miterlimit="10" stroke-width="1.01"/><line x1="143.81" y1="131.7" x2="143.81" y2="138.4" fill="#fff" stroke="#0f662b" stroke-miterlimit="10" stroke-width="1.01"/><line x1="153.26" y1="131.7" x2="153.26" y2="138.4" fill="#fff" stroke="#0f662b" stroke-miterlimit="10" stroke-width="1.01"/><line x1="162.7" y1="131.7" x2="162.7" y2="138.4" fill="#fff" stroke="#0f662b" stroke-miterlimit="10" stroke-width="1.01"/><line x1="129.81" y1="131.7" x2="129.81" y2="138.4" fill="#fff" stroke="#0f662b" stroke-miterlimit="10" stroke-width="1.01"/><line x1="139.26" y1="131.7" x2="139.26" y2="138.4" fill="#fff" stroke="#0f662b" stroke-miterlimit="10" stroke-width="1.01"/><line x1="148.71" y1="131.7" x2="148.71" y2="138.4" fill="#fff" stroke="#0f662b" stroke-miterlimit="10" stroke-width="1.01"/><line x1="158.15" y1="131.7" x2="158.15" y2="138.4" fill="#fff" stroke="#0f662b" stroke-miterlimit="10" stroke-width="1.01"/></g></svg>