<svg id="Layer_1" data-name="Layer 1" xmlns="http://www.w3.org/2000/svg" viewBox="0 0 175.32 175.32">
    <metadata>
        <rdf:RDF
                xmlns:rdf="http://www.w3.org/1999/02/22-rdf-syntax-ns#"
                xmlns:dc="http://purl.org/dc/elements/1.1/">
            <rdf:Description about="tree-stump-height-icon"
                             dc:title="tree-stump-height-icon"
                             dc:description="stump with ruler"
                             dc:publisher="U.S. National Forest Service"
                             dc:date="2018-02-28"
                             dc:format="image/svg+xml"
                             dc:language="en" >
                <dc:creator>
                    <rdf:Bag>
                        <rdf:li>https://fontawesome.com/license</rdf:li>
                    </rdf:Bag>
                </dc:creator>
            </rdf:Description>
        </rdf:RDF>
    </metadata>
    <defs><mask id="mask" x="0" y="0" width="175.32" height="175.32" maskUnits="userSpaceOnUse"><g transform="translate(-507.25 -447.29)"><circle cx="594.91" cy="534.95" r="87.66" fill="#fff"/></g></mask></defs><title>tree-stump-height-icon</title><circle cx="87.66" cy="87.66" r="87.66" fill="#d6d2c1"/><path d="M642.89,468.6a7.12,7.12,0,0,0,2.21-5.18,87.68,87.68,0,0,0-100.88-.32c0,.1,0,.2,0,.3a7.12,7.12,0,0,0,2.21,5.2,7.3,7.3,0,0,0,5.36,2.21h10.72l-26.17,27.43a8.21,8.21,0,0,0-2.21,5.52,7.12,7.12,0,0,0,2.21,5.2,7.3,7.3,0,0,0,5.36,2.21h34.65c0,5-.84,32.68-2.52,35.73a34,34,0,0,1-8.2,9.3,4.41,4.41,0,0,0-1.58,5.52,4.69,4.69,0,0,0,4.73,3.31h51.37a4.69,4.69,0,0,0,4.73-3.31,4.41,4.41,0,0,0-1.58-5.52,30.18,30.18,0,0,1-7.57-8.51c-2.1-3.36-3.15-31.26-3.15-36.51h35.05A7.3,7.3,0,0,0,653,509a7.12,7.12,0,0,0,2.21-5.2,8.21,8.21,0,0,0-2.21-5.52L626.81,470.8h10.72A7.3,7.3,0,0,0,642.89,468.6Z" transform="translate(-507.25 -447.29)" fill="#0f662b"/><rect x="43.92" y="78.17" width="92.75" height="49.71" fill="#d6d2c1"/><path d="M612.92,546c.47,10.06,1.4,23.11,2.8,25.34a30.18,30.18,0,0,0,7.57,8.51,4.41,4.41,0,0,1,1.58,5.52,4.69,4.69,0,0,1-4.73,3.31H568.76A4.69,4.69,0,0,1,564,585.4a4.41,4.41,0,0,1,1.58-5.52,34,34,0,0,0,8.2-9.3c1.11-2,1.85-14.66,2.23-24.51Z" transform="translate(-507.25 -447.29)" fill="#0f662b"/><g mask="url(#mask)"><rect x="605.95" y="574.45" width="70.7" height="13.4" transform="translate(715.2 -507.45) rotate(90)" fill="#fff" stroke="#0f662b" stroke-miterlimit="10" stroke-width="0.86"/><line x1="127.35" y1="107.92" x2="134.02" y2="107.92" fill="#fff" stroke="#0f662b" stroke-miterlimit="10" stroke-width="1.01"/><line x1="127.35" y1="117.33" x2="134.02" y2="117.33" fill="#fff" stroke="#0f662b" stroke-miterlimit="10" stroke-width="1.01"/><line x1="127.35" y1="126.74" x2="134.02" y2="126.74" fill="#fff" stroke="#0f662b" stroke-miterlimit="10" stroke-width="1.01"/><line x1="127.35" y1="136.15" x2="134.02" y2="136.15" fill="#fff" stroke="#0f662b" stroke-miterlimit="10" stroke-width="1.01"/><line x1="127.35" y1="145.56" x2="134.02" y2="145.56" fill="#fff" stroke="#0f662b" stroke-miterlimit="10" stroke-width="1.01"/><line x1="127.35" y1="103.38" x2="134.02" y2="103.38" fill="#fff" stroke="#0f662b" stroke-miterlimit="10" stroke-width="1.01"/><line x1="127.35" y1="112.79" x2="134.02" y2="112.79" fill="#fff" stroke="#0f662b" stroke-miterlimit="10" stroke-width="1.01"/><line x1="127.35" y1="122.2" x2="134.02" y2="122.2" fill="#fff" stroke="#0f662b" stroke-miterlimit="10" stroke-width="1.01"/><line x1="127.35" y1="131.61" x2="134.02" y2="131.61" fill="#fff" stroke="#0f662b" stroke-miterlimit="10" stroke-width="1.01"/><line x1="127.35" y1="141.03" x2="134.02" y2="141.03" fill="#fff" stroke="#0f662b" stroke-miterlimit="10" stroke-width="1.01"/><line x1="127.35" y1="155.11" x2="134.02" y2="155.11" fill="#fff" stroke="#0f662b" stroke-miterlimit="10" stroke-width="1.01"/><line x1="127.35" y1="164.52" x2="134.02" y2="164.52" fill="#fff" stroke="#0f662b" stroke-miterlimit="10" stroke-width="1.01"/><line x1="127.35" y1="150.57" x2="134.02" y2="150.57" fill="#fff" stroke="#0f662b" stroke-miterlimit="10" stroke-width="1.01"/><line x1="127.35" y1="159.98" x2="134.02" y2="159.98" fill="#fff" stroke="#0f662b" stroke-miterlimit="10" stroke-width="1.01"/></g></svg>