<svg xmlns="http://www.w3.org/2000/svg" width="100" height="110" viewBox="0 0 300 332.834" overflow="visible"><switch><g><g><g><path fill="#FFC425" d="M149.551 332.834h-.362l-2.525-4.507-2.706-3.788-2.887-3.249-3.066-2.888-3.247-2.343-3.428-1.988-3.609-1.619-3.607-1.263-3.968-1.086-3.969-.901-3.969-.723-4.15-.539-4.328-.544-4.331-.542-4.328-.539-4.512-.724-4.51-.719-4.328-.544-4.15-.719-3.787-.543-3.79-.539-3.426-.538-3.068-.543-3.066-.543-2.706-.362-2.525-.538-2.347-.362-1.984-.538-1.804-.363-1.624-.362-1.442-.538-1.084-.362-4.328-1.625-4.331-1.987-3.968-2.163-3.788-2.525-3.609-2.706-3.426-3.069-3.068-3.244-2.884-3.25-2.707-3.606-2.527-3.612-2.163-3.963-1.985-3.974-1.624-3.964-1.444-4.149-1.082-4.15-.721-4.331-.181-1.806-.179-1.62-.181-1.805v-5.775l.181-1.982.179-2.167.181-2.163.362-2.345.359-2.168.36-2.339.363-2.524.54-2.53.541-2.526.541-2.706 2.165-8.662 2.346-9.014 2.526-9.023 2.343-9.376 2.347-9.203 1.985-9.562 1.622-9.381 1.262-9.381.543-9.381v-9.2l-.903-9.2-1.803-8.841-2.887-8.837-3.969-8.478-5.412-8.3L0 66.928 46.543 0l13.35 4.69 13.528 3.969 13.891 3.247 13.891 2.526 13.89 1.984 13.893 1.262 13.709.541 13.707.181 13.536-.541 13.35-1.081 12.801-1.444 12.626-2.165 12.273-2.525 11.544-3.066 11.187-3.247L254.363.362 300 67.468l-7.037 7.938-5.226 8.118-4.15 8.3-2.711 8.656-1.806 8.841-.719 9.021.186 9.2.9 9.381 1.263 9.379 1.987 9.562 2.163 9.562 2.525 9.559 2.525 9.563 2.52 9.381 2.354 9.562 1.981 9.199.544 1.983.352 1.806.367 1.625.357 1.438.186 1.263.353 1.262.186 1.086.181 1.082.18.901v1.081l.177.905v1.082l.186 1.081v7.218l-.186 3.245-.357 3.068-.367 3.063-.714 3.073-.725 3.064-.9 2.887-1.086 2.887-1.077 2.888-1.449 2.886-1.438 2.702-1.625 2.707-1.801 2.706-1.987 2.706-1.987 2.524-2.163 2.53-1.987 2.164-2.167 1.8-2.158 1.988-2.163 1.624-2.354 1.8-2.52 1.445-2.526 1.624-2.525 1.262-2.706 1.263-2.892 1.263-2.882.905-3.069 1.076-3.063.725-3.249.725-3.249.718-3.426.533-9.563 1.812-8.838 1.443-8.298 1.081-7.58 1.087-6.847.901-6.499.9-5.775.901-5.412 1.085-5.049 1.439-4.507 1.625-4.151 1.987-3.968 2.344-3.425 3.068-3.431 3.607-3.247 4.149-2.885 5.051z"/><path fill="#006225" d="M180.039 294.952l2.343-.362 2.168-.361 2.163-.177 1.982-.372 1.805-.352 1.801-.182 1.807-.18 1.806-.362 1.624-.186 1.625-.177 1.8-.176 1.625-.181 1.801-.181 1.801-.362 1.81-.176 1.982-.362h.544l1.624-.182 1.977-.361 2.53-.358 2.887-.543 3.069-.544 3.421-.538 3.616-.543 3.601-.543 3.426-.719 3.435-.543 3.063-.538 2.888-.544 2.344-.543 1.805-.358 1.263-.361 4.15-1.807 3.968-2.162 3.788-2.345 3.431-2.524 3.059-2.888 2.891-3.068 2.526-3.063 2.343-3.43 1.983-3.426 1.624-3.616 1.449-3.603 1.262-3.787.719-3.606.543-3.793.358-3.787v-3.788l-.181-1.625-.177-1.982-.361-2.525-.549-3.069-.714-3.424-.724-3.969-1.086-4.331-1.077-4.869-1.086-5.232-1.44-5.774-1.443-6.313-1.629-6.675-1.802-7.037-1.8-7.756-1.987-7.937-2.163-8.66-1.448-5.412-.901-5.41-.714-5.594-.548-5.412-.177-5.412.177-5.412.362-5.41.724-5.413 1.077-5.412 1.263-5.231 1.81-5.232 1.982-5.231 2.168-5.234 2.701-5.05 3.068-4.869 3.431-4.872-34.276-49.97-10.824 3.968-11.368 3.247-11.906 2.707-12.45 2.165-12.987 1.625-13.164.9-13.35.541h-13.352l-13.349-.541-13.169-.9-12.99-1.444-12.628-1.625-12.085-2.344-11.546-2.525-11.004-2.887-10.103-3.247-34.636 50.33 1.262 1.444 1.263 1.803 1.443 2.345 1.625 2.706 1.622 2.887 1.625 3.247 1.622 3.609 1.625 3.969 1.443 4.147 1.263 4.331 1.262 4.509 1.082 4.691.722 4.871.541 5.051.362 5.05-.181 5.052-.181 2.166v1.982l-.179 1.805-.181 1.804-.181 1.624-.179 1.442-.181 1.624-.181 1.444-.181 1.622-.359 1.444-.363 1.803-.54 1.806-.36 1.984-.541 2.166-.543 2.525-.722 2.706-.9 3.968-1.084 3.788-.901 3.788-.902 3.968-.901 3.788-.903 3.787-.903 3.612-.9 3.788-.903 3.606-.722 3.607-.903 3.788-.9 3.611-.722 3.426-.903 3.611-.722 3.426-.721 3.425-.72 2.888-.543 2.886-.541 2.888-.541 2.706-.18 2.883-.36 2.887V238.848l.181 3.067.54 3.064.723 3.068.9 3.245 1.262 3.249 1.625 3.426 1.803 3.429 2.166 3.608.903 1.443 1.262 1.444 1.263 1.443 1.444 1.625 1.622 1.62 1.803 1.624 1.984 1.625 2.166 1.625 2.165 1.624 2.344 1.44 2.706 1.261 2.525 1.263 2.888 1.263 3.066.905 3.068.72 3.247.724 5.231.724 5.05.72 4.872.9 4.509.719 4.331.544 4.15.543 3.968.719 3.788.543 3.428.353 3.247.548 3.066.543 2.887.357 2.525.363 2.525.361 2.166.181 1.984.181 1.803.177 1.985.361 1.803.363 1.806.362 1.984.362 1.984.538 1.985.725 1.984.719 1.984.719 2.166 1.076 2.163 1.092 2.165 1.263 2.344 1.443 2.347 1.625 2.344 1.801 2.706 1.986 1.263-1.448 1.443-1.438 1.624-1.263 1.802-1.263 1.806-1.262 1.805-1.086 1.987-.901 2.163-.9 1.982-.9 2.167-.725 2.163-.725 2.163-.718 2.164-.543 2.163-.539 2.172-.363 2.164-.538z"/><path fill="#FFC425" d="M169.028 189.417h-.715l-1.086-.362-.905-.538-1.077-.538-1.081-.363-.725-.362-2.524-.362-.725-.538-.538-.906-1.444-2.883-.719-1.261-.725-.187-.176 1.448-.186 1.621-.357 1.262v1.444l-.181 1.625-.181 1.443v2.883l-.182 1.438v7.585l.182 1.625v3.064l.181 1.261v4.513l.181.9v.724l.181.72.176 1.081.362.725.543.719 13.351 6.131 1.261.544 1.078.543 1.09.353 1.078.547 1.8.725.725.538 1.806.9 1.261 1.263.177.724-.533.539h-.73l-1.443-.358h-.715l-.9-.181h-2.711l-.72.181h-.719l-.729.181h-1.443l-2.164-.543-.9-.181h-2.525l-1.081.181h-1.268l-1.263.181-.715.181-.9.181h-.905l-.719.177-1.806.361-.719.182h-.906l-.719.181-.901.181h-3.611l-1.262-.362-.903-.182-1.082-.176-.902-.362h-.901l-1.806-.362h-.9l-.903-.181h-5.772l-.722.181-1.081.181h-.903l-.903.181h-.9l-.903.177h-.722l-.722.185h-3.607l-.721-.185-.904-.177h-3.065l-.903.177-2.165.361-.722-.176-.179-.724.541-.724 1.444-.72 1.262-.543.722-.357 1.082-.362 1.262-.543 1.444-.72 1.984-.728 2.165-.896 2.707-1.082 3.246-1.263 3.607-1.443.722-.357.903-.362 1.262-.724 1.082-.725 1.805-1.438.72-1.444.181-.72v-24.536l.181-1.082v-1.267l.181-.719v-2.883l-.362-.724h-.722l-.541.539-.903 1.086-.54.539-.722.543-.541.543-.722.538-1.262.9-1.803.905-.542-.543.179-.724.363-.719-.903.181-.722.362-1.441 1.081-1.084 1.444-1.082 1.081-1.443.72-.903.186h-.901l-.362-.906-.541-.543-.722.543-.9.72-.903.543-.721.181-.541-.538-.722.357-.722.543-1.444.362h-.721l-.541-.543-.722-.362-.722.181-1.443.724-3.607.901-1.443-.363-.903-.18-.36-.901v-.719l.181-.724.359-.725 1.444-1.076-.54-.544-.363-.718-.178-.725v-.9l.178-.725.541-.9 1.265-1.263.719-.543 2.347-1.806-.903-.357-.178-.724 5.05-5.051.54-.718.541-.543.541-.72.903-1.087.721-1.081.541-1.081-.721-.362-.722.9-.722.362-.719.181h-.722l-.181-.72h-.722l-.541.539-1.263 1.076-.721.368h-.903l-.722-.368-.721-.533-.179-.905.359-.72.541-.543.722-.538.541-.541.543-.722.719-.722.544-.903.721-.721.541-.901.722-.902.359-.722.541-.722.541-.541.362-.721.541-.723.721-.54.541-.901.541-.543 1.084-1.443.541-.901.722-.903 1.622-2.165 1.084-1.082.181-.721-.722.54-1.444.722-.721.541-.903.543-1.082.541-1.084.722-1.984 1.262h-.719l-.181-.721.359-.723.182-.721v-1.444l.359-.722.543-.721.36-.722.541-.541.362-.722.541-.719-.363-.722.181-.722.722-.543.181-.719h-.721l-.723.359-.721.181-.903.179h-2.344l-.722-.179-.181-.721.722-.722 1.084-.722.9-.722.541-.54.903-.723.903-.902.9-.72.722-.902.903-.722.54-.541.541-.722.722-1.081.903-1.084.541-.541 1.081-1.444.544-.9.54-.724 1.444-1.803.722-1.082.359-.722.541-.722.362-.722-1.625 1.082-1.081.903-.903.722-.722.181-.9.181-.903-.181-.722-.363-.36-.721v-1.082l.179-.722 2.347-2.344-.362-.721.181-.722.54-.722.722-1.444.181-.721.36-.722.54-.722.723-.36.361-.721-.721.18-.722.36-.36-.721v-.723h-.721l-.544-.54.362-.722.182-.722 1.803-2.344.54-.721.363-.723.54-.721 1.082-2.166.541-.719.361-.903.723-1.262.54-1.084.36-.901.541-.722.362-.721.54-.903.722-1.082.36-.902.543-.723.36-1.441-.722-.181-1.081 1.082-.541.722-.903.541-.722.361-.722.182-.54-1.806.359-3.247-.54.541-.722.181-.36-.722.541-.722.362-.722.54-.721.723-.901.721-1.084.72-.722 1.624-2.162.541-.903.541-.722.722-1.444.54-.722 1.625-3.246.541-.901.722-1.444.541-.903.902-1.803.541-1.262.722-1.444.181-.722.36-.722.181-.721.359-.722.362-.9.36-.723.181-.721.362-.722.901.36 2.163 2.706.543 1.084.543.9.539 1.084.18.722.543 1.082.363.902.175.901.363.721.362.903.72 1.444.361.901.72 1.262.543 1.084.72 1.081.724.722.538.722 1.086 1.082.362.721-.724.543-2.162-.543-.73-.36-.719-.18-.176.903.362 1.081.357.722.719 1.803.548.903.539 1.263 1.444 2.524.718 1.444 1.807 3.247.543.722.719 1.803.357.722.362.903 1.086 1.444.539.54.538.722.548.541.353.903-.715.54-.9-.362-.724-.178-.725-.544-2.163-.54-.362.721.362.722.182.722.543.903.533.722.367.719 4.15 4.15 1.625 1.984-.187.722-.723.362-.896-.181-.905-.362-.725-.178-.715-.363.177.722.538.541.725.541.723.362.725.54.538.722.362.722-.724.36.177.722.367.721 1.076 1.444 1.63 2.706.723.903.539.901 1.077 1.443 2.711 2.706.362.722.176.722-.724.36-1.439-.36-.719-.362-.182.722v.721h-.723l-.72-.36-.905-.721-1.621-1.625-.543.541.725 1.084.72.903.543.9.723.903 1.078 1.803 1.085 1.444.715.722.548.721.715.901.548.722.72.903.718.721.906 1.082.719.903.901.54.724.36.724.544.9.359.901.541.181.722-.719.54-.725.181-.719-.181h-.719l-2.168-1.081.181 1.081v.722l-.724.362h-.906l-.719-.181-1.439-.722-.548-.54h-.715l-.18.721.18.722 2.164 2.885.538.903.544.722.361.9.544.903.533.722.729 1.081.534.722.728.903.539.541.724.903.9.721.901.541.724.541-.181.722h-1.444l-.723.181 1.086 1.799.719.907.543.543 2.159 3.245.728.905.539.901.538.718.363.72.361.905-.176.72h-.725l-1.085-.362-.72-.177-.901-.543-.905-.357-.719-.362-.719-.181.175.719.544.901.362.905.544.9.533 1.263.729 1.268 1.624 2.162.538.539.54.724 1.261 1.262.187.901v.9l-.543.725-.367.9-.353.725-.548.538v.723l.186.72.362.72-.362.723h-.724l-.724-.18-.72-.543-.543-.539-.543-.724-.358-.72v-.718l-.719-.182-.719.182-1.806.718-.719.182h-2.354l1.091 1.081.357.72-.719.543h-.729l-.895-.358-1.811-.905-.538-.543-.725-.357-.538-.72-.724-.543-.538-.905-.72-.72-.719.182h-.729l-.72.18-.719-.18-.544-.538h-.723l-.715.356-1.086-1.081v.725l.362.718.176.72zM112.027 109.683h-4.328l-.181.179h-.363l-.178.18h-.181l-.181.182-.179.181h-.181l-.181.178-.181.182h-.179v.18l-.181.179v72.881l-.181.543v.543l-.181.538-.178.539v.724l-.181.538-.182.549-.178.538-.181.538-.362.724-.179.538-.181.543-.722 1.625-.722 1.444-.902 1.438-.901 1.268-.903 1.262-1.081 1.263-1.084 1.081-1.263.901-1.081.9-1.263.725-1.443.724-1.444.719-1.444.544-1.622.361-1.444.539-1.803.181-4.331.357h-3.969l-3.787-.357-3.428-.905-2.887-1.076-2.704-1.45-2.528-1.8-2.163-1.806-1.805-1.982-1.622-2.168-1.263-2.163-1.084-2.343-.722-2.163-.541-1.988-.359-1.986-.181-1.983-.181-69.814V111.667l-.179-.181v-.181l-.181-.181v-.179h-.181v-.18h-.36v-.182H48.166v-7.215l21.108-.36.541.36v6.674l-2.166.723-.181.18h-.178v.179h-.181v.181h-.181V111.846l-.181 67.29.362 3.244.722 3.068 1.262 2.531 1.622 2.338 1.985 1.806 2.165 1.443 2.346 1.263 2.706.538 2.526.187 2.525-.187 2.525-.9 2.346-1.081 1.985-1.806 1.803-2.339 1.444-2.887 1.081-3.612v-.362l.181-.538v-.725l.179-.719v-2.707l.181-1.261v-11.004l.181-1.984v-49.431l-.181-.359V112.387l-.181-.36v-.36l-.179-.362-.181-.181v-.359l-.181-.182-.179-.178h-.181l-.181-.181-.18-.182h-4.87V103.008h.179l21.108-.722.179.181v.179h.181v7.037zM258.688 180.036l-.176.905-.185 1.263-.363 1.081-.352 1.263-.548 1.263-.543 1.262-.534 1.262-.543 1.263-.72 1.082-.724 1.262-.724 1.086-.724 1.076-.895 1.087-.72 1.081-.905.906-.906.719-1.262 1.263-1.439 1.081-1.444 1.082-1.443.896-1.444.728-1.448.72-1.444.725-1.439.538-1.438.543-1.625.362-1.449.357-1.62.186-1.629.177h-3.063l-1.625-.177h-.9l-.901-.186-.9-.176-.901-.181-.91-.181-.9-.181-.901-.358-.905-.185-.72-.358-.9-.18-.9-.363-.725-.362-.9-.538-.901-.362-.9-.363-.729-.538h-.357l-.177-.18-.185-.182-.176-.181h-.182l-.185-.181h-.177l-.181-.176h-.176l-.186-.186h-.538l-.186-.176h-1.077l-.185.176h-.353l-.185.186-.177.176v.181l-.181.363v1.081l.181.362v.362l.177.363.185.538V205.115l-.185.177h-7.938v-.177h-.177V179.136h7.938l-.181.543.181.538v1.987l.177.361v.358l.185.543.176.362v.358l.177.362.185.357v.543l.182.363.18.357.901 2.167 1.081 1.807 1.439 1.438 1.444 1.263 1.63 1.261 1.981.907 1.806.718 1.982.725 1.801.362 1.986.176 1.983.186H229.463l1.801-.186 1.444-.176 1.263-.362 1.262-.362 1.092-.725 1.438-.9 1.263-1.081 1.263-1.263 1.262-1.443 1.086-1.439.901-1.811.724-1.801.538-2.163.181-1.987-.181-2.343-.362-2.345-.9-2.524-1.086-2.536-1.806-2.701-1.263-1.62-1.258-1.443-1.448-1.444-1.444-1.262-1.262-1.444-1.439-1.082-1.444-1.262-1.262-1.084-1.624-1.263-1.44-1.081-1.448-1.084-1.439-.9-1.443-1.084-1.444-1.082-1.444-1.262-1.448-1.084-2.34-1.623-2.167-1.624-1.982-1.622-1.806-1.444-1.625-1.262-1.619-1.444-1.267-1.263-1.263-1.081-1.076-1.263-.906-1.262-.901-1.084-.719-1.263-.724-1.262-.538-1.263-.543-1.443-.368-1.444-.352-1.622-.186-1.806v-1.804l.363-1.984.361-1.803.725-1.985.719-1.805 1.081-1.803 1.258-1.804 1.448-1.624 1.806-1.623 1.978-1.443 2.172-1.263 2.525-1.262 2.701-.903 2.888-.722.9-.179 1.086-.181h5.775l1.077.181h1.448l1.263.36 1.262.181 1.439.179 1.448.362 1.439.36 1.449.362 1.615.359v.182h.366l.182.181h.362l.176.178H239.569l.181.181H240.289l.18-1.984h8.114v22.009l-7.394.181-.177-2.706v-1.625l-.18-.722-.186-.9-.357-.722-.177-.722-.362-.722-.367-.541-.357-.721-.538-.541-.548-.543-.539-.541-.538-.541-.724-.54-.539-.541-.9-.362-1.992-1.082-2.158-.721-2.163-.36h-1.986l-1.987.178-1.982.362-1.807.541-1.624.901-1.438 1.084-1.263 1.262-.91 1.444-.895 1.622-.368 1.625-.176 1.624.176 1.982.548 1.806.176.722.362.541.543.721.544.722.533.722.73.901.9.721.896.903 1.091.903.9 1.081 1.263.901 1.262.903 1.263 1.084 1.439 1.081 1.625 1.263 1.624 1.081 1.625 1.263 1.625 1.084 1.624 1.081 1.439 1.084 1.448 1.082 1.263 1.081 1.262.903 1.263.903 1.077.9 1.086.722 1.077.903.91.721.719.723.9.54.72.722.543.541.719.722.719.721.73.901.715.903.91.9.718 1.084.72 1.081.725 1.084.719.901.543 1.084.539.9.543.903.543.903.176.541.357.721v.541l.181.537.186.545.177.362.361.543v.539l.187.538.175.724.177.714V173.18l.186.905v.9l-.186 1.082v1.263l-.177 1.262-.362 1.444zM251.113 244.617l.177-.357.185-.182.182-.181.18-.357.176-.186.187-.357.175-.181v-.181l.177-.358.186-.185.18-.358.182-.18v-.182l.176-.357.186-.186v-.176.176l.176.186.176.176.186.181v.182h.181l.182.18h.176l.185.181v.177h.358l.176.185.186.177h.181l9.376 3.425 1.268.725 1.262.362 1.082.176h1.624l.72-.358.543-.361.176-.358.363-.543v-.362l-.363-.72-.176-.362-.543-.538-.72-.543-.901-.362-1.086-.358-11.543-2.711h-.363l-.18-.185h-1.801l-.363.185.539-4.869.185.182.177.181h.181l.176.18h.367l.176.177h.363l.18.186h.72l2.529.538 1.082.362 1.258.362 1.086.176.905.182.901.362.895.181.905.176.725.186.725.176.718.181.543.181.535.182.366.18h.539l.181.176.362.177 1.806.728 1.262.906 1.081 1.077.72 1.262.362 1.086v1.263l-.186 1.263-.352 1.081-.724 1.082-1.082.9-1.081.724-1.449.362-1.439.177h-1.811l-1.801-.539-2.167-.724-1.439-.719-1.443-.543-1.263-.538-1.438-.544-1.092-.543-1.076-.358-1.082-.361-.901-.544-.724-.176-.724-.362-.724-.181-.539-.357h-.356l-.367-.186h-.177zM31.931 230.005V229.466l.181-.181v-.72l.179-.18V225.679l-7.576.538V229.285l.179.543v1.439l.181.544v1.081l.181.362v.362l-.181.181h-1.984l-.36-.181H22.19l-.181-.181h-.181l-.36-.181h-.18l-.363-11.363v.176h.903l.181.186h1.622l19.844-1.086h.362l.181-.177h.179l.181-.185h.181l.181-.177h.178l.182-.181h.181l.178-.18h.182l.54 10.462-.36.181h-.362l-.359.181H44.559l-.362.176H43.656l-.181.186h-1.081l-.182.176h-.359v-.176l.181-.186v-.176h.178V225.316h-5.953l-.178.363v1.986l.178.357v.72l.181.362v.362H35.538l-.179.181h-1.084l-.359.181h-1.625l-.36.177zM262.838 214.492V213.953l-.176-.361V213.053l-.186-.186v-1.263l-.176-.175v-.901l.176-.186.362-.176.358-.187h.185l.358-.175h.362l.186-.181h.714l.186-.182.177.182h1.086l-.181.356V210.885l-.182.362V213.229l.182.363v.723l.181.177h4.149l.534-.177h1.262l.544-.185h.548l.352-.177h.367l.357-.181h.362l-.175-.719v-1.263l-.187-.543v-.543l-.176-.362v-.901l-.181-.362V208.179l-.181-.363v-.361l-.186-.177h1.263l.186.177h.724l.352.186H276.913l.361.175h.357l.177.182.366.181.177.181v10.825l-.177-.181h-.18l-.186-.182-.177-.18v-.176l-.18-.187h-.177l-.186-.175h-.175l-.182-.187h-.367l-.176-.176h-.362l-.358-.181-17.856.906H256.887l-.18.176h-.363l-.18.18h-.177l-.186.182h-.176l-.367.181-.176.181-.181.176-.177.186-.185.176-.725-12.626.186-.18H254.539l.362-.182h.357l.367-.181H256.164l.357-.18h1.091l.171-.177h.905v.177l-.176.18-.185.181v.182l-.177.18v.177l-.186.186v.357l-.181.362v.358l-.171.361V210.885l.171.362v.9l.181.543v.363l.186.539.177.538.185.362h4.326zM250.75 244.979l.187.181.353.181h.185l.362.181.176.181h.187l.175.176h.177l.186.186.18.176.182.182h.176l.186.181.176.18h.176l.186.182-.186.176-.176.176-.176.186-.186.181-.176.181-.182.181v.182l-.18.18-.186.182-.177.361v.177l-.175.181V249.853l1.076 1.082 1.263.9 1.086.905 1.262 1.076 1.077.906 1.086.905 1.263.9 1.087.902 1.076.723.905.72.906.719.9.724.9.539.725.542.719.358.719.362-2.886 3.974-.177-.186-.186-.357-.176-.362-.181-.181-.186-.362-.357-.358-.177-.362-.362-.358-.366-.371-.358-.352-.362-.362-.543-.548-.357-.353-.538-.362-.549-.362-.352-.539-7.937-6.499-2.168-1.8-.358.362-.185.176-.177.186-.362.358-.181.18-.186.182-.176.356-.181.187-.177.176-.185.181v.181l-.176.362h-.182v.353l-.185.185-.358-.185-.175-.353-.187-.181-.176-.362-.181-.181-.181-.176-.186-.187-.176-.175-.176-.181v-.182l-.187-.18v-.182l-.175-.176v-.362l.175-.181.187-.362.352-.357.367-.363.357-.362.362-.538.358-.543.367-.543.361-.538.534-.544.543-.729.363-.534.356-.543.544-.719.361-.543z"/><path fill="#FFC425" d="M249.845 268.973l-6.67-11.183v-.181l-.175-.18-.186-.182-.177-.181-.185-.176-.177-.186-.181-.177h-.185l-.172-.18-.186-.181-.362-.182-.177-.18-.18-.177h-.186l-.177-.186.177-.185.186-.177.357-.176.186-.181.176-.362.358-.181.185-.176.358-.187.185-.175.363-.181.175-.182.363-.18.181-.182.357-.176.186-.186h.176v.362l.177.182.185.362v.181l.181.175v.363l.182.181.175.362v.181l.187.353.176.371.176.357.367.363.181.18.176.363 8.123 12.626 4.151-2.888.175-.181.177-.181.186-.176.18-.186v-.176l.182-.181.176-.182v-.18l.186-.181v-.177l.176-.185.176.185.186.358.181.18.182.182.175.357.187.186.176.357.175.181v.362l.182.177V268.791l-.895.9-.901.725-.91.724-.715.539-.9.723-.548.363-.72.538-.543.539-.543.361-.534.362-.361.182-.363.357-.362.186h-.176l-.186.176h-.176l-3.255-6.493zM205.475 43.475l.362-.179h.72l.358.179h.905l.356.181.539.181.367.181.543.179.357.362.544.178.361.363.177.362.357.359.186.36 5.412 15.155 3.783-9.923v-.179h.186V50.693l.181-.181v-3.068l4.145 1.624-6.313 22.369H218.282l-.186-.181H217.563l-.362-.179h-.182l-.186-.181h-.357l-.176-.181h-.362l-.182-.178-.366-.182-8.114-23.812V46.002l-.176-.181v-.18l-.185-.179V45.1l-.177-.182-.181-.181-.182-.178-.185-.362v-.179l-.177-.181-.361-.181-.177-.181zM86.771 284.48l-5.05-.895.181-.182.179-.175v-.187l.181-.176.181-.18.179-.182v-.362l.18-.176v-.187l.181-.175V281.06l.182-.182.9-8.299-4.869 10.286-1.806-11.186-1.081 8.299-.182.181V281.422l.182.181v.538l.181.181v.181l.178.182-5.05-.72v-.187h.181v-.175l.179-.181.181-.182v-.362l.181-.176v-.724l.181-.181v-.72l.179-.361v-.539l.181-.371v-.535l.181-.718.181-.725.178-.9v-1.086l.182-1.077.359-1.086.181-1.263.181-1.443.181-1.62.36-1.625.181-1.624v-.725l.181-.362v-3.426l-.181-.176v-.362l-.181-.363v-.18l4.331.905 1.441 10.453 4.15-9.553 5.231.539h-.179v.181l-.181.181-.18.18v.182l-.182.176v.177l-.178.185-.181.182v.361l-.182.182v.538l-1.081 9.562-.181 1.262-.181 1.263-.179 1.087v1.076l-.181.905v1.625l-.181.901V284.48zM162.539 61.877h-1.263l-.724-.181h-.719l-.719-.181-.544-.179-.719-.361-.725-.182-.724-.359-.538-.362-.724-.541-.72-.36-.719-.541-.543-.721-.722-.541-.722-.722.181-.362v-.722l.182-.181.178-.36v-.181l.181-.178.179-.362.185-.181.177-.179.361-.181.182-.181.181-.179.362-.181h.177l.361-.181h.362v.541l.177.541.186.543.357.541.181.359.362.362.362.36.358.362.18.179.539.362.362.181.357.178.543.182h.363l.543.181h.905l.72.178.542-.178h.539l.538-.181.544-.182.362-.178.543-.362.357-.36.362-.181.357-.362.362-.36.181-.362.177-.178.185-.363v-.36l.182-.54v-1.984l-.182-.363-.185-.54-.177-.36-.356-.362-.363-.181-.367-.36-.357-.181-.538-.359-.543-.182-.544-.181-.724-.181-2.163-.359-.538-.181h-.538l-.363-.179h-.367l-.357-.181h-.362l-.358-.181H156.764l-.362-.181h-.176l-.181-.179h-.362l-.182-.181-.538-.36-.362-.181-.361-.362-.363-.36-.357-.359-.182-.362-.18-.363-.181-.359-.177-.36v-.543l-.185-.541v-.359l.185-.541v-.541l.177-.362.181-.722.543-1.081.539-.903.9-.722.724-.541 1.082-.362 1.081-.36H161.276l1.077.182 1.086.359 1.087.541.9.362.896.722.905.54.538.722.187.181.175.179V40.769l-.175.362v.181l-.187.181-.352.36-.186.181-.362.178-.176.182-.367.181-.177.181-.356.178h-.187l-.176.181-.367-.721-.533-.722-.543-.541-.72-.541-.724-.362-.724-.179-.9-.181h-1.44l-.724.181-.724.179-.538.362-.363.36-.362.543-.176.719v.544l.176.178.182.181.18.181.181.179.182.181.176.181.362.181h.181l.176.179h.367l.176.181.363.181H159.833l.357.178h.548l2.163.544 1.982.54 1.806.722 1.263 1.082 1.076 1.081.724 1.265.362 1.263.177 1.443v1.442l-.353 1.443-.543 1.263-.72 1.262-.91 1.263-1.076.903-1.263.722-1.443.54-1.444.362zM118.342 64.043l-.721.178H115.636l-.721-.178-.541-.181-.722-.181-.722-.181-.722-.36-.722-.181-.721-.36-.723-.543-.721-.36-.722-.54-.722-.541-.722-.543V58.63l.181-.181.182-.362v-.178l.181-.363.178-.178.181-.181.181-.181.36-.181.181-.179.181-.181.36-.181.181-.181h.36l.18.543.182.541.359.541.182.359.359.362.362.36.36.362.362.36.36.181.362.181.541.179h.36l.543.181h1.262l.722.181h.54l.541-.181.541-.181.541-.179.541-.181.362-.362.36-.36.362-.36.359-.361.362-.36.179-.363.181-.178.181-.543.181-.179V54.3l-.181-.541-.181-.36-.181-.362-.359-.36-.182-.362-.541-.181-.359-.36-.362-.181-.541-.18-.541-.179h-.54l-.723-.181-2.346-.181h-.9l-.544-.179h-1.081l-.36-.181H111.124l-.359-.181H110.224l-.182-.181h-.18l-.541-.36-.36-.181-.541-.178-.362-.363-.359-.362-.181-.359-.363-.36-.178-.362-.181-.36v-.541l-.181-.362v-1.984l.181-.541.359-1.081.544-1.084.721-.903.901-.541.903-.54.9-.36 1.084-.182 1.082-.181h2.346l1.082.181 1.081.36.903.362 1.082.541.721.541.722.543.362.36v.181l.179.36v.181l-.179.181v.359l-.181.181-.181.36-.36.181-.18.36-.36.181-.181.181-.182.178-.359.181-.181.182h-.181l-.36-.722-.541-.541-.721-.541-.723-.362-.721-.359-.903-.181h-1.443l-.723.181-.719.181-.722.359-.543.36-.359.362-.182.541-.178.722.178.541v.18l.182.181.181.179.359.181.181.181h.181l.179.181h.362l.181.179h.36l.359.181h.544l.359.181h.722l2.344.179 1.985.362 1.805.541 1.263.903 1.263 1.081.902 1.082.541 1.443.36 1.263.181 1.443-.181 1.444-.36 1.443-.722 1.263-.721 1.263-1.082 1.081-1.084.903-1.263.722-1.622.362zM140.711 41.672l-2.166-.541h-2.343l-.181.181h-.722l-.181.181h-.36l-.181.179-.181 17.859v.362l.543 1.082-4.872.902.541-1.084v-.359l.181-18.581-.181-.181h-.181l-.36-.179h-.902l-.36-.181h-.722l-.362.181H125.917l-.359.179h-.722v.181h-.362l-.179.181h-.181v.178h-.181l-.181.182h-.178v.181h-.181v-4.15l17.318-.903v4.15zM238.85 279.797l-.544-.181h-.366l-.353-.177-.362-.185-.362-.177-.363-.181-.361-.362-.362-.18-.177-.363-.367-.362-.171-.358-.186-.362-.362-.543-.177-.538-.18-.538v-.543l-.186-.362-.177-.358-.18-.543v-.362l-.177-.543-.186-.539v-.361l-.175-.539-.182-.362v-.544l-.186-.366v-.534l-.176-.361v-.544l-.181-.357-.176-.544-.186-.9-.176-.724-.182-.719-.18-.72v-.543l-.187-.729-.176-.534-.175-.361v-.544l-.187-.358v-.361l-.176-.181V260.315h-.181v-.362l-.181-.181v-.357h-.186v-.186l-.176-.176-.176-.181-.187-.182-.175-.18-.181-.181 4.507-1.263v.181l-.177.182V258.152l.177.177v.724l.18.176v.362h.177l.186 1.087.18.9.177.72.186.895.176.729.186.72.171.723.182.901.185.724.177.901.362.9.186 1.077.538 1.091.362 1.081.362 1.263.538 1.444.181.357.182.186.176.176.362.181.357.181H240.832l.18-.181.363-.181.176-.362.186-.357.172-.544v-1.262l-.172-.176-.186-.543-.176-.72-.186-.724-.357-1.087-.363-1.262-.357-1.262-.543-1.263-.367-1.262-.352-1.263-.362-1.081-.363-1.082-.362-.901-.176-.724-.186-.538-.176-.181-.181-.182v-.361l-.181-.177v-.185l-.186-.177v-.181h-.177v-.18l-.175-.182-.186-.181-.177-.176-.185-.186-.177-.177 4.15-1.271.896 2.711.729 2.168.719 2.163.72 1.806.538 1.8.367 1.449.543 1.438.353 1.077.185 1.091.181.9.182.72.175.724v.539l.187.543v.362l-.187.357v.724l-.357.725-.181.538-.538.538-.362.548-.362.357-.538.362-.363.181-.543.362-.543.177h-.539l-.543.181H238.85zM245.338 73.962l.187.181.352.181h.367l.181.181.176.179.187.181.175.181h.181l.177.181.185.179.182.181.176.181v.181l.185.178.177.182.181.359V77.211l-.181.36-.177.541-.543.362-.543.541-.719.541-.719.361-.91.179-.896.362h-1.982l-1.091-.181-1.077-.36-1.081-.542-1.087-.901-.538-.543-.538-.541-.548-.541-.362-.54-.539-.722-.362-.541-.357-.541-.186-.721-.357-.722-.177-.722-.186-.722-.175-.722-.182-.722v-5.231l.357-2.344.72-2.165.729-1.625.9-1.441 1.263-1.084 1.077-.903 1.262-.541 1.267-.36h1.268l1.263.182 1.262.359 1.076.541 1.087.903.719.903.72 1.081-.176.36-.182.362-.185.36-.177.362-.181.36-.362.181-.176.359-.181.182-.181.181-.186.359-.176.181h-.176l-.187.181-.357.179-.181.181h-.185v-1.081l-.353-.903-.362-.722-.548-.722-.715-.36-.543-.18h-.905l-.72.18-.719.541-.724.722-.72.903-.543 1.262-.538 1.441-.362 1.625-.186 1.985.186 2.346.181 1.622.543 1.444.538 1.081.539.903.719.722.729.541.72.54.719.182.724.181h1.263l.538-.363.539-.178.366-.362.182-.36.175-.543v-.722zM105.714 262.659l2.163.358h.362l.181.176H108.961l.179.186h.181l5.594 16.06.54-14.435v-.72h-.181V263.741l-.181-.177h1.084l.181.177H117.799l.181.181h.362l.179.182h.362l.179.18.181.181.181.177-.362 2.168-.179 2.524-.181 1.982v1.987l-.181 1.801v1.625l-.179 1.625v1.443l-.181 1.263-.181 1.262v2.158l-.181.911v.9l-.178.543v.72l-.182.361v.362h-1.624l-.36-.18h-.54l-.182-.182h-.359l-.182-.181h-.181l-.18-.18-.179-.177-1.084-2.53-.36-.901-.181-.718-.36-.906-.181-.544-.362-.718-.178-.72-.363-.543-.178-.543-.181-.538-.182-.539-.18-.371-.179-.535-.181-.362-.181-.356-.181-.187v-.357l-.72 11.006H105.714l-.181-.181h-.903l-.178-.181h-.181l-.181-.181.181-.181v-.177l.181-.372v-.351l.178-.363.182-.362v-.538l.181-.362v-1.263l.178-.538v-.725l.181-.538v-.724l.181-.724v-1.801l.181-1.625.179-1.625.181-1.438V270.234l.181-1.081v-2.706l.181-.719v-.543l-.181-.543v-1.263h-.181v-.362h-.181v-.176h-.179v-.182zM90.921 68.012l.181-.181.179-.182v-.181h.181v-.181l.181-.179v-.361l.181-.179V46.002l-.181-.181v-.18l-.181-.179v-.181l-.181-.181-.179-.182-.181-.181-.181-.178h-.181l13.171-3.066V42.934l.179.181v1.263l.181.359v.544H103.549l-.181-.181h-2.888l-.359.181h-.36l-.362.181h-.359l-.363.179h-.54l-.541.18-.362.36-.722.181-.541.181-.721.36v4.15h1.262l.181-.181h.903l.36-.179h.362l.359-.181.363-.181h.359l.362-.181.36-.179.359-.181h.363v.181l.181.179v.362l.179.181V51.234l.18.179v.721l.181.362v.903l.182.36h-.903l-.541.181h-.903l-.541.179h-.721l-.541.181-.362.18-.36.182h-.362l-.36.178-.36.181-.181.182-.361.178v4.512l.18.36v2.525l.181.362h.901l.543-.181.541-.181.541-.179.54-.181.722-.181.722-.181.541-.179.721-.181.541-.181.722-.179.722-.18.541-.181.721-.182.722-.178v.541l-.181.54v1.263l-.178.359v.544l-.181.359v.181l-.182.181-.178.179-.181.181h-.181v.181h-.181l-12.988 2.888zM187.976 58.99l-1.806 4.328h-.719l-.725-.178h-.719l-.905-.181-.72-.181h-.905l-.9-.36-.906-.181-.895-.181-.901-.179-.91-.181-.895-.181-.72-.179-.724-.18-.9-.181-.544-.182.72-2.344h.185v-.54l.358-16.416h-.186v-1.084h-.172v-.181l-.547-1.803h.362l.724.181h1.624l1.083.181h1.081l1.082.178 1.081.181 1.086.182h1.077l1.086.36h1.077l.91.18.719.181.544.179.533.181.367 3.969-3.25-1.263-.538-.181h-.9l-.548-.178h-1.077l-.543-.181H178.414l-.186.181h-.177v4.328h.363l.181.181H179.138l.358.179H182.925l.363-.179v3.788h-.725l-.366-.181h-.72l-.357-.179H180.577l-.363-.181H179.314l-.362-.181h-.176l-.362.181h-.186v.36l-.177.541V57.006l.177.54v.363l.186.178h.181l.181.182h.538l.182.18h.718l.363.181.357.179H181.663l.362.181h.357l.358.181h.9l.186.179H185.626l.187-.179h1.438l.358-.181h.367zM101.564 286.472l-11.365-1.625.181-.181h.179l.181-.186.181-.176h.181v-.176l.179-.182.181-.18v-.363l.181-.175v-.187l.181-.356v-.72l.178-1.087.182-1.262.181-1.625.178-1.625.181-1.801.181-1.8.181-1.625.179-1.806v-1.624l.181-1.444v-1.439l.181-.905-.181-.729v-.534l-.36-1.624 10.823 1.624v.534l.181.186v1.448l.181.358v1.081l.181.362v.362l-2.347-1.262H101.203l-.36-.181H99.58l-.362-.182h-1.803l-.181.182-.722 5.769.181.186h1.263l.181.177h.54l.363.18h.721l.36.181h.722V274.203l-.181.182V275.104l-.182.186v.357h-.359l-.181-.181H99.399l-.181-.176H98.318l-.181-.186H97.055l-.362-.176h-.36l-.903 7.213 5.413.724h1.262v-.18h.181l.181-.182-.721 2.706v.182l-.182.175V286.472zM228.563 274.747h.177l.185.181h.363l.175.176.187.186h.176l.362.176.181.181h.181l.176.181.187.181.351.181.187.176.18.187.358.176.186.18v.544l-.186.724-.176.539-.182.538-.18.543-.363.543-.362.362-.357.358-.367.362-.352.356-.362.187-.363.357h-.362l-.361.181-.363.182h-.176l-.367.18h-.534l-.543-.18-.719-.182-.729-.181-.72-.357-.723-.543-.896-.72-.72-.905-.91-.901-.538-1.267-.72-1.439-.543-1.625-.538-1.986-.367-2.163-.177-2.525-.18-2.163.18-1.624.363-1.625.357-1.083.72-1.081.728-.543.715-.543.91-.357H223.513l.901.181.9.176.72.362.728.362.72.362.543.363v.718l-1.806 3.431v-.905l-.185-.358-.177-.371-.181-.176-.176-.176-.362-.362h-.181l-.363-.181h-.18l-.363-.182H223.328l-.177.182h-.362l-.539.181-.538.714-.362.911-.181 1.081-.181 1.262.181 1.444v1.443l.357 1.444.362 1.624.544 1.44.543 1.262.719 1.262.72 1.087.9.724.905.539 1.077.361h.186l.181-.181h.176v-.18h.186l.177-.182.185-.18v-.177l.176-.186v-3.244zM37.522 92.184h.181v-.182l.181-.178.181-.181V91.102l.179-.181v-.722l.181-23.812v-.362l-.181-.179v-.181l-.179-.181v-.179h-.181l-.181-.181v-.181h-.181l-.179-.181h-.362l.722-.541.722-.359.721-.362.542-.36.54-.181.722-.36.541-.181.362-.362.541-.179.54-.181.541-.36.362-.18.36-.181.543-.182.36-.178.541-.181.18-.181.36-.181.181-.179.362-.181h.36l.181-.181.36-.181.362-.179h.179l.362-.181.359-.181.363-.179.178-.181.362-.18.181-.182.36-.178.181 4.147h-.903l-.359.181h-.182l-.36.181-.361.36-.541.181-.541.181-.362.36-.722.362-.54.359-.723.362-.721.36-.901.362-.902.541-.182.36v.181l-.178.36v.361l-.181.179v1.625l-.181.181v1.984l.54-.181.363-.181h.359l.362-.178.36-.182.181-.181h.36l.362-.181.181-.178h.178l.182-.181H45.641v-.181h.18l1.985-1.082v.36l.181.181v.362l.179.179v.54l.181.181v1.985l-.36.181h-.362l-.36.181h-.541l-.362.179-.36.181h-.361l-.36.181-.541.181-.362.178-.36.182-.362.181-.541.178-.359.181-.362.362-.541.179v13.35l.181.181v.181l.178.178.182.181.181.182-5.053 3.247zM259.413 72.7l-.363 3.79h-.362l-.176-.363h-.362l-.186-.359-.352-.181h-.186l-.362-.181-.357-.36h-.186l-.357-.362-.363-.179h-.357l-.362-.362-.358-.181h-.361l-.549-.178v6.493l.186.541V81.359l.181.54v.182l.182.362v.178l.176.181.185.181v.182l.177.178.181.181h.176l4.879 2.344h.538v-.179h.363l.175-.18h.187l.176-.181h.175l.182-.179-.533 5.591-.544-.179-.543-.362-.538-.362-.725-.36-.538-.359-.729-.363-.719-.359-.72-.362-.9-.541-.72-.36-.91-.541-.896-.362-.905-.541-1.076-.54-.905-.544-1.082-.54.176-.179.186-.181v-.181l.177-.181.185-.178v-.182l.171-.181v-.181h.187V60.615l-.187-.181v-.362l-.171-.179v-.181l-.185-.181v-.181l-.177-.179v-.181l-.186-.181v-.36l-.176-.18h.176l.363.18h.185l.538.36.363.181.362.181.72.179.543.362.718.36.72.181.725.54.895.363.906.54.9.36 1.086.543.538.36.362.181.543.178.358.363.362.362.362.178.363.362.362.36.176.181.175.36.182.362.186.36.181.362v.36l.176.359v.181l-.357 1.985-.368-.179-.351-.362-.544-.181-.367-.36-.352-.359-.544-.181-.366-.363-.539-.181-.538-.359-.538-.36-.548-.181-.543-.362-.534-.179-.543-.362-.72-.36-.724-.181.363 5.231.361.363.177.178.357.181.367.36h.362l.357.181.363.181.357.181.362.181h.186l.352.179.363.181h.361l.187.181h.352l.186.179zM196.452 273.122l.543 9.743v.363l-.186.357-.172.361-.185.358-.177.543-.361.362-.544.357-.357.548-.544.358-.361.362-.544.181-.538.362-.538.177-.725.18h-1.086l-1.077-.18-1.086-.539-.72-.543-.905-.906-.719-1.086-.544-1.077-.538-1.262-.538-1.439-.185-1.263-.358-1.448-.181-1.625-.186-1.438v-4.15l.186-1.444.181-1.262.358-1.262.361-1.082.544-.901.356-.723.725-.725.538-.362.72-.358.543-.361.72-.182h1.267l.724.182h.538l.544.181.356.362.725.352.362.371.538.177.358.543.185.358.182.362.176.361v.901l-.176.362-.182.539-.185.543-.358.543-.362.538-.538.725-.538.538-.187-.363v-.357l-.176-.361-.18-.358v-.362l-.182-.362-.185-.181-.177-.357v-.186l-.176-.177v-.18l-.185-.182-.177-.181-.186-.181h-.177l-.9-.176-.728.357-.534.543-.362.901-.367 1.082-.177 1.261v2.888l.177 1.443.185 1.625.182 1.439.362 1.448.357 1.263.362 1.082.358.719.362.544.185.18.177.363v.175l.361.182h.177l.186.181.177.18H191.763l.362-.18h.176l.187-.181.176-.182.176-.362.186-.356V277.629h-.186v-.358H191.04l-.177.182h-.363v.176l-.361.177-.177.185-.185-1.262v-3.064h.185l.177-.181 6.313-.362zM65.665 280.878l-4.509-1.262h.18l.179-.177.181-.185.181-.177h.179v-.181l.181-.18v-.182l.181-.18v-.363h.181v-.362l3.247-17.314-.181-.18-.181-.182h-.179l-.362-.181h-.181l-.179-.181h-.181l-.18-.176h-.901l-.181-.186h-.362l-1.263.186v-1.263l.181-.362v-.724l.181-.176v-.363l.179-.18v-.363l.181-.357 11.725 2.525v2.163l-.178.363v.176l-.181.362v.18l-.182.358v.177l-.178.185-.181-.185h-.181l-.181-.177h-.179l-.181-.176h-.181l-.36-.182H71.258l-.362-.18H70.355l-.181-.181h-.54l-.181.361-.179.72-.181.901-.181 1.087-.36 1.443-.362 1.443-.359 1.439-.363 1.625-.359 1.625-.181 1.624-.36 1.444-.362 1.262-.181 1.262-.179.72v.725l-.181.18V280.878zM129.165 288.815h-5.051l.181-.175v-.186l.179-.177.181-.18v-.182l.181-.181v-.357l.181-.186V286.472l.541-18.581h-.362l-.36-.181h-3.609l-.181-.182V266.628l-.179-.181v-2.163l.179-.362 12.809.905V268.791h-.36l-.181-.176h-.359l-.182-.186h-.361l-.179-.176h-.362l-.36-.181h-.722l-.362-.181h-.722l-.359.181h-.181l-.722 18.4V287.554h.181V288.097h.181v.18l.181.363.179.175zM157.851 277.453V285.391l.176.538V287.015l.181.362v.72h.176v.357l.186.186v.175l.181.182.176.181h.187-5.237l.186-.181.177-.182.18-.175v-.186h.181v-.357l-.724-21.831-.539-1.439h11.364l.543 4.326-.186-.18-.176-.182h-.357v-.176h-7.037V272.941l.176.362v.9H160.552l.363-.176H161.815l.185-.185H162.539l-.186 3.611h-1.077l-.186-.182H158.751l-.181.182H157.851zM214.495 285.028v-.724h.18v-.358h-.18v-.718l-3.969-22.55.361-.187h.177l.543-.176h1.077l.366-.18H214.851v.18h-.176v.176h-.18v2.35l.18.352 3.421 19.31.186.182V283.228h.181v.357h.176v.361h.186v.182h.176v.176l-4.506.724zM230.55 75.949l-4.331-1.625h.182v-.181l.176-.181v-.178h.185v-.181l.177-.182.186-.178V72.7l.171-.179v-.181l-.171-20.206v-1.441l-.186-.181v-.181l-.177-.181v-.179l-.185-.181v-.181l-.176-.359v-.182l4.687 1.985-.362.903-.176.359v9.2l.176 1.803v4.513l.187 2.343V75.949h-.363zM45.641 215.216l-.722 1.082-1.262 1.081-1.444.9-1.622.725-1.803.538-1.806.543-1.984.182-1.984.181-2.166-.181-1.803-.362-1.803-.538-1.804-.9-1.443-1.087-1.084-1.263-.9-1.624-.541-1.982-.181-.362V210.707l.181-.362v-2.163l.179-.181v-.182l.181-.176.181.176h.359l.181.182h1.082l19.844.362H44.02l.179-.182h.362l.181-.181h.178l.181-.182h.36l.181-.176v.538l.181.362v.538l.181.357v.543l.179.353V213.21l-.179.382v.538l-.181.543-.182.543zm-20.926-3.612l.36 1.086.362.725.36.9.722.543.541.534.903.361.722.357.9.182.722.361.903.177h4.151l.541-.177.903-.181.719-.181.903-.182.541-.181.722-.353.541-.176.543-.182.359-.362.36-.356.362-.187.181-.353.179-.361.181-.362v-.715l-.181-.362-.9-.195h-1.084l-1.082-.177h-1.082l-1.262-.186h-2.347l-1.082-.176h-5.594l-1.082.176h-1.985v.003zM37.884 246.604l-.541-.181-.541-.357-.722-.187-.362-.356-.541-.182-.541-.538-.362-.362-.359-.362-.541-.538-.181-.538-.362-.543-.36-.725-.181-.543-.359-.725-.181-.724-.181-.896h-4.691l-.719.181h-.543l-.541.176-.541.177h-.541l-.362.186-.541.177-.36.186-.362.181-.178-.181-.181-.362v-.353l-.181-.361v-.362l-.181-.362v-.357l-.179-.548v-.714l-.181-.362v-1.077l.181.181h1.622l4.69-.181 15.153-1.625h.903l.181-.181H44.558v-.176h.181l.178-.187h.183l.181-.176.179-.177.181-.181 1.083 6.494v.166l.179.176V241l-.179.182v.363l-.181.538-.181.357-.181.543-.36.353-.181.543-.54.381-.359.357-.543.543-.541.362-.722.356-.541.187-.903.357h-.719l-.903.181h-1.985v.001zm-1.984-8.3v.91l.181.715.179.538.181.538.541.544.362.181.36.353.541.186.543.177.359.181h.541l.541-.181h.543l.359-.362.541-.177.362-.356.179-.182.181-.181.181-.357.181-.357.178-.362v-.718l.181-.362V238.489l-.181-.182v-.534h-.178l-.181-.181-6.675.712z"/><path fill="#FFC425" d="M36.081 266.447l-.181-.182h-.181l-.36-.176-.181-.186-.181-.357-.36-.182-.181-.361-.36-.177-.181-.362-.181-.181-.36-.362-.181-.357-.181-.186-.181-.176-.179-.177v-.181l.179-.182.181-.181.181-.181.181-.177.179-.186.181-.172.181-.19.359-.182.181-.181.181-.181.181-.357v-.177l.179-.181.181-.181v-.367l.181-.182-1.443-1.624v-.177h-.181v-.176l-.181-.181-.179-.187v-.181l-.181-.177-.181-.186-.181-.353-.179-.186-.181-.362-.181-.362-.179-.176-.181-.357-.181-.362-.181-.367h-1.263l-.178.182H29.224l-.181.181h-.181l-.179.181h-.362l-.178.182h-.362l-.36-.543-.181-.534-.362-.366-.179-.544-.181-.362-.181-.356-.178-.182-.181-.362v-.361l-.181-.177v-.538h-.181v-.538l-.179-.187.179.177h.362l.181.176h.359l.181.182H27.24l.181.181h.722l.178-.181 15.875-3.607 2.166-.538.181-.186h.36l.181-.177h.181l.179-.176h.181l.181-.181.181-.182.179-.181.181-.182.181-.176v-.176l.181.176.179.176.362.362.179.182.181.181.181.176.181.362.179.357.181.181.181.362.181.177v.356l.179.182.181.362.181.176.179.187-.72.533-.722.738-.722.72-.903.905-1.082 1.076-.903 1.087-1.082 1.263-1.263 1.081-1.084 1.263-1.081 1.263-1.082 1.081-.903 1.263-.903 1.087-.9 1.086-.722.9-.541.725-.181.176-.181.182v.362l-.181.182V266.088l-.179.176v.183h.002zm9.019-16.232l-10.103 2.701v.362l.362.362.179.176.181.362.181.357.181.186.179.357.181.177.181.361.181.362.178.187.362.361.179.177.181.362.362.181.179.362.181-.181.362-.362.359-.362.36-.353.543-.543.541-.553.541-.534.541-.729.541-.533.543-.729.541-.533.541-.544.36-.538.362-.357.359-.361.181-.181zM53.037 277.453h-.181l-.179-.182h-.362l-.181-.181h-.179l-.181-.182h-.362l-.179-.181h-.362l-.359-.176-.362-.177-.36-.181-.362-.187-.36-.361h.181l.179-.182.181-.176.181-.187V274.198l.541-9.376h-.36l-.181-.186h-.362l-.179-.177h-.362v-.181h-.359v-.181h-.181l-.181-.182h-.179l-.181-.181-.181.362-.181.361-.179.177-.181.357-.181.186-.179.362-.181.181-.181.177-.181.186v.176l-.179.362h-.181v.182l-.181.181v.177l-.181.176-.36.367-.181.543-.359.353-.181.362-.181.186-.179.362-.181.353-.181.186v.176l-.181.367v.182l-.179.181v1.077h-.362l-.178-.182-.181-.181h-.181l-.36-.172-.362-.362-.36-.176-.362-.181-.178-.362-.543-.182-.179-.361-.362-.187-.181-.357-.36-.181v-.362h.36l.181-.176h.181l.181-.177h.179v-.181h.181l.181-.186.181-.182.178-.181.181-.182v-.176h.181v-.186l2.706-3.603 1.082-1.267.903-1.444.722-1.081.901-1.263.722-1.081.722-.901.541-.9.722-.905.362-.729.36-.533.541-.729.181-.353.181-.362.179-.362.181-.176v-.358l.181-.181v-.368h.181V249.118l3.788 3.068 1.081 1.081 1.084.9.541 1.087.541 1.086.36 1.082.181 1.081-.181.9-.179 1.086-.362.906-.541.719-.722.91-.722.72-.9.543-1.084.538-.9.357-1.265.362v1.263l-.179 1.071V270.041l-.181.91V274.2l-.181.539v2.15l.181.182v.382h-.003zm.722-22.012l-.181.186v.177l-.181.181-.36.362-.181.357-.359.362-.181.543-.36.357-.362.538-.359.538-.181.362-.181.357-.179.543-.181.176v.54h.181v.181l.179.181h.362l.541.362.541.177h.541l.541-.177h.543l.36-.181.541-.362.362-.362.359-.357.362-.356.179-.544.181-.361V257.611l-.181-.543h-.179l-.181-.177v-.363l-.181-.176h-.181l-.179-.181v-.182h-.181l-.181-.181-.179-.182H54.3l-.181-.186h-.36v.001zM143.958 289.359l-.541-.182h-.362l-.541-.181-.359-.357-.543-.362-.36-.176-.359-.362-.362-.538-.181-.357-.359-.543-.362-.538-.179-.539-.181-.724-.359-.539-.181-.724v-.725l-.181-.724-.181-.725-.178-.725v-1.263l-.181-.724v-3.789l.181-.538v-.538l.178-.543v-.544l.181-.91.362-.896.179-.905.181-.724.36-.72.362-.729.359-.538.362-.538.36-.538.541-.357.362-.362.541-.357.541-.186.541-.177.543-.176.541-.181 1.803.181 1.444.72 1.262 1.081 1.082 1.806.722 1.982.543 2.173.359 2.524v2.525l-.181 2.516-.359 2.349-.723 2.163-.902 1.986-1.082 1.62-1.263 1.081-1.625.544h-1.805v.003zm.541-20.93l-.541.362-.541.538-.362.9-.36 1.087-.362 1.086-.178 1.439-.181 1.438-.181 1.448v1.62l.181 1.443v1.443l.359 1.263.362 1.082.541.9.722.729.722.533.9-.352.722-.725.722-.905.362-1.263.36-1.443.181-1.438.181-1.625v-1.615l-.181-1.624-.181-1.444-.36-1.443-.362-1.268-.541-.905-.541-.724-.722-.539h-.721v.002zM177.151 264.104v.714l.182.182V265.896l.181.186v.719l.177.357v.356l.186.182v.538l.176.362.177.357.181.905.357.905.186 1.081.362 1.082.353 1.262.362 1.263.372 1.277.176 1.263.538 1.263.362 1.263.176 1.262.539 1.092.181 1.263.357.9.362.905.186.725v.181l.177.181h.176v.353h.181v.182h.182v.181l.176.181h.187l-4.698.357-.538-3.063-5.774.182-.9 3.606h-4.508l.182-.182.176-.181.187-.176.176-.177v-.181h.181v-.372h.177v-.358h.181v-.544l.177-.181 3.792-18.225v-.356l.182-.362V265.183l-.182-.181v-.363l.182-.177h.176l.362-.176h.181l.357-.181h.901l.357-.182h.21l.182.182h1.081v-.001h-.008zm-1.081 9.923l-1.806 7.399h.363l.361.181h2.159l.357-.181h.72l-2.154-7.399zM204.747 286.472l-5.408.362h.177v-.363h.181v-.358h.182V282.319l-.182-.9v-.905l-.181-.905-.177-1.263v-1.263l-.176-1.263-.186-1.625-.177-1.619-.181-1.62-.362-1.986v-1.263l-.176-.543v-.72l-.182-.543v-.353l-.176-.543v-.357l-.187-.538-.176-.362v-.372l-.181-.176v-.357l-.179-.179-.181-.181v-.357l2.529-.186 2.35-.172 1.624-.181 1.435.181 1.268.172 1.086.362.9.729.72.533.729.91.362.72.353.905.181.905.182.9v.905l-.182.905-.181.72-.177.729-.361.719-.177.182v.181l-.195.156-.182.177-.181.176v.363h-.181l-.172.181v.182l-.186.176-.177.177-.186.185 1.448 2.882 1.982 5.413.181.181v.182l.182.181v.176l.171.196.186.357v.181l.177.181v.182l.186.176.172.177v.186l.181.176.181.182h.182l-.182.181h-.534l-.362.182H211.065l-.362.181h-.714l-.361.176h-1.262l-.366-.91-.181-1.081-.182-.9-.353-.729-.186-.9-.362-.729-.357-.72-.181-.543-.353-.533-.186-.544-.357-.538-.362-.357-.357-.362-.362-.181-.176-.353-.543-.181v.181h-.172v5.05l.172.538v1.076l.181.539.167.558.176.719v.363l.186.182v.352h.177v.363h.186v.182h.172v.183zm-3.059-21.287l1.076 6.855h1.634l.719-.361.544-.362.356-.533.177-.729.362-.533v-1.991l-.182-.719-.357-.544-.181-.361-.362-.353-.538-.362H201.687v-.007h.001zM254.539 233.979V224.231l.362-.901.538-.91.725-.719.9-.71.905-.538 1.086-.362 1.082-.362 1.086-.176h1.082l1.081.357 1.081.362 1.092.719.9.91.72 1.082.543 1.443H268.437l.182-.181H269.162l.362-.182h.353l.361-.181h.362l.534-.182h.361l.544-.176.533-.176h.543l.362-.182h.176l.357-.181h.357l.362-.182h.538l.362-.181.362-.176h.352l.182-.187h.357l.186-.176.357-.177.181-.181.177-.182.181.182V226.57h-.357l-.362.181H276.369l-.533.182h-.362l-.538.181h-.729l-.538.176-.729.177-.715.186-.729.177-.719.181-.729.182h-.905l-.9.361v1.982h1.439l.538.181h1.634l.72.182h4.331l.548-.182h.353l.181-.181-.181 5.412-.177-.181h-.176v-.177h-.187v-.186h-.352v-.177H276.369v-.176h-.357l-18.4-1.443h-.186l-.177-.182h-1.627l-.182.182h-.181l-.177.181h-.362l-.181.19zm5.95-10.65h-.176l-.176.177h-.363l-.182.186h-.362v.177h-.177l-.181.181h-.177v.182l-.186.181-.176.181-.182.177v.176l-.181.362v.552l-.182.357v1.976l.182.538v.538l.181.362v.538l6.142.176h.171v-.176l.182-.538v-3.074l-.182-.9-.356-.543-.177-.72-.543-.362-.533-.538-.729-.177H260.486v.011h.003zM207.276 68.19l-5.588-1.622-.187-.722-.357-.722-.181-.722-.181-.541-.172-.543v-.541l-.186-.722-.177-.541-.186-.541v-.722l-.176-.722-.362-.541-.177-.903-.176-.72-.362-.903-.372-1.084-.181-.178H197.724l-.362-.181H196.819l-.172-.181h-1.096v.181h-.177l.177 9.922-5.051-1.082.725-1.084v-.179h.181v-.722l.177-18.402V42.931l-.177-.178v-.722l-.181-.181v-.36l-.186-.181-.177-.181v-.178l-.186-.181v-.179l-.177-.181h1.077l.367.181h.896l.538.178h1.262l.548.181.72.181.729.181h.715l.729.181.905.179h.9l1.081.362 1.263.36.905.541.9.541.725.722.528.903.548.903.176.9.177 1.084v.9l-.353 1.084-.186.9-.539 1.084-.724.9-.905 1.084-1.082.722.177.9.186.903.177.722.186.722v.722l.176.719.177.722.181.543.357.541.186.722.177.541.357.722.181.541.181.541.357.541.362.722 1.459 2.705zM195.37 44.378V50.872H195.909l.181.181H200.238l.357-.181h.357l.181-.179.357-.181.187-.362.176-.36.182-.359.176-.362v-.541l.181-.362-.181-.541v-.36l-.166-.541-.182-.362-.362-.36-.357-.362-.361-.36h-.172l-.186-.181h-.187l-.356-.181h-.544l-.361-.181h-.539l-.356-.178h-.905l-.539-.181h-1.268zM71.799 74.684h.179l.181-.179v-.362l.181-.181v-.178l.181-.181v-1.082l.179-20.747v-.362l-.179-.179v-.362l-.181-.179v-.362h-.362l-.179-.181h-.181l-.181-.179h-.36l-.181-.181 1.262-.359 1.084-.362 1.082-.362.903-.359.9-.36.903-.181.9-.362.722-.179.722-.181h.722l.541-.181h3.069l.541.181.541.36.541.362.543.541.36.359.36.725.362.541.181.722V53.039l-.181.722-.362.903-.36.719-.541.903-.722.722-1.803 1.263v.362l.179.36.181.541.181.541.181.722.36.722.36.722.362.903.36.722.543.9.36.903.36.903.543.9.541.722.36.722-4.147 1.443-.181-.541-.181-.722v-.541l-.36-.541-.181-.725-.181-.541-.181-.722-.36-.541-.181-.722-.359-.541-.366-.722-.36-.722-.362-.722-.541-.541-.359-.722-.541-.722h-.722l-.362.181h-.181l-.359.181h-.182l-.36.181h-.18l-.181.179-.179.181-.181.181h-.181v.181l.181 11.906-.181.179h-.359l-.181.181-.36.181-.181.178h-.362l-.36.181-.362.181h-.36l-.36.181h-.362l-.181.18H71.799zm10.282-24.172H80.459l-.362.181h-.721l-.36.179h-.362l-.36.181-.362.181h-.359l-.36.179-.362.181-.36.362-.362.179v4.15l.181.181h1.263l.359-.181h.543l.36-.181h.541l.362-.179.359-.181.362-.181.359-.181h.362l.179-.178.181-.181.541-.36.362-.362.179-.181.362-.541v-.178l.181-.543v-1.263l-.181-.359-.181-.181-.181-.181-.179-.179-.181-.181h-.181v-.002zM60.615 80.637h-2.888l-.359-.179-.543-.181-.359-.181-.362-.179-.36-.181-.541-.362-.362-.179-.359-.362-.362-.359-.36-.362-.181-.36-.181-.362-.179-.179-.181-.362-.181-.359-.179-.362-.181-.541-.181-.36-.181-.362-.179-.541v-.541l-.181-.362v-.541l-.181-.541v-1.084l-.181-3.606.181-3.247.541-2.706.903-2.347 1.082-1.982 1.443-1.443 1.444-1.263 1.443-.722 1.623-.181h1.625l1.442.542 1.443.903 1.263 1.262 1.082 1.804.903 1.984.541 2.525V66.388l-.181 1.444v1.262l-.181 1.444-.36 1.622-.541 1.444-.362 1.443-.722 1.263-.72 1.263-.903 1.082-1.082.903-1.265.541-1.44.538zm.541-22.909l-1.444-.181-1.263.362-1.081.722-.722 1.082-.722 1.263-.543 1.625-.36 1.622-.181 1.984v3.609l.362 1.803.359 1.625.541 1.441.722 1.265.903.72.903.543h1.263l.9-.362 1.084-.722.722-1.082.722-1.262.541-1.444.541-1.803.181-1.806.179-1.803v-1.804l-.18-1.625-.362-1.622-.541-1.444-.722-1.262-.903-.903-.899-.541z"/></g></g></g></switch></svg>