<?xml version="1.0" standalone="no"?>
<!DOCTYPE svg PUBLIC "-//W3C//DTD SVG 20010904//EN"
 "http://www.w3.org/TR/2001/REC-SVG-20010904/DTD/svg10.dtd">
<svg version="1.0" xmlns="http://www.w3.org/2000/svg"
 width="2220.000000pt" height="2220.000000pt" viewBox="0 0 2220.000000 2220.000000"
 preserveAspectRatio="xMidYMid meet">
<metadata>
Created by potrace 1.11, written by Peter Selinger 2001-2013
</metadata>
<g transform="translate(0.000000,2220.000000) scale(0.100000,-0.100000)"
fill="#000000" stroke="none">
<path d="M4099 22050 c-57 -83 -115 -166 -128 -183 -18 -25 -409 -588 -869
-1250 -26 -38 -62 -90 -80 -115 -37 -52 -203 -292 -293 -422 -33 -47 -73 -105
-90 -130 -18 -25 -55 -79 -84 -120 -29 -41 -134 -192 -233 -335 -100 -143
-186 -267 -192 -275 -5 -8 -38 -55 -73 -105 -35 -49 -89 -128 -122 -175 -32
-47 -73 -105 -90 -130 -17 -25 -55 -79 -83 -120 -29 -41 -66 -95 -83 -120
-140 -200 -238 -340 -334 -480 -36 -52 -106 -153 -155 -224 l-89 -128 115
-142 c64 -77 162 -197 218 -266 79 -98 278 -385 351 -508 6 -9 32 -50 59 -90
26 -40 69 -119 96 -175 200 -424 219 -470 319 -774 55 -170 102 -325 105 -345
3 -21 10 -57 15 -80 6 -24 12 -54 15 -68 2 -14 12 -58 20 -97 9 -40 18 -86 21
-103 3 -17 12 -61 20 -99 8 -37 17 -92 20 -122 3 -30 7 -70 10 -89 2 -19 7
-73 11 -120 3 -47 8 -87 9 -90 19 -32 29 -909 12 -1150 -4 -63 -10 -158 -12
-210 -5 -89 -13 -185 -20 -220 -2 -8 -6 -44 -10 -80 -4 -36 -9 -74 -11 -85 -4
-20 -10 -67 -19 -137 -14 -105 -16 -125 -30 -218 -7 -47 -115 -678 -119 -695
-2 -5 -6 -28 -11 -50 -4 -22 -9 -47 -11 -55 -46 -233 -106 -502 -150 -675 -31
-121 -57 -227 -59 -235 -2 -8 -26 -105 -54 -215 -28 -110 -66 -265 -86 -345
-20 -80 -42 -167 -50 -195 -62 -222 -213 -774 -220 -805 -2 -8 -22 -87 -45
-175 -23 -88 -44 -167 -46 -175 -2 -8 -31 -123 -65 -255 -33 -132 -62 -247
-64 -255 -2 -8 -12 -51 -23 -95 -11 -44 -32 -136 -46 -205 -14 -69 -39 -187
-55 -263 -17 -76 -33 -157 -36 -180 -13 -92 -36 -243 -40 -267 -29 -172 -55
-353 -60 -430 -4 -52 -11 -124 -15 -160 -9 -72 -6 -658 3 -705 4 -16 11 -73
17 -125 5 -52 12 -106 15 -120 3 -14 8 -41 11 -60 14 -98 38 -212 55 -275 11
-38 22 -81 25 -95 10 -49 103 -317 159 -455 55 -138 170 -373 279 -574 98
-178 359 -539 516 -711 219 -241 325 -350 416 -427 27 -22 58 -50 69 -60 11
-10 54 -44 95 -75 41 -32 80 -61 85 -65 48 -37 133 -97 195 -138 41 -26 77
-52 78 -57 2 -4 9 -8 16 -8 7 0 17 -5 24 -12 27 -27 344 -193 507 -265 84 -37
412 -163 425 -163 4 0 25 -8 46 -17 22 -9 41 -17 44 -18 3 -1 50 -11 105 -23
55 -13 145 -34 200 -48 55 -13 118 -27 140 -29 45 -6 108 -17 210 -39 39 -8
93 -18 120 -21 59 -7 100 -13 138 -20 15 -3 54 -9 87 -15 33 -6 72 -12 87 -15
16 -3 43 -8 62 -11 18 -3 43 -8 55 -10 42 -8 192 -33 236 -39 25 -3 86 -12
135 -20 96 -15 133 -20 205 -30 25 -3 56 -8 70 -10 14 -2 45 -7 70 -10 37 -5
207 -32 309 -50 13 -2 45 -7 70 -11 25 -3 57 -8 71 -10 14 -2 49 -7 79 -10 30
-3 63 -7 74 -10 11 -2 45 -6 76 -9 31 -4 63 -8 71 -10 8 -3 33 -7 55 -10 22
-4 78 -13 125 -20 47 -8 102 -17 123 -20 96 -13 110 -16 116 -19 3 -2 33 -7
66 -11 32 -3 62 -8 65 -10 3 -1 37 -6 75 -10 39 -3 84 -8 100 -11 17 -2 84
-10 150 -19 66 -8 192 -23 280 -34 88 -11 187 -23 220 -27 33 -3 62 -8 65 -9
3 -2 34 -6 70 -9 36 -4 79 -10 95 -13 17 -3 41 -7 55 -8 68 -7 385 -72 540
-111 96 -25 183 -47 193 -49 34 -8 293 -97 335 -116 23 -10 63 -29 90 -40 26
-12 65 -30 87 -39 74 -32 267 -149 383 -233 113 -81 318 -274 437 -411 101
-117 237 -313 325 -473 47 -84 90 -153 97 -153 9 0 59 78 119 185 74 135 90
160 151 235 7 8 42 53 78 100 157 202 475 507 615 590 132 78 152 89 305 164
121 59 264 117 455 183 77 26 392 110 445 118 22 4 83 16 135 27 52 11 104 21
115 23 36 5 108 16 225 35 63 10 136 21 161 25 25 3 57 8 70 10 13 2 62 9 109
15 47 6 96 13 110 15 14 2 43 6 65 9 213 28 284 38 305 41 14 2 48 7 75 10 64
7 196 24 221 29 18 4 83 13 149 22 31 4 160 22 205 29 14 2 131 18 260 35 129
17 249 33 265 35 17 2 50 7 75 10 25 3 56 7 70 9 14 3 41 7 60 10 19 3 89 14
155 25 66 11 138 23 160 26 22 3 63 10 90 15 28 5 66 12 85 15 28 5 321 60
475 90 64 12 312 54 355 60 25 4 103 20 174 36 70 16 138 31 150 33 11 3 82
19 156 36 74 17 145 33 158 36 51 10 464 154 557 194 183 78 438 209 595 305
135 82 234 148 250 165 3 3 34 27 70 54 106 78 121 90 151 116 15 14 72 63
126 110 113 98 258 241 323 319 25 29 53 63 64 75 10 11 35 41 55 66 20 25 38
47 42 50 12 11 210 280 260 355 51 75 130 202 169 270 134 238 224 425 267
555 8 25 21 60 30 78 60 133 203 668 218 817 3 33 8 71 10 85 3 14 7 51 10 83
4 32 8 68 10 80 20 100 28 743 12 902 -5 44 -10 103 -12 130 -4 58 -30 206
-50 285 -8 30 -16 71 -19 90 -2 19 -9 55 -16 80 -14 52 -13 46 -39 175 -12 55
-30 134 -41 175 -17 65 -114 502 -126 570 -2 14 -16 72 -30 130 -29 117 -32
131 -38 160 -3 11 -12 48 -21 83 -9 34 -19 73 -21 87 -3 14 -10 43 -16 65 -5
22 -11 47 -13 55 -8 37 -58 231 -76 294 -12 38 -22 77 -24 88 -2 10 -22 85
-44 166 -42 154 -69 255 -77 284 -8 32 -86 328 -140 533 -19 72 -36 137 -38
145 -2 9 -27 103 -56 210 -29 107 -53 201 -55 210 -2 8 -13 51 -25 95 -11 44
-22 89 -24 100 -4 17 -20 90 -82 360 -3 11 -7 31 -10 45 -3 14 -14 61 -24 105
-11 44 -21 94 -24 110 -3 17 -8 41 -11 55 -3 14 -7 36 -10 50 -6 33 -11 55
-24 110 -5 25 -13 61 -16 80 -3 19 -17 86 -31 148 -30 144 -37 179 -49 282 -7
62 -11 87 -19 145 -6 40 -11 77 -22 165 -6 52 -12 94 -19 130 -3 14 -7 54 -10
90 -2 36 -7 81 -9 100 -3 19 -8 67 -11 105 -3 39 -8 88 -10 110 -2 22 -7 72
-10 110 -3 39 -8 88 -11 110 -10 84 -18 709 -10 765 2 14 7 68 10 120 7 98 10
131 21 260 11 130 15 158 59 365 8 39 17 81 19 95 3 14 13 61 22 105 9 44 19
91 21 105 4 23 64 222 84 280 5 14 21 66 36 115 58 191 86 258 209 505 80 159
170 320 239 428 61 95 116 180 121 189 67 109 142 214 195 274 36 40 103 116
150 169 47 53 114 129 150 169 36 41 73 83 82 93 16 19 15 22 -15 68 -76 114
-301 445 -306 450 -3 3 -12 17 -20 33 -8 15 -18 27 -23 27 -4 0 -8 4 -8 10 0
5 -22 40 -50 78 -27 38 -50 74 -50 79 0 6 -4 13 -8 15 -4 2 -66 89 -137 193
-71 105 -183 269 -248 365 -66 96 -139 204 -163 240 -24 36 -91 135 -149 220
-59 85 -153 225 -211 310 -58 85 -147 216 -197 290 -113 165 -338 496 -467
685 -52 77 -165 243 -250 368 -85 125 -159 235 -165 244 -5 9 -16 24 -22 32
-17 21 -275 402 -416 613 -62 92 -117 168 -124 168 -10 0 -435 -154 -508 -185
-16 -7 -52 -20 -80 -30 -27 -9 -59 -21 -70 -25 -45 -18 -86 -31 -205 -66 -69
-20 -132 -37 -140 -39 -8 -2 -60 -17 -115 -33 -55 -16 -109 -32 -120 -35 -11
-3 -60 -17 -110 -32 -103 -30 -143 -41 -310 -85 -66 -18 -169 -46 -230 -62
-60 -16 -117 -31 -125 -33 -8 -1 -42 -11 -75 -20 -56 -16 -233 -56 -300 -69
-27 -5 -196 -40 -530 -109 -66 -14 -140 -28 -165 -32 -24 -4 -47 -8 -50 -10
-3 -2 -29 -6 -59 -10 -30 -4 -63 -9 -75 -11 -12 -2 -86 -16 -166 -30 -187 -32
-188 -32 -234 -39 -21 -4 -48 -9 -60 -11 -55 -11 -203 -33 -266 -39 -25 -2
-66 -7 -91 -10 -25 -4 -64 -8 -87 -10 -23 -2 -65 -6 -94 -10 -29 -3 -70 -8
-90 -11 -21 -2 -55 -6 -75 -9 -53 -6 -118 -13 -188 -20 -33 -3 -71 -8 -85 -10
-14 -3 -61 -7 -105 -10 -44 -3 -105 -8 -135 -10 -30 -3 -84 -7 -120 -10 -110
-8 -203 -16 -240 -20 -19 -2 -75 -7 -125 -10 -49 -4 -106 -8 -125 -10 -19 -2
-107 -6 -195 -10 -88 -3 -191 -8 -230 -10 -257 -13 -489 -19 -675 -19 -265 1
-946 13 -1055 19 -44 2 -143 6 -220 9 -399 16 -470 20 -575 31 -19 2 -71 7
-115 10 -44 3 -96 8 -115 10 -38 4 -124 13 -210 20 -30 3 -75 7 -100 9 -25 3
-76 7 -115 11 -103 8 -173 16 -198 21 -12 2 -42 7 -67 10 -25 3 -52 7 -60 9
-8 2 -41 7 -73 10 -32 4 -68 8 -80 11 -12 2 -42 7 -67 9 -25 3 -52 8 -60 10
-8 2 -42 7 -75 11 -33 3 -69 8 -80 10 -10 2 -37 6 -60 9 -22 3 -51 8 -65 10
-14 3 -47 7 -75 10 -27 3 -88 13 -135 22 -47 8 -94 17 -105 19 -57 9 -77 13
-160 29 -49 9 -99 18 -110 20 -20 2 -113 19 -167 30 -16 3 -40 7 -55 10 -30 6
-172 31 -213 39 -175 30 -1027 238 -1275 311 -143 42 -330 97 -415 121 -155
45 -233 71 -495 163 -433 152 -522 184 -545 191 -14 4 -32 11 -41 14 -12 5
-41 -29 -120 -144z"/>
</g>
</svg>
